<?xml version="1.0" encoding="UTF-8"?><svg id="Layer_1" xmlns="http://www.w3.org/2000/svg" width="584.79" height="397.58" xmlns:xlink="http://www.w3.org/1999/xlink" viewBox="0 0 584.79 397.58"><defs><style>.cls-1{fill:url(#linear-gradient);}.cls-2{fill:url(#radial-gradient-2);}.cls-3{fill:url(#linear-gradient-3);}.cls-4{fill:url(#linear-gradient-4);}.cls-5{fill:url(#linear-gradient-2);}.cls-6{fill:none;stroke:#000;stroke-miterlimit:10;}.cls-7{fill:url(#Orchid-13);}.cls-8{fill:url(#Orchid-12);}.cls-9{fill:url(#Orchid-11);}.cls-10{fill:url(#Orchid-10);}.cls-11{fill:url(#Orchid-14);}.cls-12{fill:url(#radial-gradient);}.cls-13{fill:url(#Orchid-3);}.cls-14{fill:url(#Orchid-5);}.cls-15{fill:url(#Orchid-2);}.cls-16{fill:url(#Orchid-4);}.cls-17{fill:url(#Orchid-7);}.cls-18{fill:url(#Orchid-9);}.cls-19{fill:url(#Orchid-8);}.cls-20{fill:url(#Orchid-6);}.cls-21{fill:url(#Orchid);}</style><linearGradient id="Orchid" x1="172.37" y1="349.85" x2="334.35" y2="349.85" gradientUnits="userSpaceOnUse"><stop offset="0" stop-color="#ff7bac"/><stop offset=".22" stop-color="#ff7bac" stop-opacity=".76"/><stop offset=".6" stop-color="#ff7bac" stop-opacity=".36"/><stop offset=".87" stop-color="#ff7bac" stop-opacity=".1"/><stop offset="1" stop-color="#ff7bac" stop-opacity="0"/></linearGradient><linearGradient id="Orchid-2" x1="193.21" y1="312.48" x2="283.63" y2="312.48" xlink:href="#Orchid"/><linearGradient id="Orchid-3" x1="79.99" y1="280.05" x2="150.12" y2="280.05" xlink:href="#Orchid"/><radialGradient id="radial-gradient" cx="569.16" cy="61.6" fx="569.16" fy="61.6" r="19.76" gradientUnits="userSpaceOnUse"><stop offset="0" stop-color="#fff"/><stop offset=".03" stop-color="#fff6ed"/><stop offset=".12" stop-color="#ffdfbd"/><stop offset=".22" stop-color="#ffcb92"/><stop offset=".33" stop-color="#ffb96e"/><stop offset=".44" stop-color="#ffab51"/><stop offset=".55" stop-color="#ffa03a"/><stop offset=".67" stop-color="#ff982a"/><stop offset=".81" stop-color="#ff9420"/><stop offset="1" stop-color="#ff931e"/></radialGradient><linearGradient id="linear-gradient" x1="159.07" y1="63.86" x2="320.24" y2="63.86" gradientUnits="userSpaceOnUse"><stop offset="0" stop-color="#fff"/><stop offset="1" stop-color="#000"/></linearGradient><linearGradient id="linear-gradient-2" x1="234.35" y1="93.03" x2="255.22" y2="93.03" xlink:href="#linear-gradient"/><linearGradient id="linear-gradient-3" x1="243.04" y1="206.27" x2="344.03" y2="206.27" xlink:href="#linear-gradient"/><linearGradient id="linear-gradient-4" x1="238.42" y1="93.85" x2="259.7" y2="93.85" xlink:href="#linear-gradient"/><linearGradient id="Orchid-4" x1="261.08" y1="60.05" x2="559.15" y2="60.05" xlink:href="#Orchid"/><linearGradient id="Orchid-5" x1="451.86" y1="121.02" x2="543.31" y2="121.02" xlink:href="#Orchid"/><linearGradient id="Orchid-6" x1="353.35" y1="263.69" x2="452.4" y2="263.69" xlink:href="#Orchid"/><linearGradient id="Orchid-7" x1="7.72" y1="244.3" x2="232.39" y2="244.3" xlink:href="#Orchid"/><linearGradient id="Orchid-8" x1="234.82" y1="218.09" x2="336.52" y2="218.09" xlink:href="#Orchid"/><linearGradient id="Orchid-9" x1="277.33" y1="208.17" x2="365.94" y2="208.17" xlink:href="#Orchid"/><linearGradient id="Orchid-10" x1="423.9" y1="97.04" x2="493.65" y2="97.04" xlink:href="#Orchid"/><linearGradient id="Orchid-11" x1="362.41" y1="180.8" x2="432.56" y2="180.8" xlink:href="#Orchid"/><linearGradient id="Orchid-12" x1="324.32" y1="182.03" x2="551.94" y2="182.03" xlink:href="#Orchid"/><linearGradient id="Orchid-13" x1="466.66" y1="192.51" x2="503.57" y2="192.51" xlink:href="#Orchid"/><linearGradient id="Orchid-14" x1="499.45" y1="128.69" x2="547.95" y2="128.69" xlink:href="#Orchid"/><radialGradient id="radial-gradient-2" cx="292.91" cy="190.3" fx="292.91" fy="190.3" r="240.94" xlink:href="#radial-gradient"/></defs><path class="cls-21" d="m327.85,311.93c-2.38,55.5-68.28,80.76-115.35,64.73-13.54-4.61-25.91-13.03-34.56-24.49-4.6-6.09-15.02-.11-10.36,6.06,36.15,47.89,117.35,46.24,154.75.29,10.85-13.34,16.78-29.42,17.52-46.59.33-7.72-11.67-7.71-12,0h0Z"/><path class="cls-15" d="m215.12,294.42c10.62-5.27,24.31-4.54,35.52-1.84,9.63,2.32,22.83,7.28,25.97,17.83,1.56,5.23-.56,10.64-3.38,15.15,0,0-2.16,2.63-1.02,1.64s-1.59.74-1.5.69c-1.28.69-2.59,1.35-3.93,1.93-3.28,1.41-6.75,2.44-10.23,3.22-12.7,2.86-27.17,1.87-38.82-4.24-13.76-7.22-19.99-20.76-17.39-36.02,1.29-7.55-10.28-10.8-11.57-3.19-3.06,17.96,2.05,35.04,17.13,45.99,13.78,10,32.13,12.46,48.64,10,8.28-1.23,16.86-3.87,24.01-8.32,6.71-4.17,10.53-15.31,10.58-22.95.1-15.93-14.17-26.02-27.67-30.98-16.24-5.96-36.6-7.09-52.4.75-6.92,3.43-.85,13.78,6.06,10.36h0Z"/><path class="cls-13" d="m87.45,275.35c4.11-9.75,15.46-14.92,25.18-16.89,9.11-1.85,21.43-1.31,27.72,5.6s2.63,19.66-4.37,26.31c-8.18,7.77-20.33,12.24-31.56,12.09-5.14-.07-10.59-1.27-14.05-4.76-4.18-4.22-4.37-10.91-3.36-16.67,1.33-7.55-10.23-10.79-11.57-3.19-1.42,8.08-1.51,16.82,3.01,24.02,3.82,6.08,10.18,10.02,17.12,11.58,14.93,3.36,31.93-1.55,44.04-10.55,12.49-9.28,20.83-26.47,13.28-41.56-6.43-12.85-22.68-16.66-35.88-15.5-17.12,1.5-34.2,9.9-41.13,26.36-1.27,3.01,1.37,6.57,4.19,7.38,3.45.99,6.13-1.22,7.38-4.19h0Z"/><path class="cls-12" d="m568.8,85.97c-.7-3.17-1.34-6.36-1.86-9.57s-.67-4.3-.97-7.54c-.42-4.55-.58-9.14-.27-13.71.06-.93.17-1.85.25-2.78.1-1.17-.19,1.12,0,0,.08-.51.16-1.01.25-1.52.27-1.47.6-2.92,1.05-4.34.19-.61.5-1.22.65-1.84.06-.23-.67,1.4-.12.29.14-.27.26-.55.4-.82.24-.47.52-.91.79-1.36.82-1.37-.98.93.11-.16.26-.26.61-.53.82-.82.36-.49-1.35.81-.58.44.12-.06.42-.21.5-.32.11-.14,1.25-.56-.13.02-1.18.49-.43.23-.2.11.16-.08.37-.05.52-.13.56-.28-1.78.19-.93.14,1.34-.09-.4-.08-.48-.13.12.06.31.07.44.11,1.1.32-.62-.1-.7-.32.03.07.85.52.93.54.2.05-1.21-1.12-.65-.51.16.18.37.33.55.51.24.25,1.15,1.35.39.38s.25.41.46.77c.27.46.49.93.74,1.4.5.96-.28-.18-.18-.47-.05.15.33.85.39,1.03.47,1.31.82,2.65,1.1,4.01.15.73.24,1.48.39,2.22-.17-.84-.12-1.02-.03-.14.04.44.09.89.13,1.33.37,4.52.12,9.05-.41,13.54-.08.7.03-.22.04-.3-.06.44-.13.88-.2,1.33-.1.63-.2,1.27-.31,1.9-.25,1.42-.53,2.83-.84,4.23-.7,3.19-1.55,6.34-2.5,9.47s1.12,6.54,4.19,7.38,6.44-1.08,7.38-4.19c3.11-10.25,5.34-21.22,4.74-31.98-.38-6.94-1.79-14.5-6.53-19.88-3.76-4.28-10.16-5.66-15-2.31-5.58,3.87-7.84,10.96-8.78,17.39-1.93,13.26,0,26.81,2.88,39.8.7,3.16,4.37,5.02,7.38,4.19,3.26-.9,4.89-4.21,4.19-7.38h0Z"/><path class="cls-1" d="m323.02,24.92c-27.82-14.95-49.55,20.68-64.44,38.43-2.03,2.41-4.1,4.8-6.3,7.05-1.09,1.12-2.33,2.12-3.4,3.25-.4.42-.96.7-1.34,1.13-.08.09,2.82-.14.5-.05-6.44.27-12.73.28-19.18-.19-14.03-1.03-28.21-3.03-42.26-1.2-15.59,2.04-28.13,10.09-32.84,25.64-2.24,7.41,9.34,10.57,11.57,3.19,7.59-25.08,43.63-17.13,62.98-15.67,5.95.45,11.96.83,17.92.39,2.93-.22,5.44-.46,7.91-2.16s4.58-3.76,6.62-5.84c9.34-9.55,16.79-20.79,25.82-30.63,7.45-8.11,18.58-19.32,30.38-12.98,6.8,3.65,12.87-6.7,6.06-10.36h0Z"/><path class="cls-5" d="m247.43,84.18c.9,2.31.96,4.42.58,7.23-.34,2.48-1.56,5.48-2.33,6.78-.08.14-.51.68-.61.57.28-.17.58-.22.91-.17h-.58c.26.34.54.33-.12-.22-.29-.24-1.04-.92-1.14-1.04-.81-1.01-.92-1.34-1.01-2.32.07.71.29-1.49.17-1.07.05-.16.66-1.69.14-.57.23-.49.51-.96.79-1.42.71-1.15-.43.4.38-.54.36-.42.75-.81,1.14-1.2.26-.25.54-.5.82-.73-.44.31-.48.35-.14.1.43-.31.87-.6,1.33-.87s.89-.5,1.36-.72c.2-.09-.64.29.59-.15s.16-.21.12-.1l.41-.02c.68.03.53-.02-.44-.13-.13-.52,2.26,1.58-.09-.13-1.31-.95,0,.34-.9-.94.3.55.25.44-.13-.35l.11.43c-.09-.82-.11-.86-.06-.12v.56c-.12.69-.61,2.65-1.14,4.15l2.76-3.59c-1.68,1.17-4.15,2.82-5.57,3.39-.46.18-.93.31-1.4.45-.9.28-.05.22.14.04-.07.07-.74.05-.84.01,2.58,1.04-.61-.45.94.21.14.06,1.37,1.17,1.3,1.1-.55-.58.89,1.12.09,0,.62.87-.09,1.03.14-.22-.15.8-.41.53.14-.27.11-.16.16-.47.22-.65-.27.78-.1.63-.19.52-.31-.38,1.26-1.17.03-.16.58-.48-.87.55-1.26.64-1.36.3-2.1.13-2.97-.33-.65-.35-1.06-1.28-.61-.36.12.24.59.71.26.45-.16-.39-.12-.26.13.39l.15-1.57s-.52.7-.62.84c-.26.36-1.34-.04-.26.25.3.08.57.29.32-.14-3.63-6.21-12.03-1.8-10.97,4.62.76,4.6,2.23,9.96,6.7,12.3,4.23,2.22,8.81.36,11.97-2.76,6.05-5.95,9.87-15.48,10.74-23.81.34-3.23-3-6-6-6-3.53,0-5.66,2.76-6,6,.09-.83-.36,1.67-.52,2.25-.37,1.38-.83,2.75-1.36,4.08-.96,2.4-2.18,4.81-3.66,6.93-.49.71-1.03,1.25-1.69,2.05-.53.65-.05.39-.42.39-1.9.01,3.8.03,3.07.64.39-.33-.04,1.85-.08-.24-.02-1.41-.95-3.55-1.19-5.04l-10.97,4.62c5.53,9.48,20.03,6.57,22.43-3.95,1.45-6.36-4.38-15.08-11.55-13.23-10.81,2.79-10.56,22.15,1.65,22.44,3.42.08,6.75-1.32,9.69-2.94,2.1-1.16,4.91-2.67,6.19-4.74,1.03-1.67,1.51-4.05,1.83-5.96,1.13-6.82-1.98-13.96-9.74-14.12-12.63-.26-23.59,14.84-17.61,26.37,4.45,8.58,15.61,11.69,22.02,3.49,4.86-6.23,6.87-17.13,3.96-24.59s-14.38-4.02-11.57,3.19h0Z"/><path class="cls-3" d="m247.73,95.74c4.29,65.36,46.9,115.77,73.62,172.88,7.43,15.89,13.26,32.49,16.4,49.78l11.57-3.19c-10.92-27.63-28.08-51.65-44.84-75.95-8.24-11.94-16.33-24.02-23.3-36.77-3.84-7.03-6.81-13.62-8.74-21.39s-3.9-15.84-5.93-23.73c-4.77-18.54-10.09-36.93-17.2-54.72-2.8-6.99-14.06-4.29-11.57,3.19,18.75,56.31,34.77,117.63,79.01,160.1,5.57,5.35,14.07-3.12,8.49-8.49-42.68-40.96-57.84-100.5-75.92-154.8l-11.57,3.19c6.18,15.45,11.03,31.37,15.3,47.44,4.17,15.66,6.42,32.74,13.63,47.31,12.93,26.14,31.13,49.12,47.06,73.41,9.23,14.08,17.82,28.71,24.02,44.4,2.82,7.15,12.97,4.5,11.57-3.19-11.23-61.88-55.75-109.67-77.68-167.29-6.38-16.77-10.73-34.24-11.91-52.18-.5-7.67-12.51-7.72-12,0h0Z"/><path class="cls-4" d="m248.62,101.22c5.94-3.37,18.67-9.96,16.33-18.78-2.04-7.7-11.61-6.36-17.06-3.9-6.49,2.92-11.25,9.01-11.5,16.26-.15,4.43,1.69,11.67,5.85,13.89s9.98,1.69,12.6-2.84c3.57-6.19.23-16.18-4.42-20.97-3.27-3.37-8.24-4.3-12.07-1.31-4.23,3.31-5.61,9.63-5.41,14.75s2.31,9.94,7.18,11.94c4.49,1.85,9.33.35,12.92-2.66,7.95-6.67,8.3-20.13.82-27.26-3.4-3.24-8.41-3.69-11.86-.26-2.58,2.55-3.3,6.53-3.6,9.98-.58,6.66,2.16,18.07,11.32,15.76,2.01-.51,3.67-1.66,5.16-3.06,5.62-5.32-2.88-13.8-8.49-8.49-.51.48-1.1.55.18-.07-.7.34-.82.2.49-.1-.94.21,1.38,0,1.78.11,1.08.3,1.02.35,1.81,1.09-.43-.4-.56-.84.37.59-.11-.16-.21-.32-.31-.5-.57-1.06.28,1.38.14.37-.08-.54-.31-1.16-.45-1.7-.4-1.52,0,1.32-.04-.32-.03-1.35.04-2.68.05-4.03.01-1.2-.39,1.43-.03.31.06-.19.07-.41.12-.61.15-.55.37-1.12.48-1.67s-.73,1.28.04.1c-.3.45-1.39,1.39-2.14,1.58-.81.2-1.68.21-2.49-.01.88.24-1.5-.81-.66-.3.77.47-1.3-.42-.37-.29.19.03.55.6.68.73-1.1-1.11.19.37.52.94.27.46.58.95.78,1.45-.2-.47-.14.36-.15.19.03.49-.11,3.25.09,1.92-.12.81-.34,1.59-.59,2.38-.45,1.45.61-1.02-.12.25-.21.37-.48.75-.67,1.13-.59,1.2.84-.82-.08.1-.28.28-.59.55-.85.84l-.29.25c.72-.54.82-.63.3-.28-.05.18-.79.42-.94.52,1-.65.97-.38.47-.23-.77.25-.99-.11.32.06-1.98-.25.94.43-.54.02.08.02,1.37.73.6.25-.85-.53,1.19,1.03,0-.04,1.04.93.52.62.16.07.73,1.1.23.82.15.36-.06-.41-.22-.86-.32-1.27.34,1.48.02-.05.03-.4,0-.42.16-2.63.08-2.08.1-.72.35-1.43.44-2.15.14-1.1-.32.72.31-.71s-.68.47.26-.41c-.78.74-1.74,1-2.35.99-1.24-.02-1.54-.22-.96-.09-1.39-.33-1.22-.55-.59-.18-2.05-1.18-.49-.62-.39-.26.03.1,1.08,1.25.31.29-.64-.8.58.99.78,1.36.17.31.3.66.47.96.56.96-.37-1.24-.04-.08.23.83.55,1.62.75,2.46.05.23.09.47.15.7.42,1.56.1-.81.03.11-.04.56-.05,1.3,0,1.87-.15-1.51.26-1.19.03-.52-.33.95.82-1.52.13-.34.71-1.22,1.93-1.82,3.35-1.91-.62.04-1.1-.31.49.11-1.55-.41.82.48-.27-.03l2.15,2.15c-.26-.46-.51-.92-.75-1.38-.15-.29-.29-.6-.42-.9.02.05.37.97.17.34-.14-.42-.29-.84-.41-1.27-.09-.33-.4-1.96-.27-1.02s-.01-.3-.01-.54c0-.41.06-.87.03-1.28-.07-.94-.37,1.06-.01.21.14-.33.24-.79.31-1.14.24-1.23-.53.76-.05.06.18-.26.31-.58.46-.85.12-.21.88-1.34.25-.45-.6.83.15-.18.35-.37.48-.49,1.01-.92,1.5-1.4.22-.22-1.17.72-.21.19.36-.2.69-.45,1.05-.66.56-.33,1.21-.54,1.75-.89-1.38.89-.27.12.58-.13.12-.03,1.61-.48,1.67-.38s-1.82.04-.64.1c.28.01.6,0,.88-.02,1.5-.1-1.27-.33-.19-.01.86.25-1.13-.53-.84-.37.25.14-.92-.83-1.1-1.06-.83-1.09-.82-2.02-.87-3.27-.05-1.05.1-.57-.05-.13.25-.73.82-1.23.17-.56-.85.87.25-.19.12-.11-.29.17-.56.62-.8.86-.37.37-.76.73-1.16,1.08-.2.18-1.31,1.08-.83.71.56-.44-.13.1-.21.15-.38.27-.76.55-1.14.81-.59.41-1.19.81-1.79,1.2-1.65,1.07-3.34,2.06-5.05,3.03-6.72,3.81-.68,14.18,6.06,10.36h0Z"/><path class="cls-16" d="m261.13,110c30.39-3.04,53.51-23.12,76.09-41.83,11.53-9.54,23.29-18.97,36.59-25.96,6.75-3.55,13.85-6.31,21.28-8.05,6.98-1.64,14.1-1.67,21.07-3.21,23-5.08,46.45-8.97,70.04-9.55,18.25-.44,41.93.29,56.07,12.29,7.16,6.07,10.35,14.17,10.37,23.75.03,15.53-6.69,30.74-13.64,44.28-3.52,6.86,6.83,12.94,10.36,6.06,10.87-21.15,23.43-51.33,8.92-73.88-11.6-18.02-34.87-22.85-54.78-24.18-24.97-1.67-50.31,1.8-74.8,6.43-5.69,1.08-11.37,2.25-17.02,3.52-7.52,1.68-15.26,1.63-22.78,3.69-15.24,4.16-29.03,12.27-41.63,21.62-26.28,19.49-51.6,49.57-86.15,53.02-7.61.76-7.69,12.77,0,12h0Z"/><path class="cls-14" d="m535.86,37.94c5.37,25.86-14.74,46.35-29.94,64.52-7.87,9.41-15.73,19.14-20.67,30.47s-7.98,24.16-12.19,36.18c-4.58,13.06-11.18,25.05-24,31.43-6.91,3.44-.84,13.8,6.06,10.36,25.97-12.92,29.82-43.03,38.81-67.56,9.26-25.28,31.96-41.94,45.36-64.73,7.95-13.53,11.37-28.37,8.16-43.87-1.57-7.56-13.14-4.36-11.57,3.19h0Z"/><path class="cls-20" d="m445.19,210.83c7.35,51.32-38.32,107.14-91.78,100.69-7.65-.92-7.58,11.08,0,12,47.59,5.74,89.43-32.79,101.12-76.81,3.41-12.82,4.11-25.95,2.23-39.07-1.09-7.61-12.65-4.38-11.57,3.19h0Z"/><path class="cls-17" d="m165.69,343.76c-25.19,7.22-50.38,2.08-75.49-2.66-4.94-.93-9.79-2.52-14.72-1.02-3.83,1.17-7.46,3.06-10.85,5.16-6.77,4.21-12.85,9.47-19.8,13.38-6.2,3.49-12.28,4.76-17.94-.4-4.43-4.04-8.15-9.37-10.27-14.98-4.01-10.63-2.46-22.08,1.18-32.58,9.66-27.85,32.11-51.27,53.07-71.13,19.83-18.79,41.32-35.49,63.97-50.69,7.78-5.22,14.31-12.93,20.84-19.6,7.21-7.34,14.4-14.73,22.17-21.48,15.49-13.47,33.41-23.09,54.47-20.52,7.65.93,7.58-11.07,0-12-41.85-5.11-69.63,31.04-96.5,56.88-9.54,9.17-21.33,15.87-31.88,23.87-12.87,9.76-25.34,20.04-37.22,30.99-23.47,21.63-47.28,46.74-59.17,76.89-4.79,12.15-7.06,25.72-3.76,38.55s14.41,29.97,29.22,31.32c9.17.84,17.55-4.17,24.79-9.2,3.97-2.76,7.81-5.7,11.88-8.32,1.92-1.23,3.88-2.44,5.95-3.4.85-.4,1.64-.73,2.53-1.03.16-.05,2.63-.52,1.6-.46,3.38-.17,7.49,1.38,10.85,2.02,3.61.69,7.22,1.39,10.83,2.05,7.13,1.3,14.29,2.46,21.5,3.24,15.44,1.67,30.94.98,45.92-3.32,7.41-2.12,4.26-13.71-3.19-11.57h0Z"/><path class="cls-19" d="m229.32,119.54c2.13,60.74,39.73,111.24,73.6,158.79,9.65,13.54,19.21,27.15,27.99,41.27,4.07,6.55,14.45.53,10.36-6.06-30.27-48.7-71.53-92.31-90.78-147.17-5.31-15.13-8.61-30.8-9.18-46.84-.27-7.7-12.27-7.74-12,0h0Z"/><path class="cls-18" d="m369.79,305.06c-36-44.04-62.2-95.89-76.59-150.9-4.08-15.59-7.25-31.43-9.37-47.41-.43-3.24-2.45-5.96-6-6-2.91-.03-6.43,2.79-6,6,7.81,58.79,28.1,115.6,59.81,165.78,9.02,14.28,18.98,27.94,29.67,41.02,4.89,5.98,13.34-2.55,8.49-8.49h0Z"/><path class="cls-10" d="m432.44,84.77c7.57-13.21,23.44-16.34,37.22-11.93,11.21,3.58,21.39,13.36,15.8,25.45-4.24,9.17-13.49,15.24-22.13,19.78-5.81,3.05-13.49,5.73-19.48,4.86-9.6-1.39-13.78-9.86-13.42-19.2.47-12.07,9.17-21.87,22.31-23.73,7.62-1.08,4.38-12.64-3.19-11.57-15.83,2.24-28.16,14.69-30.61,30.43-2.23,14.32,3.79,30.08,18.47,34.85,8.35,2.71,17.58.96,25.5-2.29,11.66-4.79,23.08-12.29,30.34-22.75,11.54-16.6,4.1-36.07-13.31-44.54-20.05-9.74-46.2-5.78-57.87,14.58-3.85,6.71,6.52,12.76,10.36,6.06h0Z"/><path class="cls-9" d="m373.95,174.15c-.81-25.17,42.1-24.42,50.56-5.18,4.54,10.32.93,24.93-8.02,31.73-8.35,6.34-19.96,7.24-29.65,4.08-13.63-4.45-19.25-16.84-17.5-30.51.98-7.64-11.03-7.57-12,0-2.11,16.42,5.28,32.52,20.55,39.76,13.61,6.46,30.97,6.18,43.7-2.32,13.92-9.3,19.91-27.92,15.19-43.96-4.82-16.39-22.63-24.37-38.56-24.64-18.54-.32-36.92,10.73-36.27,31.05.25,7.7,12.25,7.74,12,0h0Z"/><path class="cls-8" d="m534.68,38.7c6.16,11.53,11.76,24.59,10.63,37.96-.77,9.09-5.33,17.1-11.26,23.93-14.82,17.07-33.87,29.57-46.48,48.71-8.99,13.64-13.74,29.19-15.21,45.38l1.76-4.24c-9.98,9.53-16.71,21.31-19.93,34.72-2.73,11.35-2.99,23.15-5.86,34.47-1.32,5.21-3.27,10.19-6.36,14.63-3.68,5.28-8.94,9.02-13.88,13.01-10.94,8.83-21.86,17.81-34.06,24.88-13.08,7.58-27.82,12.64-42.95,8.92l3.59,2.76c-4.89-7.44-6.01-16.48-9.07-24.7-3.41-9.16-8.87-16.98-18.06-21.01-7.01-3.07-13.12,7.26-6.06,10.36,15.09,6.62,14.22,25.14,20.85,38.06,2.38,4.63,4.84,6.18,9.99,7.05,4.63.78,9.31,1.05,13.99.62,9.75-.89,18.95-4.03,27.67-8.39,17.54-8.77,32.58-21.98,47.76-34.2,13.92-11.21,18.49-26.71,20.8-43.76,1.13-8.32,2.13-16.7,4.65-24.74,1.27-4.05,2.95-7.9,5.11-11.56,2.88-4.88,6.93-8.24,10.3-12.63,2.5-3.25,2.05-7.97,2.75-11.91s1.58-7.53,2.73-11.19c1.94-6.17,4.64-12.02,8-17.55,11.96-19.72,31.58-32.07,46.45-49.2,7.9-9.1,13.55-19.46,14.7-31.6,1.49-15.71-4.96-31.27-12.2-44.83-3.64-6.81-14-.76-10.36,6.06h0Z"/><path class="cls-7" d="m473.75,229.06c-3.26-26.67,9.43-53.68,32.6-67.55,6.62-3.96.59-14.34-6.06-10.36-26.46,15.85-42.3,47.17-38.54,77.92.93,7.57,12.94,7.66,12,0h0Z"/><path class="cls-11" d="m504.05,156.82c15.93-15.93,31.86-31.85,47.79-47.78,5.47-5.47-3.01-13.95-8.49-8.49-15.93,15.93-31.86,31.85-47.79,47.78-5.47,5.47,3.01,13.95,8.49,8.49h0Z"/><path class="cls-2" d="m260.35,112.93c15.06,3.78,30.1,1.56,43.5-6.27s23.23-18.53,33.21-29.35,19.79-22.58,32.02-31c17.43-12.01,38.51-12.46,58.92-13.34,11.5-.5,23.04-1.25,34.27-3.88,10.42-2.44,20.49-6.16,30.63-9.52,18.08-6,39.22-12.53,56.91-1.84,6.9,4.17,12.02,13.29,15.39,21.27,4.18,9.9,6.91,20.79,7.45,31.54.23,4.5.1,9.07-.76,12.74-.48,2.04-1,3.57-1.49,4.45-1.08,1.94-.64,1.28-2.35,2.93,1.29-1.25-1.78.75-.1.03-.39.17-2.15.52-1.49.43.62-.08-1.3-.02-1.76-.06,1.19.1-.06-.02-.37-.09-.71-.15-1.41-.35-2.1-.58-1.75-.59-3.54-1.57-5.38-2.71-3-1.85-5.95-5.17-9.34-5.98-16.42-3.92-30.49,6.42-33.32,22.58-.61,3.51-.89,7.08-.77,10.65.14,4.05,1.38,7.72.06,11.63-2.33,6.93-8.25,12.09-13.59,16.76-6.13,5.35-12.59,10.39-17.66,16.82-2.4,3.05-4.63,6.33-5.97,10.01-1.73,4.76-.83,10.39-1.13,15.43-1.15,19.24-6.65,38.19-15.2,55.42-8.87,17.88-20.83,34.04-34.92,48.14-7.02,7.02-14.53,13.59-22.52,19.49-4.09,3.02-8.3,5.9-12.6,8.62-3.27,2.06-5.92,2.33-9.74,2.31-23.39-.08-32.69-23.16-38.83-42.22-7.26-22.5-11.51-48.28-27.01-66.96-3.37-4.06-7.43-7.55-11.99-10.23-5.69-3.35-12.69,5.01-7.27,9.42,30.13,24.53,39.71,65.26,28.21,101.77-10.91,34.63-41.11,60.66-78.67,56.73-5.04-.53-10.21-1.53-15.03-3.09-7.27-2.36-14.11-7.13-21-10.46-14.25-6.89-29.45-12.69-45.49-12.75-8.27-.03-15.73,1.87-23.53,4.24-3.79,1.15-8.12,1.33-12.06,2.19-8.91,1.93-17.64,4.6-26.37,7.22-17.66,5.31-35.97,11.66-54.57,12.14-6.96.18-14.27-.53-20.27-4.11-6.4-3.82-9.83-10.57-11.55-17.71-1.04-4.32-1.55-8.81-1.6-13.25,0-.84.04-1.67.08-2.51.03-.75.16-1.39,0-.24.08-.57.17-1.13.29-1.69.44-2.17,1.03-4.29,1.75-6.39,1.02-2.99,1.34-3.68,2.49-6.14,5.69-12.22,13.53-23.46,21.7-34.12,21.5-28.08,46.94-53.39,73.44-76.71,25.37-22.32,52.63-43.88,82.88-59.25,5.93-3.01,10.94-5.29,17.08-7.38,2.6-.88,5.23-1.67,7.9-2.29,1.23-.29,2.46-.53,3.7-.75,1.94-.35.58-.19,2.42-.31,2.16-.14,4.27-.18,6.43-.01,1.11.08-1.12-.23.3.04.47.09.95.17,1.41.28.97.23,1.91.52,2.85.87-.99-.36.27.14,1.16.63.39.21.75.47,1.12.71,1.12.72-.7-.69.28.22.61.57,1.19,1.14,1.75,1.76.67.74-.62-.96.15.18.3.45.6.9.87,1.36.25.42.47.86.69,1.29.55,1.04.17.32.19.36.39.99.81,2.04,1.01,3.09.53,2.78-.1,7.34.22,10.97.82,9.25,3.15,18.23,6.4,26.91,7.32,19.52,18.13,37.48,28.58,55.44,16.17,27.8,43.92,69.15,21.34,100.71-5.99,8.37-14.5,14.63-23.26,19.83-6.63,3.94-.61,14.32,6.06,10.36,18.21-10.82,34.06-26.51,37.03-48.33,2.66-19.52-4.63-38.82-13-56.1-9.65-19.93-21.78-38.54-32.34-57.99-9.18-16.91-18.69-35.73-19.06-55.39-.13-6.72-.23-12.24-4.04-18.06-2.63-4.04-6.26-7.11-10.7-8.98-9.77-4.12-21.15-2.03-30.9,1.09-31.26,9.99-59.28,31.23-84.58,51.46-30.24,24.19-58.66,51.13-83.77,80.64-10.44,12.27-20.49,25.07-28.86,38.87-5.91,9.74-11.65,20.58-12.86,32.08-1.71,16.26,4.27,36.11,18.91,44.84,15.7,9.36,36.31,5.76,53.08,1.85,19.34-4.5,37.97-11.68,57.37-15.89,4.59-1,9.03-1.25,13.4-2.76,8.02-2.77,16.35-3.77,24.8-2.96,17.02,1.64,32.71,10.15,47.58,17.95,19.34,10.15,44.03,11.32,64.48,3.45,18.11-6.97,32.84-20.21,42.95-36.67,20.9-34.05,22.1-80.42.43-114.4-5.63-8.83-12.66-16.69-20.77-23.29l-7.27,9.42c9.26,5.44,14.84,15.18,18.94,24.82,4.95,11.65,8.13,24,11.74,36.1,6.44,21.6,14.5,48.43,37.65,57.37,5.8,2.24,12.21,3,18.39,2.67,3.63-.19,7.18-.47,10.37-2.27,4.84-2.74,9.46-6.06,13.96-9.33,16.92-12.31,31.99-26.86,44.66-43.52,12.26-16.12,22.01-34.19,28.19-53.51,3.11-9.72,5.18-19.72,6.33-29.86.53-4.71.83-9.44.88-14.18.02-2.29-.14-3.94.79-6.01.83-1.83,2.06-3.56,3.29-5.14,10.17-12.96,26.88-20.24,33.03-36.36,2.97-7.77.1-15.25,1.17-23.26.83-6.24,3.59-12.62,10.06-14.54,1.56-.46,3.13-.58,4.75-.57,1.02,0,2.11-.01,3.11.18-1.03-.2.12-.13.9.39,2.85,1.92,5.42,4.12,8.47,5.77,4.19,2.26,8.97,4.05,13.81,3.77,9.47-.56,14.98-8.61,16.82-17.21,2.29-10.75.97-22.21-1.41-32.82-2.5-11.14-6.62-22.43-12.97-31.97-7.29-10.97-17.57-17.86-30.73-20.16-22.35-3.9-44.11,5.81-64.92,12.49-10.93,3.51-21.86,6.01-33.32,6.89-12.19.94-24.44.83-36.6,2.16-19.29,2.11-35.77,8.43-50.42,21.15-11.85,10.29-21.77,22.55-32.69,33.77-10.04,10.31-21.43,20.8-35.77,24.37-7.05,1.76-14.22,1.39-21.23-.37-7.49-1.88-10.69,9.69-3.19,11.57h0Z"/><path class="cls-6" d="m529.74,6.05c49.09,26.83,18.52,86.96-15.01,111-14.27,24.12-31.33,64.66-55.01,81,35.28,60.6-74.51,183.73-122.03,113.01,10.07,52.1-49.04,66.82-83.02,85.99-19.9-3.76-55.58-23.34-72.01-35-39.41,1.36-95.4-7.49-134.03,10.02-145.3-44.14,78.77-208.24,142.03-234,78.84-24.62,36.02-13.51,43.01-52.01-17.41-4.51-51.08-.49-68.01,5-8.5,12.9-8.14,14.39-9-2.01,21.42-16.11,70.15-3.47,92.02-13.99,8.38-1.65,60.64-70.27,70.9-49.24,6.08,3.01,8.12,4.23-.89,7.23-8.53-9.94-55.62,39.26-62.02,42,7.59,6.41,4.63,17.08,2,25,13.9,10.45,76.84-50.15,87.03-56,40.48-14.02,140.79-48.13,184.04-38Z"/></svg>