<?xml version="1.0" encoding="UTF-8"?><svg xmlns="http://www.w3.org/2000/svg" width="1563.34" height="1081.15" xmlns:xlink="http://www.w3.org/1999/xlink" viewBox="0 0 1563.34 1081.15"><defs><style>.cls-1{fill:url(#linear-gradient);}.cls-2{fill:url(#Summer-2);}.cls-3{fill:url(#radial-gradient-3);}.cls-4{fill:url(#radial-gradient-4);}.cls-5{fill:url(#radial-gradient-2);}.cls-6{fill:#594545;}.cls-6,.cls-7{stroke:#000;stroke-miterlimit:10;}.cls-8{fill:url(#linear-gradient-3);}.cls-9{fill:url(#linear-gradient-4);}.cls-10{fill:url(#linear-gradient-2);}.cls-7{fill:none;}.cls-11{fill:url(#Orchid-13);}.cls-12{fill:url(#Orchid-12);}.cls-13{fill:url(#Orchid-11);}.cls-14{fill:url(#Orchid-10);}.cls-15{fill:url(#Orchid-14);}.cls-16{fill:url(#Orchid-15);}.cls-17{fill:url(#radial-gradient);}.cls-18{fill:url(#Orchid-3);}.cls-19{fill:url(#Orchid-5);}.cls-20{fill:url(#Orchid-2);}.cls-21{fill:url(#Orchid-4);}.cls-22{fill:url(#Orchid-7);}.cls-23{fill:url(#Orchid-9);}.cls-24{fill:url(#Orchid-8);}.cls-25{fill:url(#Orchid-6);}.cls-26{fill:url(#Orchid);}.cls-27{fill:url(#Summer);}</style><linearGradient id="linear-gradient" x1="1240.22" y1="143.39" x2="1401.6" y2="143.39" gradientUnits="userSpaceOnUse"><stop offset="0" stop-color="#fff"/><stop offset="1" stop-color="#000"/></linearGradient><linearGradient id="linear-gradient-2" x1="1305.02" y1="173.52" x2="1326.07" y2="173.52" xlink:href="#linear-gradient"/><linearGradient id="linear-gradient-3" x1="1216.29" y1="286.71" x2="1317.63" y2="286.71" xlink:href="#linear-gradient"/><linearGradient id="linear-gradient-4" x1="1301.05" y1="174.25" x2="1322.25" y2="174.25" xlink:href="#linear-gradient"/><linearGradient id="Orchid" x1="1002.62" y1="140.35" x2="1299.66" y2="140.35" gradientUnits="userSpaceOnUse"><stop offset="0" stop-color="#ff7bac"/><stop offset=".22" stop-color="#ff7bac" stop-opacity=".76"/><stop offset=".6" stop-color="#ff7bac" stop-opacity=".36"/><stop offset=".87" stop-color="#ff7bac" stop-opacity=".1"/><stop offset="1" stop-color="#ff7bac" stop-opacity="0"/></linearGradient><linearGradient id="Orchid-2" x1="1017.39" y1="201.46" x2="1108.86" y2="201.46" xlink:href="#Orchid"/><linearGradient id="Orchid-3" x1="1108.53" y1="344.45" x2="1207.4" y2="344.45" xlink:href="#Orchid"/><linearGradient id="Orchid-4" x1="1228.15" y1="431.62" x2="1390.29" y2="431.62" xlink:href="#Orchid"/><linearGradient id="Orchid-5" x1="1328.27" y1="324.65" x2="1556.09" y2="324.65" xlink:href="#Orchid"/><linearGradient id="Orchid-6" x1="1224.2" y1="298.48" x2="1326.3" y2="298.48" xlink:href="#Orchid"/><linearGradient id="Orchid-7" x1="1194.77" y1="288.61" x2="1283.35" y2="288.61" xlink:href="#Orchid"/><linearGradient id="Orchid-8" x1="1067.49" y1="177.57" x2="1135.08" y2="177.57" xlink:href="#Orchid"/><linearGradient id="Orchid-9" x1="1128.18" y1="261.95" x2="1198.2" y2="261.95" xlink:href="#Orchid"/><linearGradient id="Orchid-10" x1="1279.16" y1="393.17" x2="1368.62" y2="393.17" xlink:href="#Orchid"/><linearGradient id="Orchid-11" x1="1412.64" y1="360.1" x2="1482.08" y2="360.1" xlink:href="#Orchid"/><linearGradient id="Orchid-12" x1="1009.38" y1="263.03" x2="1236.43" y2="263.03" xlink:href="#Orchid"/><linearGradient id="Orchid-13" x1="1057.17" y1="272.95" x2="1094.07" y2="272.95" xlink:href="#Orchid"/><linearGradient id="Orchid-14" x1="1012.79" y1="209.14" x2="1061.28" y2="209.14" xlink:href="#Orchid"/><linearGradient id="Orchid-15" x1="869.67" y1="688.5" x2="1075.43" y2="688.5" xlink:href="#Orchid"/><radialGradient id="Summer" cx="737.29" cy="577.45" fx="737.29" fy="577.45" r="94.64" gradientUnits="userSpaceOnUse"><stop offset="0" stop-color="#fff"/><stop offset=".09" stop-color="#ffecd8"/><stop offset=".21" stop-color="#ffd4a7"/><stop offset=".33" stop-color="#ffc07d"/><stop offset=".46" stop-color="#ffb05a"/><stop offset=".59" stop-color="#ffa340"/><stop offset=".72" stop-color="#ff9a2d"/><stop offset=".86" stop-color="#ff9421"/><stop offset="1" stop-color="#ff931e"/></radialGradient><radialGradient id="Summer-2" cx="547.39" cy="547.32" fx="547.39" fy="547.32" r="69.59" xlink:href="#Summer"/><radialGradient id="radial-gradient" cx="223.19" cy="512.66" fx="223.19" fy="512.66" r="137.01" gradientUnits="userSpaceOnUse"><stop offset="0" stop-color="#fff"/><stop offset=".03" stop-color="#fff6ed"/><stop offset=".12" stop-color="#ffdfbd"/><stop offset=".22" stop-color="#ffcb92"/><stop offset=".33" stop-color="#ffb96e"/><stop offset=".44" stop-color="#ffab51"/><stop offset=".55" stop-color="#ffa03a"/><stop offset=".67" stop-color="#ff982a"/><stop offset=".81" stop-color="#ff9420"/><stop offset="1" stop-color="#ff931e"/></radialGradient><radialGradient id="radial-gradient-2" cx="1268.47" cy="270.71" fx="1268.47" fy="270.71" r="240.54" xlink:href="#radial-gradient"/><radialGradient id="radial-gradient-3" cx="964.58" cy="674.24" fx="964.58" fy="674.24" r="159.62" xlink:href="#radial-gradient"/><radialGradient id="radial-gradient-4" cx="992.56" cy="140.45" fx="992.56" fy="140.45" r="20.86" xlink:href="#radial-gradient"/></defs><g id="Layer_7"><path class="cls-1" d="m1246.48,112.15c1.22-2.94,15.95,7.77,17.43,8.84,5.88,4.27,11.37,9.12,16.46,14.31s9.79,10.78,13.95,16.76c3.65,5.25,6.85,11.28,13,13.95,7.05,3.06,16.38.7,23.79.37,8.6-.39,17.22-.53,25.83-.43,11.26.14,37.05-1.5,38.16,15.09.51,7.66,12.52,7.72,12,0-.92-13.7-12.16-22.73-24.99-25.34-15.13-3.09-31.7-2.04-47.03-1.47-3.97.15-7.94.34-11.91.59-3.23.2-8.12,1.49-11.19.16-2.46-1.07-4.01-4.07-5.44-6.2-2-2.99-4.09-5.91-6.28-8.76-8.49-11.02-18.43-20.65-29.63-28.89-5.85-4.3-12.63-9.64-19.94-10.89s-13.08,2.21-15.78,8.74c-2.95,7.13,8.65,10.23,11.57,3.19h0Z"/><path class="cls-10" d="m1301.67,161.44c-1.89,7.49-1.43,16.01,2.69,22.74s12.44,9.61,18.65,4.11c11.86-10.5,4.3-30.4-10.73-32.25-7.66-.94-12.94,4.88-12.76,12.46s6.66,12.98,13.9,14.26,15.25-.18,14.71-9.13c-.39-6.43-6.33-13.84-13.35-12.2-8.18,1.9-8.41,12.47-4.27,18.06,5.16,6.95,15.55,6.75,20.01-.81l-11.18-3.03c0,1.08-.18,2.13-.51,3.15,1.72.57,2.05.24.96-.97-.1-1.42-1.66-3.49-2.26-4.82-1.7-3.77-3.09-7.6-4.04-11.63-1.77-7.51-13.34-4.33-11.57,3.19,1.12,4.77,2.92,9.28,4.91,13.75,1.76,3.96,3.47,8.6,7.36,10.98s8.32,1.9,11.78-.76c4.09-3.15,4.97-8.04,5.37-12.9.51-6.14-8.32-7.88-11.18-3.03-.32.54,1.34-.66.01-.12l-.37-.68c0-1.25-.79-1.21-2.36.13-2.26-.04-2.83.45-1.71,1.48l.34.67c4.97-3.39,1.91-2.64-.16-3.02-2.38-.43-2.89-1.21-4.41-2.58.34-.94.12-1.21-.66-.8-1.03.16-.92.24.33.24.79.51,1.87.59,2.71,1.15,1.69,1.13,2.74,2.85,2.92,4.88.07.83-.85,5.25-1.14,5.23-1.49-.08-2.56-4.87-2.78-5.91-.6-2.93-.4-5.78.33-8.67,1.89-7.49-9.68-10.69-11.57-3.19h0Z"/><path class="cls-8" d="m1301.16,174.59c-6.13,31.49-14.42,62.9-27.91,92.11-6.62,14.33-14.44,28.12-23.66,40.93-4.86,6.75-10.69,12.88-15.13,19.92s-6.21,14.7-8.72,22.33c-5.49,16.62-16.9,30.56-14.34,48.97.71,5.11,8.8,5.78,10.97,1.43,14.1-28.27,28.81-55.6,47.89-80.87,8.56-11.33,17.27-22.77,23.24-35.74,6.45-14.03,8.66-29.35,12.48-44.2,4.64-18.04,10.34-35.79,16.98-53.2l-11.57-3.19c-17.69,54.2-33.37,114.09-75.91,154.8-5.59,5.35,2.9,13.83,8.49,8.49,44.09-42.21,60.64-103.89,78.99-160.1,2.43-7.45-8.87-10.28-11.57-3.19-5.74,15.05-10.78,30.34-15.04,45.87-4.04,14.75-6.05,30.44-11.56,44.72-5.13,13.3-13.85,25-22.35,36.3-8.92,11.86-17.58,23.76-25.16,36.53-9.19,15.48-17.24,31.6-25.27,47.7l10.97,1.43c-2.02-14.54,9.61-28.61,14.06-41.77,2.54-7.51,4.23-15.07,8.75-21.74s10-12.61,14.66-19.15c18.05-25.3,30.62-54.21,39.71-83.82,5.18-16.87,9.21-34.07,12.58-51.39,1.47-7.54-10.09-10.77-11.57-3.19h0Z"/><path class="cls-9" d="m1318.12,171.31l-7.33-4.3-2.2-1.29c-1.23-1.05-1.97-.3-2.22,2.25.04.12,1.51,1.03,1.73,1.25,1.62,1.62,3.09,4.41,3.61,6.63.06.24-.22,3.87-.26,3.79l5.57,1.9c-.09-.57-.15-1.15-.17-1.73.19-1.23-.24-2.4.17-3.66.55-1.7,1.66-1.22-.54-2.32-2.37-1.18-1.21.22-.95,1.95.18,1.22,0,2.46.11,3.64.04.37-.06.69-.31.94-.4.4-.18.48.67.22-.6-.8-.84-1.83-1.14-2.76-.44-1.32-.88-2.76-1.07-4.14-.18-1.3.48-2.82-.35-3.09l-3.59-2.76c.39.57.55,3.05.57,4.04.07.87.02,1.73-.16,2.59-1.25,2.08.1,2.48,4.05,1.2l1.76,4.24v-.93c-.11-7.72-12.11-7.74-12.01,0,.05,4.23,3.09,7.97,7.56,8.03,4.94.08,8.66-4.38,10.01-8.71,2.16-6.93,1.12-20.53-8.78-19.74-21.04,1.68-9.12,43.88,8.87,32.03,7.14-4.7,7.94-17.11,3.39-23.95-5.6-8.41-16.56-2.47-19.25,5.13-2.45,6.92-1.32,21.25,9.26,19.13s9.68-16.32,5.99-23.53c-4.01-7.84-14.99-16.72-22.88-7.76-3.09,3.5-3.5,8.6-.72,12.38,3.26,4.42,9.93,6.99,14.57,9.71,6.67,3.92,12.72-6.45,6.06-10.36h0Z"/><path class="cls-26" d="m1297.96,178.66c-13.57,2.61-26.16-5.73-35.66-14.47s-18.48-18.88-29.04-27.02c-20.11-15.52-43.64-26.1-67.99-33.01-27.82-7.9-56.81-10.97-85.58-12.81-14.51-.93-30.03-3.05-44.52-1.42-12,1.35-21.88,7.19-28.81,17.08-17.69,25.24-5.99,55.98,5.03,81.22,3.08,7.06,13.43.96,10.36-6.06-9.19-21.05-20.35-48.04-5.03-69.11,7.37-10.14,18.37-11.85,30.23-11.43,13.83.49,27.67,1.29,41.47,2.31,50.48,3.74,104.56,13.54,143.94,47.89,20.01,17.45,38.47,44.22,68.8,38.39,7.58-1.46,4.37-13.02-3.19-11.57h0Z"/><path class="cls-20" d="m1013.32,115.2c-8.75,37.94,25.26,62.58,44.03,90.24,18.23,26.88,15.28,70.09,48.27,85.91,6.93,3.32,13.02-7.02,6.06-10.36-13.72-6.58-20.58-20.58-25.09-34.41-5.13-15.72-8.75-31.78-17.94-45.8-16.01-24.42-51.43-49.11-43.75-82.39,1.73-7.52-9.83-10.72-11.57-3.19h0Z"/><path class="cls-18" d="m1103.75,289.68c-3.36,29.66,6.28,59.92,26.27,82.09,18.9,20.96,50.01,37.85,78.86,31.98,7.56-1.54,4.36-13.11-3.19-11.57-25.02,5.1-52.41-11.95-68.23-30.07-17.3-19.81-24.66-46.48-21.72-72.43.87-7.66-11.14-7.6-12,0h0Z"/><path class="cls-21" d="m1222.84,392.37c-2.34,31.14,22.01,54.57,47.15,68.42,13.39,7.38,28.06,14.81,43.57,15.75s30.9-5.51,44.56-11.15c14.47-5.97,27.52-13.98,36.94-26.72,4.6-6.21-5.81-12.2-10.36-6.06-9.12,12.32-23.64,19.2-37.7,24.26-7.5,2.7-15.18,5.47-23.01,6.99-9.38,1.83-18.48-.09-27.26-3.48-28.33-10.91-64.52-33.09-61.89-68.01.58-7.7-11.42-7.67-12,0h0Z"/><path class="cls-19" d="m1391.78,435.78c18.47,3.17,37.23,6.22,55.93,3.19,8.99-1.46,17.23-5.71,26.17-7.17s16.11,3.49,22.86,8.89c12.42,9.93,28.39,19.67,43.17,8.1,12.42-9.72,25.47-24.76,20.43-41.62-2.42-8.07-7.06-15.76-10.82-23.27-3.87-7.74-7.85-15.43-12.07-22.99-8.35-14.93-17.76-29.35-29.06-42.24-23.67-27.01-57.27-41.13-83.1-65.53-27.83-26.3-55.29-63.3-98.53-57.22-7.62,1.07-4.38,12.63,3.19,11.57,33.97-4.77,59.27,26.56,80.47,47.89,11.58,11.66,24.32,21.57,37.94,30.72,13.47,9.05,27.38,17.64,39.4,28.63,23.13,21.13,38.33,49.02,52.15,76.73,3.38,6.79,9.07,14.9,9.65,22.6.56,7.42-5.11,13.76-9.94,18.69-5.23,5.33-10.36,11.03-18.48,8.94-7.4-1.9-13.2-7.43-19.07-11.98-6.51-5.05-13.46-9.37-21.87-10.1-9.39-.82-18.01,3.27-26.81,5.81-19.09,5.5-39.26,2.08-58.42-1.21-7.55-1.3-10.8,10.27-3.19,11.57h0Z"/><path class="cls-25" d="m1319.35,199.99c1.88,18.39-3.73,36-11.41,52.51s-16.95,32.92-26.46,48.75c-19.16,31.91-40.63,62.35-62.07,92.75-4.46,6.32,5.94,12.33,10.36,6.06,22.15-31.41,44.33-62.87,63.97-95.94,9.71-16.35,19.19-33.09,26.8-50.54s12.7-34.95,10.79-53.58c-.78-7.61-12.79-7.69-12,0h0Z"/><path class="cls-22" d="m1199.4,394c37.5-45.89,64.99-99.62,79.87-157.02,4.25-16.39,7.36-33,9.58-49.78.43-3.24-3.07-5.97-6-6-3.59-.04-5.58,2.8-6,6-7.48,56.34-27.46,110.92-57.7,159.01-8.6,13.67-18.02,26.8-28.24,39.31-4.85,5.93,3.59,14.47,8.49,8.49h0Z"/><path class="cls-24" d="m1138.64,159.16c-7.31-16.65-31.51-21.31-47.62-19.04-18.67,2.63-32.53,18.38-28.11,37.56,4.39,19.09,22.29,29.16,39.79,34.04,7.86,2.19,17.73,5.5,25.85,2.83,10.11-3.32,10.83-13.96,11.65-23.04.98-10.83.15-22.52-6.55-31.53-6.18-8.3-15.39-12.67-25.68-11.12-7.61,1.15-4.38,12.71,3.19,11.57,8.09-1.22,14.38,6.98,16.25,13.85,2.01,7.42,1.96,18.26-.31,25.69s-15.39,1.76-20.41.39c-8.02-2.18-16.22-5.08-22.66-10.52-11.64-9.83-14.75-28.72,1.36-35.9,8.15-3.63,17.93-2.69,26.33-.51,6.96,1.8,13.52,4.89,16.54,11.77,3.1,7.05,13.44.95,10.36-6.06h0Z"/><path class="cls-23" d="m1198.54,256.19c5.94-37.89-56.97-42.36-71.6-14.15-7.58,14.62-4.41,32.34,6.15,44.61s28.97,16.61,44.18,10.95c17.29-6.43,28.33-24.54,26.09-42.89-.92-7.57-12.93-7.66-12,0,1.72,14.14-6.03,28.34-20.22,32.28s-29-3.26-34.44-16.99c-5.63-14.22.94-29.65,16.17-33.26,7.01-1.66,15.09-1.4,21.92.9,6.35,2.14,13.36,7.81,12.17,15.36s10.38,10.81,11.57,3.19h0Z"/><path class="cls-14" d="m1353.6,364.51c-7.42-4.62-17.24-4.29-25.69-4.57-9.13-.31-18.62.18-27.31,3.21-14.07,4.91-25.92,15.99-26.88,31.53-.43,7.02,1.78,14.36,6.46,19.66,5.58,6.32,14.15,8.86,22.16,10.36,16.89,3.18,36.88,2.6,52.25-5.96,17.48-9.74,19.67-28.99,19.52-47.12-.06-7.72-12.06-7.74-12,0,.13,15.83-.97,32.32-17.91,38.79-7.72,2.95-16.18,3.99-24.4,3.99s-18.8-.81-26.51-4.91c-6.14-3.26-8.51-9.85-7.35-16.56s5.75-11.72,11.29-15.07c7.23-4.38,15.62-5.78,23.96-5.98,4.5-.11,8.99.12,13.48.4s9.03.18,12.89,2.59c6.57,4.09,12.61-6.28,6.06-10.36h0Z"/><path class="cls-13" d="m1486.16,351.18c-6.14-13.18-19.93-20.65-33.58-23.83-13.76-3.2-30.46-2.63-39.73,9.61s-6.62,28.55,2.49,39.59c10.22,12.38,26.57,16.8,41.98,17.6,8.41.44,19.26,1.8,24.36-6.45s6.33-18.66,5.74-27.84c-.5-7.67-12.5-7.72-12,0,.27,4.22.16,8.35-.76,12.49-.57,2.57-1.54,8.31-3.95,9.78-1.09.66-4.09.16-5.26.17-2.11.02-4.21,0-6.31-.08-3.96-.14-7.9-.47-11.79-1.23-12.41-2.44-26.71-10.14-28.11-24.17-1.52-15.26,12.34-20.57,25.25-18.85,12.45,1.66,25.78,7.34,31.33,19.26,3.26,6.99,13.6.91,10.36-6.06h0Z"/><path class="cls-12" d="m1015.7,113.1c-15.82,21.29-15.25,52.24-1.24,74.3,3.55,5.59,7.94,10.67,13.1,14.82,6.08,4.88,13.08,7.95,19.78,11.83,13.79,7.99,17.64,21.9,21.1,36.5,1.73,7.28,3.37,14.64,6.14,21.62,2.79,7.03,6.66,13.27,11.02,19.42s9.32,12.42,12.19,19.54c3.23,8.03,1.83,16.11,1.48,24.49s1.47,16.81,6.85,23.85c4.89,6.41,11.35,11.4,17.5,16.53,12.98,10.81,26.43,21.46,41.6,29.05,8.23,4.12,16.96,7.44,26.02,9.16,8.55,1.62,19.03,3.07,25.65-3.98,5.68-6.05,4.92-14.48,7.04-21.94,2.34-8.27,7.92-15.05,15.3-19.36,6.66-3.89.63-14.27-6.06-10.36-12.39,7.24-20.1,19.35-22.15,33.44-.4,2.77-.55,6.46-2.09,8.89-2.07,3.27-6.15,2.82-9.57,2.48-7.54-.75-15.09-2.98-22.07-5.89-14.92-6.23-28.21-16.07-40.66-26.23-5.89-4.8-12-9.56-17.38-14.94-6.29-6.29-8.4-12.74-7.93-21.57.42-7.89,1.37-15.61-.81-23.35-1.94-6.92-5.66-13.18-9.71-19.05s-8.4-11.4-11.85-17.59-5.36-12.82-7.06-19.58c-3.24-12.9-5.43-26.91-13.33-37.98-4.2-5.9-9.59-10.35-15.88-13.91s-13.07-6.37-18.58-11.16c-20.57-17.89-24.26-51.13-8.03-72.96,4.61-6.2-5.8-12.19-10.36-6.06h0Z"/><path class="cls-11" d="m1098.98,309.5c3.76-30.74-12.07-62.07-38.53-77.92-6.64-3.98-12.68,6.39-6.06,10.36,23.16,13.87,35.85,40.89,32.59,67.55-.94,7.65,11.07,7.58,12,0h0Z"/><path class="cls-15" d="m1065.17,228.79c-15.93-15.93-31.85-31.85-47.78-47.78-5.47-5.47-13.96,3.02-8.49,8.49,15.93,15.93,31.85,31.85,47.78,47.78,5.47,5.47,13.96-3.02,8.49-8.49h0Z"/><path class="cls-16" d="m984.51,504.46c-27.73,27.05-58.46,50.83-91.72,70.71-7.19,4.3-15.88,7.94-21.39,14.46-6.32,7.48-5.33,17.34-5.55,26.54-.5,21.24-1.01,42.48-1.51,63.73-.39,16.36-.61,33.46,6.24,48.7,6.73,14.97,20.24,22.71,35.29,27.47,13.91,4.39,30.21,7.05,39.23,19.79,8.52,12.02,9.53,28.02,11.67,42.13,2.68,17.66,7.41,34.06,19.84,47.45s29.83,22.39,46.72,29.75c2.3,1,5.44,1.23,7.27-.94,22.88-27.1,31.66-62.82,38.6-96.82,7.74-37.91,11.68-76.64,11.73-115.33.04-38.39-3.76-76.81-11.26-114.45-3.63-18.19-7.75-36.61-13.7-54.21-4.33-12.82-11.54-27.05-25.53-31.19-16.37-4.85-33.64,6.5-45.43,16.82s-20.82,23.42-27.32,37.46c-15.52,33.53-16.21,70.79-14.1,107.04.58,9.89,1.35,19.77,1.99,29.66.58,8.92,1.22,18.41-1.91,26.97-2.38,6.49-7.94,12.76-15.1,13.81-7.87,1.16-13.18-5.83-16.29-12.1-7.17-14.46-5.67-32.6,1.97-46.55s20.88-24.16,35.62-29.47c5.88-2.12,17.43-6.99,22.01-.62,4.21,5.87,3.14,15.57,3.08,22.29-.2,19.27-2.19,38.93,2.32,57.9,3.42,14.41,11.14,28.5,22.95,37.67,11.07,8.6,30.57,15.22,40.15,1.15,4.44-6.52,5.63-15.14,6.75-22.76,1.35-9.26,1.92-18.6,1.5-27.95-.73-16.54-3.12-36.61-12.69-50.63-3.93-5.75-9.35-11.13-16.41-12.57-7.59-1.55-14.65,2.11-19.28,8-5.07,6.44-8.36,14.44-11.4,21.99-3.24,8.04-5.77,16.36-7.58,24.84-3.66,17.22-4.52,35.03-2.31,52.5,1.05,8.31,2.67,16.52,5.05,24.55,2.62,8.84,7.33,17.66,8.04,26.96.46,6.04-2.81,16.92-10.84,15.84-6.86-.91-10.99-12.23-13.25-17.63-6.5-15.51-8.26-32.54-7.26-49.21,2.13-35.56,16.84-68.42,31.36-100.38,7.49-16.49,15.01-33.04,20.97-50.16,5.66-16.24,11.22-34.48,11.13-51.85-.05-8-2.63-16.12-9.67-20.62-5.78-3.69-13.49-4.05-19.89-1.92-15.91,5.29-21.97,23.32-24.4,38.33-2.66,16.45-1.22,33.92,9.32,47.48,8.19,10.52,20.15,16.85,31.96,22.46s24.28,10.56,33.28,20.05c11.21,11.82,11.62,28.69,8.79,43.86-3.4,18.24-9.86,36.05-15.55,53.67-6.16,19.08-12.62,38.06-19.39,56.93-6.66,18.57-13.62,37.02-20.86,55.37l8.81-3.59c-10.61-7.39-16.75-20.17-16.32-33.04s8.55-24.83,19.67-31.11c4.31-2.43,12.75-6.44,17.44-3.11,2.46,1.74,3.57,5.37,4.5,8.09,1.39,4.08,2.55,8.26,3.56,12.45,3.94,16.34,4.95,33.13,3.45,49.86-.69,7.69,11.32,7.64,12,0,1.51-16.84.42-33.83-3.25-50.34-2.76-12.4-6.35-31.15-21.72-32.95-13.06-1.53-27.2,7.04-35.4,16.63s-13.33,23-12.05,36.23c1.49,15.3,9.48,28.88,22.08,37.66,3.49,2.43,7.52-.29,8.81-3.59,14.47-36.7,27.82-73.84,39.95-111.38,5.55-17.17,11.73-34.48,15.38-52.19,3.22-15.64,4.01-32.4-3.51-46.99-12.81-24.85-42.85-28.75-63.6-44.07-12.6-9.3-17.38-23.25-16.47-38.6.73-12.39,4.65-35.9,20.41-37.38,18.26-1.72,8.53,30.49,6.26,39.61-4.33,17.36-10.9,34.06-18.08,50.42-13.93,31.75-30.05,62.86-37.22,97.05-6.47,30.81-7.05,68.69,12.18,95.5,4.22,5.88,10.21,10.72,17.81,10.53,7.55-.2,14.09-5.22,17.88-11.5,9.31-15.45-.87-32.9-5.2-48.16-9.32-32.82-6.56-69.26,8.07-100.15,2.37-5,6.4-16.16,13.55-15.28,6.34.77,10.86,9.31,12.88,14.52,6.56,16.91,8.14,36.39,6.74,54.33-.62,7.91-1.37,17.16-4.68,24.5-3.41,7.55-11.74,5.27-17.88,2.24-12.83-6.34-20.8-19.87-24.41-33.27-4.96-18.4-2.61-37.97-2.42-56.77.14-13.37-.05-33.23-16.62-36.82-7.95-1.72-16.94,1.09-24.37,3.85s-14.05,6.13-20.26,10.63c-12.76,9.24-22.69,21.89-27.25,37.1-4.56,15.22-3.57,32.19,3.82,46.36s21.64,21.93,36.52,14.4,19.35-24.6,19.21-40.15c-.17-19.21-2.72-38.38-3.22-57.6-.88-34.17,2.83-69.44,22.09-98.64,8.38-12.7,19.84-23.88,33.7-30.43,7.26-3.43,15.62-4.8,22.24.64,5.03,4.13,8.16,10.53,10.42,16.5,6.29,16.64,10.09,34.61,13.73,51.98,3.9,18.61,6.87,37.41,8.85,56.32,3.9,37.35,4.13,75.08.69,112.47s-9.6,73.77-21.4,108.55c-5.25,15.48-12.39,30.49-22.99,43.05l7.27-.94c-14.41-6.28-29.1-13.35-40.66-24.22-11.33-10.65-16.55-23.74-19.25-38.79-2.55-14.27-3.35-29.08-9.02-42.6-5.82-13.88-16.46-22.78-30.33-28.12-13.13-5.06-29.04-6.46-40.06-15.91-11.91-10.22-13.67-27.06-13.88-41.78-.28-19.51.76-39.1,1.22-58.6.24-10.01.05-20.13.72-30.11.6-8.97,8.39-11.95,15.34-15.98,36.14-21,69.6-46.57,99.52-75.75,5.54-5.4-2.95-13.88-8.49-8.49h0Z"/><path class="cls-27" d="m764.8,460.74c6.89,19.75-11.81,35.52-24.69,47.31-14.13,12.93-24.36,27.78-31.77,45.42s-12.72,37.83-18.27,56.94c-6.22,21.41-12.46,42.81-18.65,64.23-2.4,8.3-3.36,17.2,4.73,22.68,6.68,4.52,15.46,3.98,23.13,3.95,10.47-.05,21.26.66,31.69-.35,8.98-.87,15.9-5.4,20.56-13.09,8.37-13.79,8.9-31.43,11.5-46.94,1.29-7.69,2.83-15.66,6.23-22.74,3.82-7.97,9.6-13,16.67-18.07,8.02-5.75,14.6-12.28,17.55-21.93,2.68-8.76,1.87-18.32-.18-27.11-4.87-20.92-16.83-40.32-26.29-59.39-1.34-2.69-5.72-3.98-8.21-2.15-21.31,15.68-16.51,43.57-22.91,66.23-6.97,24.68-24.25,44.72-34.64,67.87-5.73,12.77-9.4,26.32-8.14,40.42.4,4.53,6.68,8.74,10.24,4.24,34.92-44.08,60.14-95.22,73.4-149.9l-11.79-1.6c1.31,13.02,3.97,26.01,3.77,39.14-.18,12.19-4.09,22.76-11.03,32.67-6.26,8.94-13.96,16.79-20.63,25.41-6.61,8.55-11.6,17.78-15.85,27.69-4.07,9.5-7.6,19.26-12.4,28.43-2.15,4.11-4.53,8.18-7.39,11.84-1.51,1.93-3.17,3.82-4.96,5.5,0,0-3.68,3.05-1.45,1.96,1.64-.8.14,1.14.55-.83.43-2.09.23-4.66.58-6.84.51-3.24,1.02-6.48,1.53-9.72,1.13-7.13,2.25-14.25,3.38-21.38,2.15-13.6,4.3-27.21,6.44-40.81,2.31-14.66,4.56-29.32,6.95-43.97,2.02-12.38,4.36-25.76,12.29-35.91,4.7-6.02-3.74-14.57-8.49-8.49-8.01,10.26-11.92,22.19-14.28,34.86-2.76,14.75-4.78,29.67-7.12,44.49s-4.71,29.8-7.06,44.7c-1.23,7.77-2.46,15.55-3.68,23.32-1.01,6.37-2.99,13.28-2.54,19.75.31,4.4,1.91,9.13,5.95,11.44,6.18,3.54,12.22-.77,16.49-5.14,8.01-8.22,13.44-18.44,17.98-28.88,4.83-11.12,8.84-22.67,14.83-33.25s14.87-19.85,22.69-29.53c8.79-10.87,16.15-22.53,18.31-36.58,2.56-16.69-1.2-33.3-2.86-49.88-.63-6.3-10.07-8.65-11.79-1.6-12.75,52.57-36.71,102.19-70.32,144.61l10.24,4.24c-2.77-31.02,19.92-56.45,33.15-82.46,7.1-13.96,10.98-27.95,12.86-43.44,1.56-12.89,2.25-29.8,13.74-38.26l-8.21-2.15c8.08,16.3,17.71,32.55,23.24,49.94,4.71,14.79,5.46,30.33-7.97,40.59-6.5,4.97-13.12,9.16-18.1,15.79-4.41,5.88-7.35,12.74-9.36,19.78-4.13,14.41-4.59,29.56-8.15,44.1-1.6,6.54-3.72,14.82-9.58,18.91-3.48,2.43-7.76,2.31-11.83,2.35-5.26.06-10.52.05-15.78.07-4.93.02-9.86.06-14.79.07-3.28,0-6.81.09-9.91-1.14-3.36-1.33-3.25-3.46-2.44-6.82,1.21-5.04,2.89-10.01,4.34-14.99,5.85-20.13,11.69-40.27,17.54-60.4,4.97-17.12,9.47-34.62,16.78-50.93,3.93-8.76,8.63-17.36,14.68-24.85,6.4-7.93,14.33-14.36,21.69-21.36,13.64-12.98,26.2-31.65,19.35-51.25-2.53-7.24-14.13-4.13-11.57,3.19h0Z"/><path class="cls-2" d="m481.11,575.05c4.7,15.83,12.67,30.44,23.63,42.82,5.47,6.18,11.44,10.99,19.89,11.92,7.88.87,16.35-.35,24.15-1.6,14.29-2.3,27.61-8.3,36.21-20.32,7.54-10.53,10.01-23.79,12.2-36.28,2.44-13.91,4.35-29.48,14.27-40.34l-10.24-4.24c-1.22,13.9-4.6,27.42-9.75,40.38l11.57,3.19c2.73-10.99,5.13-22.06,7.13-33.2,1.87-10.45,4.54-21.68,3.56-32.34-1.96-21.38-20.92-30.26-37.57-39.66-3.68-2.08-7.37.01-8.81,3.59-4.97,12.34,2.12,24.06,2.49,36.39.2,6.87-3.92,9.03-8.45,13.37-5.53,5.29-6.13,11.81-5.15,19.03.33,2.41,1.38,5.96.11,8.23-1.47,2.62-5.52,2.32-8.06,1.95-8.16-1.21-14.97-3.93-23.35-1.96-7.66,1.8-14.49,6.28-20.68,10.97-5.29,4.01-11.61,8.33-11.47,15.75.17,8.94,9.3,12.99,16.99,13.26,4.39.15,8.78-.52,12.86,1.55,3.53,1.79,5.57,5.47,3.2,9-3.64,5.44,3.26,10.52,8.21,8.21,8.31-3.87,12.26-12.28,15.34-20.41,2.32-6.13,4.43-16.42,11.37-19.11l-7.6-5.79c.28,10.38-.09,21.01.89,31.35.72,7.64,5.35,14.99,13.9,13.33l-6.78-8.81c-9.46,12.29-28.99,9.81-35.52-3.9-2.61-5.48-3.65-14.16.71-19.18,5.7-6.56,16.11.7,21.59,3.91,7.17,4.2,14.96,7.79,23.47,6.08,6.91-1.39,13.17-5.95,16.75-12,8.28-13.97-.6-32.03-15.86-35.88l4.4,5.79c.24-3.66,3.51-6.31,6.06-8.56,3.3-2.91,6.86-5.53,9.71-8.91,3.03-3.6,5.1-7.67,5.52-12.41.54-6.1-2.62-12.31-1.33-18.3,1.62-7.53-9.94-10.75-11.57-3.19-1.4,6.49.69,12.03.98,18.44.22,4.9-2.6,7.9-6.06,11-7.06,6.33-14.64,11.66-15.3,21.93-.17,2.56,1.98,5.17,4.4,5.79,12.92,3.26,13.61,22.03-.22,24.59-6.67,1.23-12.94-3.63-18.38-6.79-5.88-3.42-12.59-6.33-19.55-5.93-14.36.83-20.83,15.42-19.2,28.24s10.03,23.66,22.08,27.72c13.9,4.69,28.97-1.09,37.66-12.38,3.52-4.57-2.27-9.69-6.78-8.81,3.63-.7,1.7,1.69,1.56-.89-.04-.67-.28-1.38-.35-2.05-.38-3.39-.19-6.96-.28-10.37-.18-6.6-.35-13.2-.53-19.79-.1-3.55-3.81-7.25-7.6-5.79-9.27,3.6-13.64,11.36-17.07,20.24-2.82,7.3-4.75,16.87-12.5,20.49l8.21,8.21c3.99-5.96,3.4-13.86-.77-19.58-4.47-6.14-12.02-8.72-19.36-9.04-1.9-.08-10.33,1.21-11.15-1.45-.45-1.47,4.83-4.77,6.05-5.68,6.07-4.56,13.15-9.57,21.04-9.75s15.19,4.19,23.35,2.66c6.79-1.28,12.13-6.17,13.19-13.11.86-5.67-3.3-14.36.82-18.92,4.42-4.9,9.53-7.56,11.54-14.34,4.09-13.79-7.35-27.88-1.99-41.18l-8.81,3.59c7.28,4.11,15.15,7.85,21.76,13.03,7.08,5.55,10.25,12.43,10.03,21.42s-2.27,18.69-3.98,27.81c-1.85,9.86-4.01,19.65-6.43,29.38-1.91,7.67,8.78,10.22,11.57,3.19,5.56-13.99,8.86-28.58,10.18-43.57.46-5.18-6.88-7.92-10.24-4.24-16.47,18.04-14.84,43.08-21.66,65.09-3.61,11.64-10.62,20.99-22.32,25.39-6.24,2.35-12.92,3.5-19.54,4.13-7,.67-15.17,2.15-21.02-2.65-12.66-10.38-21.19-27.48-25.76-42.87-2.19-7.39-13.78-4.24-11.57,3.19h0Z"/><path class="cls-17" d="m47.22,482.57c13.22,15.64,19.96,35.7,19.41,56.1l11.79-1.6c-3.31-23.81-10.09-51.69-34.98-61.24-4.77-1.83-7.98,3.39-7.38,7.38,4.57,30.65,37.04,42.88,63.97,45.57,16.92,1.69,34.36,2.46,51.35,1.71,8.49-.37,17-1.33,25.3-3.2,3.72-.84,7.8-2.39,11.66-1.87,3.53.47,6.3,3.09,9.17,4.97,7.57,4.97,15.55,4.71,24.22,3.82,3.7-.38,18.84-1.15,16.71,6.45l11.57,3.19c2.83-13.47,13.27-23.36,25.94-28.06,14.78-5.47,30.68-3.27,44.85,3.03,32.19,14.31,53.47,44.44,80.97,65.33l6.06-10.36c-34.31-23.01-65.22-50.68-92.03-82.1l1.76,4.24c-.15,2.34-1.33.56.71.91,1.01.17,2.88-.39,3.9-.5,2.72-.3,5.51-.54,8.11-1.46,6.16-2.17,9.86-7.87,10.42-14.25,1.41-15.91-13.95-22.89-27.27-24.57l1.6,11.79c21.63-5.47,43.58-9.49,65.76-11.91,5.28-.58,8.96-8.29,3.03-11.18-22.28-10.86-45.1,2.02-65.83,10.39-9.49,3.83-20.54,8.24-30.96,6.13-11.77-2.38-21.58-17.86-34.58-12.09-2.97,1.32-5.28,3.56-6.92,6.35s-2.07,6.49-4.2,8.93c-3.85,4.41-12.41.86-16.9-.65-16.87-5.69-33.49-7.75-51.3-6.74s-36.02,3.97-54,6.06c-9.25,1.07-18.51,2-27.81,2.55-8.42.5-17.32-.2-25.57,1.84s-15.33,7.67-17.16,15.98,2.72,15.21,9.72,18.79c7.67,3.93,17.01,4.69,25.46,5.29,10.87.78,21.7.03,32.43-1.75,1.95-.32,3.75-2.34,4.19-4.19,1.66-6.94,4.89-12.84,9.93-17.9h-8.49c9.84,10.7,24.27,17.05,38.87,16.51,7.97-.29,16.42-4.09,24.33-2.11,6.59,1.65,11.92,6.93,17.82,10.05,15.39,8.17,32.13,2.03,47.79-2.05,18.03-4.7,36.07-9.39,54.1-14.09,7.47-1.94,4.3-13.52-3.19-11.57-16.75,4.36-33.49,8.72-50.24,13.08-14.42,3.75-31.15,11.23-45.06,2.74-5.44-3.32-10.47-7.25-16.59-9.3-7.29-2.44-14.75-.91-22.09.39-14.02,2.48-27.52-1.56-37.25-12.14-2.19-2.38-6.27-2.22-8.49,0-6.42,6.44-10.9,14.34-13.02,23.19l4.19-4.19c-8.39,1.39-16.89,1.88-25.38,1.54-7.29-.3-15.98-.57-22.75-3.64-6.03-2.73-5.67-8.56.17-11.67,6.48-3.45,15.32-2.26,22.43-2.6,32.88-1.55,65.54-9.64,98.49-9.1,7.95.13,15.84.92,23.56,2.87,6.49,1.64,12.63,4.49,19.19,5.86,5.87,1.23,12.29,1.51,17.62-1.69,2.31-1.38,4.27-3.45,5.69-5.72,1.65-2.63,2.1-5.98,3.86-8.51,3.21-4.61,11.04,2.84,14.17,4.97,4.2,2.87,8.76,5.22,13.78,6.28,9.92,2.08,20.05.07,29.49-3.17,11.33-3.89,22.01-9.42,33.32-13.35,9.95-3.46,21.15-6.07,31.11-1.21l3.03-11.18c-23.25,2.53-46.27,6.61-68.95,12.34-7.08,1.79-4.67,10.99,1.6,11.79s15.39,3.28,15.39,10.78c0,6.34-7.08,5.41-11.65,6.08-5.6.83-11.17,3.7-11.55,10.06-.24,3.96,2.74,6.44,5.15,9.2,3.09,3.55,6.23,7.05,9.43,10.5,24.35,26.26,51.84,49.53,81.57,69.47,6.55,4.39,12.04-5.82,6.06-10.36-24.26-18.42-43.05-43.3-69.33-59.18-22.99-13.9-51.63-19.78-75.96-5.67-11.91,6.91-21.24,18.09-24.11,31.73-1.58,7.51,9.47,10.69,11.57,3.19,4.12-14.68-12.49-22.79-24.7-21.98-8.47.56-15.51,2.42-22.96-2.67-6.68-4.57-12.71-6.58-20.89-5.24-8.84,1.45-17.25,3.73-26.25,4.33s-17.94.44-26.9.11c-16.71-.62-34.05-.69-50.07-6.03-14.89-4.96-28.2-16.2-30.61-32.34l-7.38,7.38c19.96,7.66,24.04,34.45,26.6,52.86.96,6.9,11.61,4.9,11.79-1.6.64-23.7-7.66-46.53-22.93-64.59-4.99-5.91-13.44,2.62-8.49,8.49h0Z"/><path class="cls-5" d="m1297.13,181.8c-30.31,8.99-54.45-20.45-72.15-40.28-9.29-10.4-19.16-20.68-31.31-27.76-13.53-7.88-28.95-10.5-44.37-11.55-15.91-1.08-32.04-.59-47.66-4.26s-29.36-9.67-44.27-13.72c-13.74-3.73-28.82-5.82-42.56-.96-11.26,3.98-20.68,11.66-26.76,21.95-13.99,23.65-11.07,54.41-7,80.35.77,4.91,6.96,5.18,10.03,2.65,7.18-5.93,15.16-12.73,24.63-14.38,6.24-1.09,14.42.65,17.93,6.43,2.27,3.74,1.61,8.45,1.21,12.6-.47,4.91-.9,9.69.1,14.57,1.31,6.42,4.94,12.05,9.22,16.9,8.83,10,22.16,16.76,28.38,28.92,4.32,8.44,2.58,18.5,3.01,27.62s1.97,17.4,4.64,25.7c10.95,34.07,37.11,60.84,62.4,84.99,12.11,11.57,25.33,23.34,43.33,20.56,15.34-2.37,27.28-14.39,35.32-26.93,10-15.61,13.05-33.4,17.73-51.01,4.34-16.35,10.28-33.89,25.44-43.22-2.42-3.14-4.85-6.28-7.27-9.42-25.85,24.71-41.13,61.71-36.73,97.6,4.21,34.38,26.68,62.7,58.74,75.57,15.24,6.12,32.32,7.9,48.4,4.3,18.71-4.19,33.35-17.57,51.52-22.92,10.86-3.2,21.95-1.73,32.81.64s22.68,5.36,34.01,8.06,22.85,5.45,34.28,8.17,22.5,6.09,33.92,7.65c18.17,2.49,33.66-7.07,40.97-23.72,7.78-17.72,3.92-36.66-4.72-53.33-9.1-17.55-22.33-33.38-35.06-48.4-12.77-15.05-26.46-29.31-40.97-42.69-28.59-26.36-60.32-49.41-94.29-68.34-17.06-9.51-34.93-18.85-53.32-25.54-8-2.91-16.73-1.36-20.84,6.71-3.54,6.93-2.66,15.02-2.28,22.49,2.24,43.45-32.59,77.19-50.81,113.5-8.33,16.6-14.45,34.98-12.93,53.77,1.28,15.83,6.96,31.8,18.22,43.32,5.54,5.67,12.23,9.73,19.67,12.37s10.43-9,3.19-11.57c-13.36-4.74-22.17-16.8-26.27-29.98-4.77-15.32-3.41-30.96,1.73-45.99,12.51-36.57,41.86-64.55,54.12-101.36,3-9,4.89-18.45,5.15-27.95.19-6.94-2-15.21.39-21.93,1.09-3.07,2.76-3.26,5.91-2.35,4.39,1.26,8.67,3.5,12.83,5.35,8.16,3.61,16.22,7.45,24.16,11.52,31.79,16.27,61.81,36.06,89.21,58.97,27.37,22.89,52.38,48.81,73.95,77.25,11.03,14.55,23.34,30.88,25.2,49.65,1.35,13.62-4.94,30.6-18.8,35.57-9.31,3.34-19.79-.48-28.95-2.66-10.48-2.5-20.95-4.99-31.43-7.49-20.61-4.91-41.37-11.11-62.32-14.36-9.47-1.47-19.05-1.76-28.38.7-8.85,2.33-17.04,6.71-25.02,11.1-14.41,7.93-28.15,14.37-44.97,13.63-29.38-1.28-57.56-21.2-69.17-48.11-13.02-30.18-5.84-65.93,11.97-92.54,4.43-6.63,9.63-12.63,15.39-18.14,4.9-4.68-1.43-13.02-7.27-9.42-29.37,18.09-28.89,54.31-39.75,83.25-5.12,13.64-14.69,29-28.72,34.83-17.13,7.11-30.42-7.51-41.67-18.34-25.11-24.18-51.97-51.87-59.15-87.27-3.48-17.15,1.78-35.77-9.29-50.81-8.17-11.09-21-17.69-29.05-28.77-5.82-8.02-3.85-15.75-3.54-25.05.32-9.46-3.68-17.88-11.97-22.72-18.95-11.07-38.11,2.01-52.64,14.01l10.03,2.65c-3.37-21.48-6.03-47.13,3.8-67.38,4.85-9.99,13.02-17.69,23.8-20.86,13.63-4.02,28.03-.31,41.17,3.79,13.93,4.34,27.57,9.94,41.96,12.65,15.17,2.86,30.62,2.6,45.95,3.65s29.08,3.75,41.59,11.95c11.57,7.57,20.72,18.32,29.8,28.59,19.7,22.27,47.07,48.29,79.63,38.63,7.39-2.19,4.24-13.78-3.19-11.57h0Z"/><path class="cls-3" d="m1000.76,483.97c-9.44,17.73-21.82,33.59-36.83,46.95s-31.24,21.95-48.4,30.85c-15.54,8.07-31.73,16.81-43.09,30.51-13.06,15.75-17.17,35.46-16.76,55.54.38,18.61,2.76,37.8,6.7,56,3.55,16.39,9.34,32.84,20.28,45.82,5.11,6.07,11.57,11.21,18.76,14.6,8.95,4.22,18.63,5.7,28.07,8.37,9.52,2.69,16.92,7.21,22.14,15.8s8.67,18.33,13.16,27.36c9.24,18.58,20.46,39.21,36.5,52.84,13.88,11.79,33.16,16.71,48.33,4.2,12.45-10.27,16.44-27.8,18.28-43.06,2.73-22.57,2.86-45.72,3.72-68.42,1.85-48.94,2.33-97.93,1.46-146.89-.74-41.62-1.75-86.36-23.76-123.14-7.49-12.51-24.27-28.55-40.3-21-8.85,4.17-10.54,13.66-11.27,22.45-1.02,12.2-2.07,24.39-3.21,36.57-2.02,21.64-3.48,43.56-7.31,64.97-3.01,16.81-7.68,34.28-18.09,48.15-4.77,6.36-10.76,11.46-17.72,15.27l8.81,3.59c-15.28-36.77-6.35-83.43,24.31-109.86,3.81-3.28,8.87-6.76,14.09-6.78,5.83-.03,9.24,5.25,11.67,9.85,5.18,9.79,6.71,21.7,4.47,32.52-4.8,23.24-25.94,36.93-43.53,50.44-24.39,18.75-48.79,37.49-73.18,56.24-2.51,1.93-4.04,5.18-2.15,8.21,8.04,12.89,17.11,26.42,30.41,34.41,12.92,7.76,28.92,8.23,41.66-.18,12.34-8.15,20.52-22.22,21.3-37.02.8-15.17-6.95-30.01-17.85-40.14s-27.48-19.02-42.68-17.1c-17,2.15-22.39,21.02-14.37,34.62s25.36,21.95,39.52,27.17c14.15,5.22,30.53,7.38,44.73,1.22,17.61-7.64,23.9-25.51,28.74-42.66,3.98-14.1,11.17-36.48,29.61-35.28l-5.79-7.6c-11.5,48.93-31.84,95.28-60.03,136.88l8.21-2.15c-10.22-7.17-16.52-19.23-17.74-31.56-.65-6.5.03-13.02,2.13-19.2,1.92-5.63,6.11-13.94,12.59-15.21,6.91-1.35,10.37,11.5,12.43,16.15,3.63,8.22,6.98,16.6,9.19,25.33,3.86,15.24,3.55,32.41-5.45,45.88-8.3,12.43-25.79,19.28-39.51,11.7-5.81-3.21-12.41,4.66-7.27,9.42,15.93,14.76,31.85,29.52,47.78,44.28,2.3,2.13,6.22,2.46,8.49,0,22.65-24.67,31.05-60.52,21.28-92.63-2.24-7.37-13.83-4.23-11.57,3.19,8.52,27.97,1.63,59.36-18.19,80.95h8.49c-15.93-14.76-31.85-29.52-47.78-44.28l-7.27,9.42c16.41,9.06,37.47,4.42,50.25-8.84,14.2-14.73,17.23-36.6,13.71-56.03-2.12-11.7-6.64-22.78-11.4-33.62-3.84-8.74-7.67-20.06-18.09-22.65s-19.01,5.04-24.08,12.81c-4.66,7.14-7.05,15.65-7.76,24.08-1.68,19.85,7.45,39.73,23.73,51.15,2.78,1.95,6.51.35,8.21-2.15,28.71-42.38,49.53-89.92,61.24-139.75.93-3.98-1.82-7.34-5.79-7.6-12.91-.84-23.33,7.34-30.28,17.52-7.6,11.14-9.84,24.4-13.99,36.97-4.07,12.36-11.09,23.19-24.46,26.31-12.16,2.84-25.58-.87-36.66-5.92-10.09-4.59-26.92-12.44-28.85-24.78-2.63-16.8,18.85-10.74,27.34-6.45,21.85,11.04,36.79,38.25,19.55,59.96-8.53,10.74-22.29,15.18-34.85,8.71-12.78-6.58-21.11-19.61-28.49-31.44l-2.15,8.21c25.17-19.34,50.34-38.69,75.51-58.03,20.95-16.1,43.71-32.36,47.48-60.55,2.72-20.38-7.55-60.8-36.07-51.56-11.6,3.76-20.67,13.63-27.86,23.05s-12.47,19.65-16.28,30.65c-8.55,24.71-8.32,52.65,1.74,76.86,1.49,3.59,5.08,5.63,8.81,3.59,29.68-16.26,38.94-51.42,43.18-82.58,2.94-21.59,4.73-43.37,6.7-65.06.51-5.6,1-11.2,1.48-16.8s.39-11.19,1.57-16.52c1.81-8.18,8.84-7.34,14.91-3.94,7.57,4.24,12.07,11.07,16.12,18.53,4.63,8.54,8.1,17.62,10.74,26.96,5.37,19.01,7.27,38.75,8.15,58.42,2.03,45.43,1.52,91.11.45,136.55-.54,23.16-1.39,46.31-2.54,69.44-.89,17.98-.43,37.03-6.25,54.3-4.69,13.92-16.29,25.59-31.93,19.22-17.72-7.22-29.02-28.07-37.94-43.79-5.17-9.11-9.63-18.52-13.89-28.07-3.6-8.07-7.63-16.32-14.14-22.49-13.72-12.99-33.17-11.06-48.96-19.55-28.49-15.3-32.84-54.92-35.91-83.59-2.05-19.06-3.82-40.28,5.08-57.99,7.65-15.23,21.77-25,36.28-33.08,15.28-8.51,31.3-15.61,45.63-25.74,15.47-10.94,29.01-24.18,40.39-39.33,5.45-7.25,10.27-14.92,14.53-22.92,3.63-6.81-6.73-12.88-10.36-6.06h0Z"/><path class="cls-4" d="m1005.74,168.01l2.76-54.63c.15-3.06-2.88-6.25-6-6-11.52.92-19.98,8.9-23.9,19.5-4.82,13.04-.17,27.26,4.24,39.7,2.57,7.23,14.16,4.11,11.57-3.19-3.25-9.14-7.32-19.47-5.4-29.34,1.3-6.66,6.13-14.09,13.48-14.67l-6-6-2.76,54.63c-.39,7.72,11.61,7.7,12,0h0Z"/></g><g id="Layer_2"><polygon class="cls-6" points=".5 456.88 1386 432.5 1400.16 444.69 1562.84 444.69 1562.84 466.43 962 462.5 291 472.5 .5 477.88 .5 456.88"/></g><g id="Layer_3"><path class="cls-7" d="m48,451.5c-9.79,9.52-12.99,12.37-5.5,25.65-25.19,43.75,50.73,38.01,25.49,102.35,14.95-15.31,3.73-54.55,34-46,8.65-4.65,23.34-1.2,32-5,3.27,1.89,6.43,2.02,9-1,13.53,6.39,32.7.6,47,3,7.3-3.91,21.62-1.59,29,1,0,0,23,0,23,0,7.57,14.56,1.76,24.25,3,37,6.87,1.72,5.64-33.32,7.01-36,4.35-.21,8.23-6.68,10-10,59.89-32.23,92.12,20.11,132,59,3.85.9,3.72-2.06,3.44-5.16-8.8-7.83-61.18-65.5-71.44-67.84,0,0,6-4,6-4,19.21,3,14.07-38.28,10-48,15.17-1.09,41.06-11.95,55.44-16.28,2.71-5.86-9.76-2.34-11.95-3.26,0,0-6.49,5.54-6.49,5.54-4.25-1.31-24.47,4.07-29,5,0,0-37,6-37,6-7.43-5.21-16.91-6.21-24,0-4.93-4.63-8.58-5.54-14-1-7.54.62-20.34,4.83-26,10-15.03-8.64-16.61,10.97-27-7,0,0-19,10-19,10-13.4-6.48-19.41-20.34-31-2-7.08,3.02-16.64-7.97-21-12-14.55-2.66-11.46,7.48-11,18-17,3.95-22.56-25.7-39-21-2.8,10.07,3.49,13.78,1,23-18.4-6.62-14.59,4.61-33-2,0,0-10,1-10,1-2.29-5.93-9.2-12.96-11-19Z"/></g><g id="Layer_4"><path class="cls-7" d="m504,521.5c-2.81,3.33-9.74,9.8-14,11,0,0,0,6.73,0,6.73-4.7,2.83-9,9.69-9,15.27-5.98,6.13-21.03,19.99-19,30-7.91,15.22-2.82,35.73-9,51,5.75,19.28,4.78,17.22,8-1-.53-14.61,8.04-36,8-51,0,0,9.5-12.27,9.5-12.27,4.92,4.75,9.16,13.45,6.5,20.27,2.15,9.04,13.93,14.77,12,24,5.82,4.63,19.44,8.49,12,18,.98,2.13-37.1,32.7-14,22,0,0,21-24,21-24,0,0,11,0,11,0-.97,5.31-5.24,17.81-7,23,20.62-4.77-3.95-25.79,27-21,22.31-5.4,49.29-28.19,52.21-52,12.58-25.18,19.06-60.45,11.79-88,12.66-9.04,15.22-17.38,14,4.76,4.97,3.17,3.84-10,5-11.76,0,0-6-9-6-9,0,0-21,11-21,11-8.63-15.55-38.99-41.47-32-5,3.67,8.01-.16,19.19-5.35,25.73-10.77,2.21-14.36,9.85-6.65,18.27-16.95,5.46-9.85,7.73-6,20-5.48-.05-17.24-1.15-22-4,3.66-12.77-14.74-28.19-27-22Z"/><path class="cls-7" d="m762.14,470.5c17.86,23.42-17.49,34.68-30.14,47-19.44,13.62-52.27,147.6-60,170,0,0,10,11,10,11,14.97-.31,53.81,3.07,65-10,11.64-13.06,24.11-45.1,28-62,28.59-47.57,49.19-62.63,14-117-14.88-14.28-19.41-20.92-14.99-42-3.84,1.16-16.69-6.97-11.86,3Z"/></g><g id="Layer_5"><path class="cls-7" d="m944,442.5c6.13-23.5,27.3,49.7,31.01,49,0,0,13.99-7,13.99-7,25.89,6.42,13.09-.68,31-11,0,0,29.09-14,29.09-14-8.82-2.55-31.65-10.22-35.08-20,6.23-2.63,8.06-4.45,9,4,8.98,3.32,41.66,23.77,51,19,7.37,2.73-4.65,1.57,1,17-7.67,4.77,23.29,102.43,22,108.01-.82,2.07,4.2,19.47,0,19.99-3.23-4.36-5.55-26-6.15-31.5,0,0-17.85-81.5-17.85-81.5-1.04,5.31,10.81,110.71,4,112-1.89-11.12-5.64-104.43-6-118-3.52,1.48-3.72,8.93-4,12-2.05,3.98-7.39,12.27-10,16,11.44,32.94,22.59,103.07,25,138-6.78,62.72,9.72,223.48-71.99,236-13.43-3.08-24.16-18.62-35.01-26.01-2.63-8.24-20.62-37.38-17-46-2.94.64-29.12-60.43-31-63-13.21-6.13-31.09-22.98-36-37-11.55-10.48-20.19-17.79-17-35.11-11.1-12.58-6.13-47.1-4-61.89,3.59-7.41,16.96-29,10-37,5.89-4.94,18.44-11.53,26-13,3.48.1,78.43-73.1,82.99-65,6.99-19.61,1.66-15.6-14-9-4.91-4.51-27.39-48.37-31-55Z"/></g><g id="Layer_6"><path class="cls-7" d="m1031,86.5c-34.63,16.69-20.48,42.19-23,72.38,0,0,38,38.62,38,38.62,14.27,24.12,31.33,64.66,55,81-14.19,33.98-3.6,38.61,4,71,12.24,29.18,48.15,53.93,77,64,25.29,2.57,27.55-2.27,41-22-2.52,22.03,2.22,34.49,17.01,51,11.08,6.13,33.21,19.27,44,26,6.9-2.34,17.09,4.98,22,9,19.9-3.76,55.57-23.35,72-35,0,0,27,2,27,2,27.13-10.44,80.47-1.18,107,8.01,75.52-22.35,50.93-40.98,26-98.01-33.77-46.53-113.35-116.39-168.01-135.99-10.32-4.95-52.82-10.48-49.99-28.01,13.23-6.98,10.72-11.33,7-24,17.42-4.51,51.07-.48,68,5,8.5,12.9,8.14,14.39,9-2.01,0,0-26-10-26-10-10.22.21-58.29,3.37-66-4-8.38-1.64-60.63-70.26-70.89-49.23-6.08,3.01-8.12,4.23.89,7.23,8.53-9.94,55.61,39.26,62,42-7.59,6.41-4.63,17.08-2,25-13.9,10.45-76.83-50.15-87-56-40.47-14.02-140.75-48.13-184-38Z"/></g></svg>