<?xml version="1.0" encoding="UTF-8"?><svg id="Layer_5" xmlns="http://www.w3.org/2000/svg" width="242.74" height="454.83" xmlns:xlink="http://www.w3.org/1999/xlink" viewBox="0 0 242.74 454.83"><defs><style>.cls-1{fill:none;stroke:#000;stroke-miterlimit:10;}.cls-2{fill:url(#radial-gradient);}.cls-3{fill:url(#Orchid);}</style><linearGradient id="Orchid" x1="13.3" y1="250.16" x2="218.67" y2="250.16" gradientUnits="userSpaceOnUse"><stop offset="0" stop-color="#ff7bac"/><stop offset=".22" stop-color="#ff7bac" stop-opacity=".76"/><stop offset=".6" stop-color="#ff7bac" stop-opacity=".36"/><stop offset=".87" stop-color="#ff7bac" stop-opacity=".1"/><stop offset="1" stop-color="#ff7bac" stop-opacity="0"/></linearGradient><radialGradient id="radial-gradient" cx="109.4" cy="238.1" fx="109.4" fy="238.1" r="159.43" gradientUnits="userSpaceOnUse"><stop offset="0" stop-color="#fff"/><stop offset=".03" stop-color="#fff6ed"/><stop offset=".12" stop-color="#ffdfbd"/><stop offset=".22" stop-color="#ffcb92"/><stop offset=".33" stop-color="#ffb96e"/><stop offset=".44" stop-color="#ffab51"/><stop offset=".55" stop-color="#ffa03a"/><stop offset=".67" stop-color="#ff982a"/><stop offset=".81" stop-color="#ff9420"/><stop offset="1" stop-color="#ff931e"/></radialGradient></defs><path class="cls-3" d="m128.24,68.88c-17.53,23.49-45.01,37.26-69.1,52.81-11.81,7.63-23.58,15.8-33.42,25.92-4.64,4.77-8.88,10.04-12.34,15.73-3.76,6.19-2.42,13.22-2.46,20.25-.12,21.88-2.86,43.64-3.11,65.5-.18,16.38,2.03,33.19,12.08,46.67,15.78,21.15,43.18,31.13,67.29,39.07l-4.19-4.19c8.14,24.3,17.05,48.5,28.35,71.52,6.88,14.02,14.75,28.31,25.67,39.64,6.56,6.81,15.16,13,25.01,13.04,8.76.04,16.45-5.06,21.96-11.52,7.52-8.82,12.38-19.56,16.4-30.33,5.18-13.88,8.76-28.34,11.67-42.84,7.31-36.35,10.6-73.59,11.72-110.62,1.14-37.52-.02-75.27-5.08-112.5-2.07-15.23-4.8-30.45-9.09-45.23-1.84-6.34-4.02-12.56-6.62-18.62-4.24-9.89-6.81-20.01-14.45-28.11-14.33-15.18-35.16-10.28-50.3.8-18.14,13.27-32.12,32.78-40.71,53.41-2.01,4.82-3.73,9.76-4.89,14.86-.52,2.3-.91,4.62-1.21,6.96-.11.88-.69,2.89-.4,3.76s.22-.64.44-1.11c-.42.92-.82,1.87-1.18,2.81-3.34,8.62-3.95,18.27-3.9,27.43.13,22.24,4.55,44.2,5.44,66.4.6,15.06.67,37.13-15.62,43.91-1.74.72-3.63,1.2-5.47,1.58-1.04.22-2.06.37-3.11.5-1.4.16,1.34.95.02-.04-.68-.51-1.39-.96-2.06-1.49-4.31-3.41-7.86-7.7-10.26-12.65-4.41-9.12-4.13-19.76-1.47-29.34,5.74-20.69,22.89-40.17,44.09-45.57,4.55-1.16,11.16-2.44,15.76-.95.98.32-1.48-1.17,0,.15.41.36.74.9,1.05,1.34.98,1.35,1.84,2.85,2.53,4.37,1.36,2.97,2.18,6.26,2.66,9.48,2.18,14.64-1.3,29.65-1.29,44.34,0,16.39,6.35,31.06,14.55,45.04,5.52,9.41,12.8,19.58,23.29,23.78,18.67,7.48,30.7-12.17,34.76-27.46,6.42-24.18,3.09-52.37-6.96-75.12-4.7-10.66-15.81-20.62-28.24-18.11-5.94,1.2-10.72,5.43-13.74,10.56-4.5,7.64-8.52,15.84-11.6,24.17-12.49,33.84-7.44,70.71.15,105.03.91,4.13,1.87,8.24,2.84,12.36.52,2.18,1.04,4.36,1.56,6.54.2.81.39,1.63.59,2.44.09.36.89,3.37.81,2.09.29,4.56-4.12,9.46-8.39,10.3-4.59.9-8.27-1.93-10.31-5.86-3.53-6.81-6.54-13.93-8.74-21.28-8.82-29.59-3.07-60.27,6.82-88.8,10.4-30.02,25.05-58.34,36.62-87.89,5.65-14.43,10.62-29.21,13.59-44.44,1.46-7.49,2.44-14.24,1.01-21.78-.92-4.85-2.31-9.78-4.73-14.11-3.71-6.64-10.39-11-18.14-9.29s-13.32,7.99-17.65,13.98c-10.84,14.98-16.81,36.02-12.97,54.32,5.31,25.28,30.89,36.69,51.75,46.76,5.91,2.85,11.81,5.87,17.15,9.71,4.89,3.52,8.42,7.91,12.08,12.6.45.58-.79-1.34-.11-.12.17.3.36.59.53.88.11.19.77,1.58.31.55s.22.58.3.86c.26.89.53,1.78.74,2.69.15.68.65,3.92.45,2.33,1.51,12.38-.25,25.46-2.13,37.16-5.5,34.35-15.24,68.42-27.68,100.88-4.86,12.7-10.17,25.49-17.52,37.2-.65,1.04-1.32,2.06-2.02,3.07-.3.44-.62.87-.93,1.31-.17.24-.35.48-.53.71-.89,1.19.81-.99-.1.13-1.21,1.47-2.49,2.83-3.9,4.11-1.01.91.91-.58.13-.09-.3.19-.68.39-.95.62-1.27,1.12.61.1-.73.34-1.26.23,1.43-.48-.24-.02.43-.12,1.73.19.57.02-.21-.03.9.89.44.18s-.67-.18.27.28c-.1-.05-.74-.59-.73-.7.05-.52-.33-.5.15.23-.25-.39-.53-.77-.75-1.18s-.42-.82-.63-1.23c-.46-.9.46,1.26-.07-.15-.44-1.18-.83-2.38-1.16-3.59-1.88-6.88-2.29-12.65-2.71-19.86-.16-2.77-.45-4.42.56-6.34,2.15-4.06,4.13-8.17,6.54-12.09,3.22-5.24,6.99-10.67,12-14.38,6.57-4.85,12.01-3.66,17.11,2.37,6.26,7.42,9.16,17.69,11,27.01,2.45,12.37,2.69,25.42.74,37.87-1.18,7.55,10.38,10.81,11.57,3.19,2.36-15.09,2.16-30.43-.97-45.41-2.4-11.46-6.66-23.76-14.94-32.35-7.44-7.72-17.95-9.98-27.57-4.91-5.66,2.99-10.16,7.83-14.01,12.85-2.54,3.32-4.83,6.8-6.92,10.42-2.47,4.29-6.06,9.47-7.17,14.31-1.08,4.74.21,10.96.72,15.77.43,4.1.97,8.21,1.86,12.23,1.11,4.96,2.8,10.56,6.61,14.17,8.83,8.36,18.7-1,24.04-8.29,8.82-12.06,14.66-26.5,20.12-40.3,7.26-18.33,13.3-37.15,18.49-56.17s9.29-37.01,11.89-55.88c1.79-13.02,4.02-27.98.19-40.87-2.21-7.42-7.99-13.96-13.76-18.83-11.92-10.08-26.72-15.24-40.37-22.43-10.67-5.63-21.75-13.66-26.5-25.24-3.83-9.32-2.62-20.2.06-29.64,2.49-8.75,6.6-17.76,12.88-24.39,2.37-2.5,4.75-4.48,7.17-5,.18-.04,1.41-.08,1.75.04-.5-.18.26-.05.99.54-.91-.75.96.96,1.24,1.29,2.12,2.57,3.7,8.38,4.51,12.47,1.51,7.62-.64,15.42-2.4,22.89-4.05,17.19-10.35,33.78-17.19,50.03-13.73,32.62-30.33,64.55-38.56,99.18-3.88,16.32-5.81,33.33-3.98,50.06.93,8.44,2.6,16.78,5.3,24.84s5.78,16.83,10.66,23.52c7.94,10.88,23.98,12.13,33.04,1.82,2.21-2.52,3.85-5.42,4.92-8.6,1.5-4.48.93-8.21-.15-12.71-2.37-9.85-4.72-19.71-6.73-29.64-3.94-19.48-6.56-39.4-4.89-59.3.82-9.75,2.85-19.39,6.11-28.62,1.76-4.99,3.93-9.8,6.45-14.45,1.9-3.51,3.58-8.21,6.47-11.08,3.92-3.88,8.98-2.38,12.83.87,5.51,4.67,7.33,11.7,9.45,18.3,4.42,13.7,6.26,28.16,5.17,42.52-.75,9.94-2.96,21.62-9.22,29.54-2.26,2.86-4.48,4.52-7.44,5.05-.3.05-2.2,0-3.17-.26-1.9-.52-3.29-1.26-5.08-2.53-4.91-3.47-8.63-8.66-11.8-13.67-5.12-8.1-10.01-17.29-12.83-26.46-4.7-15.28-.35-32.4-.04-48.01.15-7.9-.37-16.18-3.24-23.61-1.35-3.51-3.07-6.76-5.36-9.75-3.05-3.99-5.53-5.28-10.46-5.83-12.59-1.41-25.39,2.33-36.08,8.92-21.5,13.25-38.33,38.94-37.41,64.78.46,12.9,5.76,25.22,15.43,33.89,2.25,2.02,4.95,4.5,7.71,5.82,3.22,1.54,7.47.47,10.84-.23,4.86-1.02,9.64-2.97,13.66-5.9,18.22-13.26,17.24-39.9,15.72-59.92-1.77-23.38-7.63-48.01-4.16-71.45.73-4.94,3.07-9.4,3.81-14.08.81-5.18,1.4-10.12,3.01-15.18,3.72-11.71,9.88-22.67,17.07-32.59s15.23-18.47,25.15-24.77c7.33-4.66,16.46-8.4,24.64-5.18,11.15,4.4,14.14,17.41,18.27,27.4,2.12,5.12,4.83,12.02,6.77,18.59,4.86,16.51,7.82,33.62,9.88,50.67,5.1,42.06,5.51,84.79,3.05,127.05-2.24,38.43-6.5,77.59-17.59,114.59-3.95,13.17-7.92,24.23-15.72,35.61-.33.49-.69.96-1.04,1.43.95-1.26-.28.35-.52.63-.84.98-1.67,1.94-2.58,2.86-.72.72-1.48,1.39-2.24,2.06-1.24,1.09.76-.48-.36.29-.48.33-.95.67-1.45.98-.81.51-1.66.95-2.52,1.37-.71.35,1.3-.42-.08.02-.51.17-1.02.33-1.53.49-.46.14-.93.21-1.4.32-1.26.31,1.49-.03-.13.02-.97.03-1.92.04-2.89.01-1.56-.05.95.21-.04.01-.49-.1-1-.17-1.49-.31-.73-.21-3.68-1.29-2.1-.6-2.17-.95-4.18-2.18-6.1-3.56-1.09-.78.58.53-.75-.59-.49-.41-.97-.82-1.45-1.24-1.14-1.02-2.24-2.09-3.3-3.19-2.28-2.37-4.78-5.4-6.25-7.39-12.53-16.96-21.37-36.71-29.22-56.16-2.82-6.99-5.5-14.04-8.08-21.12-1.33-3.65-2.62-7.31-3.9-10.98s-2.12-9.11-4.56-12.27-8.27-3.85-11.73-5.08c-4.13-1.47-8.23-3.01-12.28-4.68-6.19-2.56-12.26-5.44-18.08-8.76-16.6-9.48-28.13-22.36-30.81-41.39-2.9-20.55.9-43.19,1.85-64.19.32-7.14.5-14.3.47-21.45,0-1.7-.02-3.39-.05-5.09-.02-1.05-.17-2.19-.07-3.24.2-2.11-.68,1.35.02-.54,1.2-3.27,4.21-6.67,6.41-9.33,9.66-11.72,22.18-20.63,34.83-28.85,26.4-17.15,55.33-32.1,74.55-57.86,4.62-6.19-5.79-12.18-10.36-6.06h0Z"/><path class="cls-2" d="m144.83,48.6c-11.76,29.56-38.17,47.73-64.43,63.49-13.25,7.95-26.74,15.56-39.33,24.53-6.37,4.53-12.55,9.38-18.24,14.75-5,4.72-11.57,10.54-14.04,17.05-10.54,27.77-10.78,60.39-5.09,89.22,2.92,14.78,7.9,29.48,15.75,42.4,7.13,11.74,17.64,23.95,30.7,29.15,8.94,3.56,18.58,4.7,27.68,7.73,3.36,1.12,7.89,2.78,10,5.29,3.25,3.87,5.31,9.85,7.78,14.29,8.04,14.43,16.49,28.67,25.89,42.26,10.53,15.23,23.28,33.58,40.63,41.74,30.7,14.44,43.3-24.52,47.9-47.15,8.75-43.02,8.79-88,8.74-131.72-.03-21.84-.43-43.67-.81-65.51-.39-22.28.76-44.69-2.01-66.84s-8.47-46.47-18.84-67.53c-5.65-11.49-15.74-29.13-30.63-29.18-17.23-.06-23.37,22.85-26.15,36.02-3.34,15.83-4.55,32.15-5.13,48.29-.18,5.14-.22,10.28-.33,15.43-.11,5.5-1.51,10.89-2.65,16.26-1.72,8.09-3.61,16.15-5.78,24.13-3,11.02-6.33,22.21-11.55,32.41-.86,1.69-1.78,3.35-2.78,4.95-.44.7-.9,1.39-1.37,2.07-1.02,1.5-.06.24-1,1.33-.78.9-1.6,1.73-2.47,2.54-1.04.97.97-.64-.34.26-.44.3-.91.54-1.38.79.18-.1,1,.12-.18-.01-1.1-.12.57.39.29-.01.02.03-2.08-.2-.46.05,1.45.23-.54-.08-.66-.26.27.41,1.14.86.27.04s-.28-.2-.01.06c-.56-.53-2.27-2.65-1.23-1.17-.61-.88-1.15-1.79-1.67-2.72-.29-.51-.52-1.05-.76-1.58.41.88-.11-.2-.41-1.09-.93-2.72-1.68-5.47-2.23-8.29-.69-3.55-.86-5-1.12-9.16-.24-3.8-.27-7.62-.12-11.43.34-8.39,1.38-15.35,3.59-23.61,4.15-15.51,12.18-30.98,25.35-40.06,6.94-4.78,14.57-7.76,23.03-8.82l-4.24-1.76c8.94,9.85,16.19,21.88,15.59,35.6-.51,11.73-6.9,22.59-14.22,31.42-18.97,22.89-45.12,39.09-69.25,55.91-12.28,8.56-24.83,17.18-35.57,27.67-2,1.95-2.14,4.89-.94,7.27,8.4,16.69,21.63,34.77,41.08,38.88,14.18,2.99,28.54-2.29,38.29-12.84,10.05-10.89,14.95-25.94,12.74-40.63-2.63-17.45-15.6-30.88-30.96-38.49-4.75-2.35-11.03-5.81-16.41-5.94-3.73-.09-7.71.56-11.35,1.28-5.27,1.05-10.77,3.09-14.6,7.01-7.21,7.39-4.72,18.02.73,25.61,14.25,19.84,43.01,32.94,67.28,31.27,14.24-.98,26.87-7.41,35.35-19.01,4.88-6.68,8.05-14.61,10-22.61,1.27-5.19,1.28-10.84,2.81-15.89,1.85-6.1,5.7-12.33,10.14-16.87s9.56-7.14,15.95-6.73l-5.79-7.6c-11.5,48.93-31.84,95.28-60.03,136.88l8.21-2.15c-12.5-7.04-17.65-23.75-17.89-37.26s4.74-27.71,19.77-28.21l-4.24-1.76c14.75,12.39,21.08,33.25,22.09,51.9.88,16.22-1.86,38.2-16.92,47.34-9.31,5.65-20.62,3.95-30.6.48-5.68-1.98-10.12,6.06-5.84,10.03,15.93,14.76,31.85,29.52,47.78,44.28,2.3,2.13,6.22,2.46,8.49,0,22.65-24.67,31.05-60.52,21.28-92.63-2.24-7.37-13.83-4.23-11.57,3.19,8.52,27.97,1.63,59.36-18.19,80.95h8.49c-15.93-14.76-31.85-29.52-47.78-44.28l-5.84,10.03c17.56,6.11,37.42,4.89,49.79-10.44,11.45-14.19,14.18-34.04,12.73-51.72-1.54-18.69-7.46-38.04-20.02-52.35-3.34-3.81-6.65-7.39-12.07-6.88-4.95.47-9.81,1.85-13.98,4.63-7.99,5.32-12.63,14.24-14.34,23.52-3.85,20.85,3.21,48.5,22.82,59.54,2.96,1.67,6.36.57,8.21-2.15,28.71-42.38,49.53-89.92,61.24-139.75.93-3.98-1.82-7.34-5.79-7.6-12.41-.81-22.48,6.72-29.45,16.34-3.57,4.92-6.79,10.85-8.43,16.73-1.23,4.39-1.23,9.25-2.24,13.75-2.84,12.63-8.88,24.59-20.23,30.52-9.09,4.75-20.55,4.69-30.77,2.29-11.01-2.59-20.94-7.28-30.12-14.19-2.73-2.05-7.07-6.01-9.79-9.47.69.88-.8-1.15-1.09-1.59-.58-.9-1.1-1.83-1.6-2.77-.31-.58-.49-1.08-.1-.13-.15-.38-.32-.76-.43-1.15-.24-.81-.46-1.61-.62-2.44.21,1.12-.01-.05.06-1.1s-.24,1.29-.04.22c.07-.39.18-.78.31-1.16.4-1.12-.22.52-.07.16.12-.29.32-.69.53-.92.81-.85-.33.34-.06.05.3-.32.59-.69.94-.96.52-.41.84-.64.06-.09.41-.29.85-.6,1.3-.83.42-.22.83-.45,1.25-.66,1.19-.6-.29.06.68-.3,2.41-.89,4.93-1.48,7.47-1.85,3.38-.5,6.66-.28,10.38,1.13,4.43,1.68,8.7,3.82,12.7,6.37,6.1,3.89,11.41,9.01,14.92,15.38,5.69,10.33,5.26,22.67.14,32.68s-13.98,17.33-23.93,18.57c-13.86,1.73-25.97-8.09-33.86-19.16-3.26-4.59-6.05-9.48-8.57-14.5l-.94,7.27c20.91-20.43,47.45-34.79,70.62-52.44,21.71-16.54,47.83-37.84,51.54-66.8,1.77-13.84-2.83-27.38-10.82-38.61-2.27-3.2-4.85-7.18-7.88-9.73-3.22-2.72-7.54-1.44-11.32-.65-5.33,1.12-10.51,2.99-15.38,5.43-18.36,9.19-30.09,27.41-36.14,46.51-5.51,17.4-7.15,36.73-3.8,54.72,1.92,10.32,8.36,28,22.26,23.72,6.92-2.13,11.58-8.97,14.92-14.96,6.3-11.3,10.25-24.02,13.68-36.43,2.58-9.36,4.77-18.84,6.74-28.35,1.2-5.8,2.4-11.38,2.45-17.32s.19-11.83.44-17.75c.72-16.88,1.98-34.15,6.69-50.46,1.39-4.82,2.77-8.79,5.33-12.96,1.31-2.14.97-1.63,2.63-3.45.33-.36,2.09-1.7.75-.76.6-.42,1.21-.79,1.86-1.13-.62.34-.46.09.64-.18,1.87-.47-.94.1.71-.13.55-.08,2.47.28.57-.07.69.13,1.34.31,2.01.51.37.11,1.26.52-.14-.1.37.16.75.34,1.11.54.63.36,1.25.72,1.86,1.12.25.16.5.35.74.52,1.27.91-.95-.81.27.23.77.66,1.52,1.34,2.23,2.06,3.17,3.18,4.69,5.37,7.11,9.27,2.75,4.41,5.1,9.05,7.22,13.79,5.08,11.39,8.61,23.54,11.32,35.69,3.14,14.15,4.97,28.55,5.47,43.03.41,12.01-.08,24.06.11,36.09.39,24.32.91,48.65.96,72.98.05,26.43-.33,52.89-2.12,79.26-1.47,21.64-3.51,43.7-9.57,64.62-2.29,7.92-4.19,13.38-8.72,20.16-.26.39-1.58,2.11-.65.94-.49.61-.99,1.2-1.52,1.77-.56.61-3.45,3.03-2.16,2.11-1.07.76-2.16,1.41-3.34,1.97.74-.36.48-.08-.58.16-.64.14-1.28.33-1.92.46-1.29.27,1.47-.1.15-.02-.31.02-.62.06-.92.05-.63-.02-1.26-.02-1.89-.04-1.25-.04,1.09.32-.75-.1-.82-.19-1.63-.37-2.43-.62-2.47-.76-1.55-.41-3.27-1.34s-3.4-1.91-5.01-3.02c-7.6-5.24-15.36-14.09-21.6-22.07-10.38-13.28-19.32-27.73-27.8-42.28-2.54-4.36-5.03-8.75-7.47-13.16-2.67-4.81-5.01-11.6-8.75-15.63-7-7.54-20.23-9.55-29.7-11.83-9.16-2.2-16.7-5.01-23.73-11.39-5.8-5.27-10.51-11.47-14.4-18.24-8.46-14.73-13.09-31.71-15.13-48.5s-1.85-34.68,1.34-51.59c1.27-6.73,2.44-15.95,6.59-21.46,5.04-6.69,11.63-12.5,18.11-17.74,27.26-22.01,60.76-34.9,86.96-58.44,13.14-11.81,23.36-26.03,29.89-42.46,2.85-7.18-8.75-10.29-11.57-3.19h0Z"/><path class="cls-1" d="m88.67,5.7c6.13-23.5,27.3,49.7,31.01,49,0,0,13.99-7,13.99-7,25.89,6.42,13.09-.68,31-11,0,0,29.09-14,29.09-14-8.82-2.55-31.65-10.22-35.08-20,6.23-2.63,8.06-4.45,9,4,8.98,3.32,41.66,23.77,51,19-7.87,23.15,28.48,118.33,23.01,145-3.24-4.36-5.56-26-6.15-31.5,0,0-17.85-81.5-17.85-81.5-1.04,5.31,10.81,110.71,4,112-1.89-11.12-5.64-104.43-6-118-26.92,40.92,14.69,117.12,10.99,166-1.09,61.32-1.8,307.16-107,210-2.62-8.25-20.62-37.39-16.99-46.01-2.94.64-29.12-60.43-31-63-22.34-14.58-54.14-44.14-53-72.11-17.6-23.29.41-112.83,32-111.89,3.48.1,78.44-73.1,83-65,6.99-19.61,1.66-15.6-14-9-4.91-4.51-27.39-48.37-31-55Z"/></svg>