<?xml version="1.0" encoding="UTF-8"?><svg xmlns="http://www.w3.org/2000/svg" width="1735.71" height="800.37" xmlns:xlink="http://www.w3.org/1999/xlink" viewBox="0 0 1735.71 800.37"><defs><style>.cls-1{fill:url(#linear-gradient);}.cls-2{fill:url(#Summer-2);}.cls-3{fill:url(#radial-gradient-3);}.cls-4{fill:url(#radial-gradient-4);}.cls-5{fill:url(#radial-gradient-2);}.cls-6{fill:#594545;}.cls-6,.cls-7{stroke:#000;stroke-miterlimit:10;}.cls-8{fill:url(#linear-gradient-3);}.cls-9{fill:url(#linear-gradient-4);}.cls-10{fill:url(#linear-gradient-2);}.cls-7{fill:none;}.cls-11{fill:url(#Orchid-13);}.cls-12{fill:url(#Orchid-12);}.cls-13{fill:url(#Orchid-11);}.cls-14{fill:url(#Orchid-10);}.cls-15{fill:url(#Orchid-14);}.cls-16{fill:url(#Orchid-15);}.cls-17{fill:url(#radial-gradient);}.cls-18{fill:url(#Orchid-3);}.cls-19{fill:url(#Orchid-5);}.cls-20{fill:url(#Orchid-2);}.cls-21{fill:url(#Orchid-4);}.cls-22{fill:url(#Orchid-7);}.cls-23{fill:url(#Orchid-9);}.cls-24{fill:url(#Orchid-8);}.cls-25{fill:url(#Orchid-6);}.cls-26{fill:url(#Orchid);}.cls-27{fill:url(#Summer);}</style><linearGradient id="Orchid" x1="868.63" y1="591.42" x2="1073.99" y2="591.42" gradientUnits="userSpaceOnUse"><stop offset="0" stop-color="#ff7bac"/><stop offset=".22" stop-color="#ff7bac" stop-opacity=".76"/><stop offset=".6" stop-color="#ff7bac" stop-opacity=".36"/><stop offset=".87" stop-color="#ff7bac" stop-opacity=".1"/><stop offset="1" stop-color="#ff7bac" stop-opacity="0"/></linearGradient><radialGradient id="Summer" cx="737.6" cy="481.88" fx="737.6" fy="481.88" r="94.44" gradientUnits="userSpaceOnUse"><stop offset="0" stop-color="#fff"/><stop offset=".09" stop-color="#ffecd8"/><stop offset=".21" stop-color="#ffd4a7"/><stop offset=".33" stop-color="#ffc07d"/><stop offset=".46" stop-color="#ffb05a"/><stop offset=".59" stop-color="#ffa340"/><stop offset=".72" stop-color="#ff9a2d"/><stop offset=".86" stop-color="#ff9421"/><stop offset="1" stop-color="#ff931e"/></radialGradient><radialGradient id="Summer-2" cx="547.11" cy="451.74" fx="547.11" fy="451.74" r="69.49" xlink:href="#Summer"/><radialGradient id="radial-gradient" cx="223.21" cy="417.12" fx="223.21" fy="417.12" r="137.03" gradientUnits="userSpaceOnUse"><stop offset="0" stop-color="#fff"/><stop offset=".03" stop-color="#fff6ed"/><stop offset=".12" stop-color="#ffdfbd"/><stop offset=".22" stop-color="#ffcb92"/><stop offset=".33" stop-color="#ffb96e"/><stop offset=".44" stop-color="#ffab51"/><stop offset=".55" stop-color="#ffa03a"/><stop offset=".67" stop-color="#ff982a"/><stop offset=".81" stop-color="#ff9420"/><stop offset="1" stop-color="#ff931e"/></radialGradient><radialGradient id="radial-gradient-2" cx="964.72" cy="579.37" fx="964.72" fy="579.37" r="159.43" xlink:href="#radial-gradient"/><linearGradient id="Orchid-2" x1="1321.98" y1="349.76" x2="1483.93" y2="349.76" xlink:href="#Orchid"/><linearGradient id="Orchid-3" x1="1342.82" y1="312.38" x2="1433.22" y2="312.38" xlink:href="#Orchid"/><linearGradient id="Orchid-4" x1="1229.63" y1="279.95" x2="1299.74" y2="279.95" xlink:href="#Orchid"/><radialGradient id="radial-gradient-3" cx="1718.71" cy="60.67" fx="1718.71" fy="60.67" r="20.29" xlink:href="#radial-gradient"/><linearGradient id="linear-gradient" x1="1308.69" y1="63.77" x2="1469.82" y2="63.77" gradientUnits="userSpaceOnUse"><stop offset="0" stop-color="#fff"/><stop offset="1" stop-color="#000"/></linearGradient><linearGradient id="linear-gradient-2" x1="1384.11" y1="92.89" x2="1405.77" y2="92.89" xlink:href="#linear-gradient"/><linearGradient id="linear-gradient-3" x1="1392.64" y1="206.18" x2="1493.6" y2="206.18" xlink:href="#linear-gradient"/><linearGradient id="linear-gradient-4" x1="1388.02" y1="93.69" x2="1409.36" y2="93.69" xlink:href="#linear-gradient"/><linearGradient id="Orchid-5" x1="1410.7" y1="59.92" x2="1708.48" y2="59.92" xlink:href="#Orchid"/><linearGradient id="Orchid-6" x1="1601.41" y1="120.92" x2="1692.84" y2="120.92" xlink:href="#Orchid"/><linearGradient id="Orchid-7" x1="1502.92" y1="263.6" x2="1601.94" y2="263.6" xlink:href="#Orchid"/><linearGradient id="Orchid-8" x1="1156.65" y1="244.2" x2="1381.99" y2="244.2" xlink:href="#Orchid"/><linearGradient id="Orchid-9" x1="1384.42" y1="218" x2="1486.09" y2="218" xlink:href="#Orchid"/><linearGradient id="Orchid-10" x1="1426.92" y1="208.07" x2="1515.51" y2="208.07" xlink:href="#Orchid"/><linearGradient id="Orchid-11" x1="1573.67" y1="96.93" x2="1643.19" y2="96.93" xlink:href="#Orchid"/><linearGradient id="Orchid-12" x1="1511.98" y1="180.71" x2="1582.12" y2="180.71" xlink:href="#Orchid"/><linearGradient id="Orchid-13" x1="1473.9" y1="182.11" x2="1701.24" y2="182.11" xlink:href="#Orchid"/><linearGradient id="Orchid-14" x1="1616.2" y1="192.41" x2="1653.11" y2="192.41" xlink:href="#Orchid"/><linearGradient id="Orchid-15" x1="1648.99" y1="128.6" x2="1697.48" y2="128.6" xlink:href="#Orchid"/><radialGradient id="radial-gradient-4" cx="1442.4" cy="190.12" fx="1442.4" fy="190.12" r="239.92" xlink:href="#radial-gradient"/></defs><g id="Layer_7"><path class="cls-26" d="m983.57,410.14c-17.53,23.49-45.01,37.26-69.1,52.81-11.81,7.63-23.58,15.8-33.42,25.92-4.64,4.77-8.88,10.04-12.34,15.73-3.76,6.19-2.42,13.22-2.46,20.25-.12,21.88-2.86,43.64-3.11,65.5-.18,16.38,2.03,33.19,12.08,46.67,15.78,21.15,43.18,31.13,67.29,39.07l-4.19-4.19c8.14,24.3,17.05,48.5,28.35,71.52,6.88,14.02,14.75,28.31,25.67,39.64,6.56,6.81,15.16,13,25.01,13.04,8.76.04,16.45-5.06,21.96-11.52,7.52-8.82,12.38-19.56,16.4-30.33,5.18-13.88,8.76-28.34,11.67-42.84,7.31-36.35,10.6-73.59,11.72-110.62,1.14-37.52-.02-75.27-5.08-112.5-2.07-15.23-4.8-30.45-9.09-45.23-1.84-6.34-4.02-12.56-6.62-18.62-4.24-9.89-6.81-20.01-14.45-28.11-14.33-15.18-35.16-10.28-50.3.8-18.14,13.27-32.12,32.78-40.71,53.41-2.01,4.82-3.73,9.76-4.89,14.86-.52,2.3-.91,4.62-1.21,6.96-.11.88-.69,2.89-.4,3.76s.22-.64.44-1.11c-.42.92-.82,1.87-1.18,2.81-3.34,8.62-3.95,18.27-3.9,27.43.13,22.24,4.55,44.2,5.44,66.4.6,15.06.67,37.13-15.62,43.91-1.74.72-3.63,1.2-5.47,1.58-1.04.22-2.06.37-3.11.5-1.4.16,1.34.95.02-.04-.68-.51-1.39-.96-2.06-1.49-4.31-3.41-7.86-7.7-10.26-12.65-4.41-9.12-4.13-19.76-1.47-29.34,5.74-20.69,22.89-40.17,44.09-45.57,4.55-1.16,11.16-2.44,15.76-.95.98.32-1.48-1.17,0,.15.41.36.74.9,1.05,1.34.98,1.35,1.84,2.85,2.53,4.37,1.36,2.97,2.18,6.26,2.66,9.48,2.18,14.64-1.3,29.65-1.29,44.34,0,16.39,6.35,31.06,14.55,45.04,5.52,9.41,12.8,19.58,23.29,23.78,18.67,7.48,30.7-12.17,34.76-27.46,6.42-24.18,3.09-52.37-6.96-75.12-4.7-10.66-15.81-20.62-28.24-18.11-5.94,1.2-10.72,5.43-13.74,10.56-4.5,7.64-8.52,15.84-11.6,24.17-12.49,33.84-7.44,70.71.15,105.03.91,4.13,1.87,8.24,2.84,12.36.52,2.18,1.04,4.36,1.56,6.54.2.81.39,1.63.59,2.44.09.36.89,3.37.81,2.09.29,4.56-4.12,9.46-8.39,10.3-4.59.9-8.27-1.93-10.31-5.86-3.53-6.81-6.54-13.93-8.74-21.28-8.82-29.59-3.07-60.27,6.82-88.8,10.4-30.02,25.05-58.34,36.62-87.89,5.65-14.43,10.62-29.21,13.59-44.44,1.46-7.49,2.44-14.24,1.01-21.78-.92-4.85-2.31-9.78-4.73-14.11-3.71-6.64-10.39-11-18.14-9.29s-13.32,7.99-17.65,13.98c-10.84,14.98-16.81,36.02-12.97,54.32,5.31,25.28,30.89,36.69,51.75,46.76,5.91,2.85,11.81,5.87,17.15,9.71,4.89,3.52,8.42,7.91,12.08,12.6.45.58-.79-1.34-.11-.12.17.3.36.59.53.88.11.19.77,1.58.31.55s.22.58.3.86c.26.89.53,1.78.74,2.69.15.68.65,3.92.45,2.33,1.51,12.38-.25,25.46-2.13,37.16-5.5,34.35-15.24,68.42-27.68,100.88-4.86,12.7-10.17,25.49-17.52,37.2-.65,1.04-1.32,2.06-2.02,3.07-.3.44-.62.87-.93,1.31-.17.24-.35.48-.53.71-.89,1.19.81-.99-.1.13-1.21,1.47-2.49,2.83-3.9,4.11-1.01.91.91-.58.13-.09-.3.19-.68.39-.95.62-1.27,1.12.61.1-.73.34-1.26.23,1.43-.48-.24-.02.43-.12,1.73.19.57.02-.21-.03.9.89.44.18s-.67-.18.27.28c-.1-.05-.74-.59-.73-.7.05-.52-.33-.5.15.23-.25-.39-.53-.77-.75-1.18s-.42-.82-.63-1.23c-.46-.9.46,1.26-.07-.15-.44-1.18-.83-2.38-1.16-3.59-1.88-6.88-2.29-12.65-2.71-19.86-.16-2.77-.45-4.42.56-6.34,2.15-4.06,4.13-8.17,6.54-12.09,3.22-5.24,6.99-10.67,12-14.38,6.57-4.85,12.01-3.66,17.11,2.37,6.26,7.42,9.16,17.69,11,27.01,2.45,12.37,2.69,25.42.74,37.87-1.18,7.55,10.38,10.81,11.57,3.19,2.36-15.09,2.16-30.43-.97-45.41-2.4-11.46-6.66-23.76-14.94-32.35-7.44-7.72-17.95-9.98-27.57-4.91-5.66,2.99-10.16,7.83-14.01,12.85-2.54,3.32-4.83,6.8-6.92,10.42-2.47,4.29-6.06,9.47-7.17,14.31s.21,10.96.72,15.77c.43,4.1.97,8.21,1.86,12.23,1.11,4.96,2.8,10.56,6.61,14.17,8.83,8.36,18.7-1,24.04-8.29,8.82-12.06,14.66-26.5,20.12-40.3,7.26-18.33,13.3-37.15,18.49-56.17s9.29-37.01,11.89-55.88c1.79-13.02,4.02-27.98.19-40.87-2.21-7.42-7.99-13.96-13.76-18.83-11.92-10.08-26.72-15.24-40.37-22.43-10.67-5.63-21.75-13.66-26.5-25.24-3.83-9.32-2.62-20.2.06-29.64,2.49-8.75,6.6-17.76,12.88-24.39,2.37-2.5,4.75-4.48,7.17-5,.18-.04,1.41-.08,1.75.04-.5-.18.26-.05.99.54-.91-.75.96.96,1.24,1.29,2.12,2.57,3.7,8.38,4.51,12.47,1.51,7.62-.64,15.42-2.4,22.89-4.05,17.19-10.35,33.78-17.19,50.03-13.73,32.62-30.33,64.55-38.56,99.18-3.88,16.32-5.81,33.33-3.98,50.06.93,8.44,2.6,16.78,5.3,24.84,2.61,7.8,5.78,16.83,10.66,23.52,7.94,10.88,23.98,12.13,33.04,1.82,2.21-2.52,3.85-5.42,4.92-8.6,1.5-4.48.93-8.21-.15-12.71-2.37-9.85-4.72-19.71-6.73-29.64-3.94-19.48-6.56-39.4-4.89-59.3.82-9.75,2.85-19.39,6.11-28.62,1.76-4.99,3.93-9.8,6.45-14.45,1.9-3.51,3.58-8.21,6.47-11.08,3.92-3.88,8.98-2.38,12.83.87,5.51,4.67,7.33,11.7,9.45,18.3,4.42,13.7,6.26,28.16,5.17,42.52-.75,9.94-2.96,21.62-9.22,29.54-2.26,2.86-4.48,4.52-7.44,5.05-.3.05-2.2,0-3.17-.26-1.9-.52-3.29-1.26-5.08-2.53-4.91-3.47-8.63-8.66-11.8-13.67-5.12-8.1-10.01-17.29-12.83-26.46-4.7-15.28-.35-32.4-.04-48.01.15-7.9-.37-16.18-3.24-23.61-1.35-3.51-3.07-6.76-5.36-9.75-3.05-3.99-5.53-5.28-10.46-5.83-12.59-1.41-25.39,2.33-36.08,8.92-21.5,13.25-38.33,38.94-37.41,64.78.46,12.9,5.76,25.22,15.43,33.89,2.25,2.02,4.95,4.5,7.71,5.82,3.22,1.54,7.47.47,10.84-.23,4.86-1.02,9.64-2.97,13.66-5.9,18.22-13.26,17.24-39.9,15.72-59.92-1.77-23.38-7.63-48.01-4.16-71.45.73-4.94,3.07-9.4,3.81-14.08.81-5.18,1.4-10.12,3.01-15.18,3.72-11.71,9.88-22.67,17.07-32.59s15.23-18.47,25.15-24.77c7.33-4.66,16.46-8.4,24.64-5.18,11.15,4.4,14.14,17.41,18.27,27.4,2.12,5.12,4.83,12.02,6.77,18.59,4.86,16.51,7.82,33.62,9.88,50.67,5.1,42.06,5.51,84.79,3.05,127.05-2.24,38.43-6.5,77.59-17.59,114.59-3.95,13.17-7.92,24.23-15.72,35.61-.33.49-.69.96-1.04,1.43.95-1.26-.28.35-.52.63-.84.98-1.67,1.94-2.58,2.86-.72.72-1.48,1.39-2.24,2.06-1.24,1.09.76-.48-.36.29-.48.33-.95.67-1.45.98-.81.51-1.66.95-2.52,1.37-.71.35,1.3-.42-.08.02-.51.17-1.02.33-1.53.49-.46.14-.93.21-1.4.32-1.26.31,1.49-.03-.13.02-.97.03-1.92.04-2.89.01-1.56-.05.95.21-.04.01-.49-.1-1-.17-1.49-.31-.73-.21-3.68-1.29-2.1-.6-2.17-.95-4.18-2.18-6.1-3.56-1.09-.78.58.53-.75-.59-.49-.41-.97-.82-1.45-1.24-1.14-1.02-2.24-2.09-3.3-3.19-2.28-2.37-4.78-5.4-6.25-7.39-12.53-16.96-21.37-36.71-29.22-56.16-2.82-6.99-5.5-14.04-8.08-21.12-1.33-3.65-2.62-7.31-3.9-10.98s-2.12-9.11-4.56-12.27-8.27-3.85-11.73-5.08c-4.13-1.47-8.23-3.01-12.28-4.68-6.19-2.56-12.26-5.44-18.08-8.76-16.6-9.48-28.13-22.36-30.81-41.39-2.9-20.55.9-43.19,1.85-64.19.32-7.14.5-14.3.47-21.45,0-1.7-.02-3.39-.05-5.09-.02-1.05-.17-2.19-.07-3.24.2-2.11-.68,1.35.02-.54,1.2-3.27,4.21-6.67,6.41-9.33,9.66-11.72,22.18-20.63,34.83-28.85,26.4-17.15,55.33-32.1,74.55-57.86,4.62-6.19-5.79-12.18-10.36-6.06h0Z"/><path class="cls-27" d="m764.8,365.2c3,16.53-8.26,30.96-18.36,42.71-13.72,15.95-28.86,30.97-39.05,49.59-5.46,9.98-9.47,20.8-11.22,32.06-1.34,8.58-1.36,14.28-4.02,22.61-5.77,18.04-14.16,35.21-18.87,53.61-3.44,13.42-5.79,33.25,10.84,38.73,4.01,1.32,8.12,1.22,12.28,1.08,5.15-.18,10.3.15,15.44.34,10.14.37,21.2.52,30.37-4.49,4.63-2.53,8.47-6.51,10.86-11.2,3.12-6.14,3.17-12.35,3.89-19.05,1.2-11,3.57-21.97,7.49-32.34,5.21-13.78,13.79-24.87,23.2-35.86,8.12-9.48,15.19-19.14,16.49-31.93,1.9-18.71-7.53-38.03-15.74-54.17-3.58-7.04-7.43-13.94-11.39-20.77-1.5-2.59-5.59-4.08-8.21-2.15-21.31,15.68-16.51,43.57-22.91,66.23-6.97,24.68-24.25,44.72-34.64,67.87-5.73,12.77-9.4,26.32-8.14,40.42.4,4.53,6.68,8.74,10.24,4.24,34.92-44.08,60.14-95.22,73.4-149.9h-11.57c5.8,20.74,5,42.18-4.09,61.88-4.35,9.43-10.02,18.26-16.42,26.42-3.41,4.34-7.02,8.52-10.75,12.59s-5.46,9.08-7.69,14.2c-6.24,14.28-12.67,28.65-20.63,42.07-1.17,1.97-2.37,3.91-3.66,5.81-.54.8-1.1,1.59-1.67,2.37-.95,1.3.02.12-1.22,1.53-.87.99-1.76,1.92-2.75,2.8-.35.31.66-1.04-.25.14-.8,1.04.55,0-.1.1-1.29.22,1.67.09.42-.06,3.14.36-1.02-.48,1.82.5-1.11-.38,1.44.62.32.25-.51-.17,1.53.65.04-.06-.84-.4.28,1.01-.03-.03-.15-.49-.31-.98-.45-1.48-.15-.56-.25-1.13-.37-1.7-.44-2.07-.02.51-.18-1.14-.76-7.9-.29-15.89.39-23.78,1.97-22.76,6.21-45.4,11.11-67.74,2.76-12.59,5.82-25.12,9.39-37.51,1.52-5.28,3.14-10.53,4.94-15.72,1.54-4.45,2.87-7.92,4.32-11.05,3.22-6.96-7.12-13.06-10.36-6.06-8.98,19.38-13.91,40.89-18.63,61.62-5.59,24.59-10.29,49.57-12.62,74.7-.79,8.5-1.47,17.22-.53,25.73.64,5.83,2.15,13.57,8.86,15.21,7.43,1.82,13.17-5.93,16.86-11.11,7.9-11.1,13.72-23.83,19.4-36.16,2.32-5.05,4.58-10.13,6.79-15.23,1.32-3.04,2.34-6.52,4.38-9.14s4.64-5.13,6.86-7.75c8.09-9.56,15.55-19.8,21.18-31.03,11.77-23.47,13.93-49.12,6.87-74.38-1.56-5.57-10.15-5.85-11.57,0-12.75,52.57-36.71,102.19-70.32,144.61l10.24,4.24c-2.77-31.02,19.92-56.45,33.15-82.46,7.1-13.96,10.98-27.95,12.86-43.44,1.56-12.89,2.25-29.8,13.74-38.26l-8.21-2.15c10.48,18.07,23.37,39.01,25.48,60.22,1.12,11.27-2.7,19.64-9.33,27.79-8.36,10.28-17.33,19.87-23.67,31.63-4.36,8.1-7.68,16.79-10,25.69-1.37,5.23-2.4,10.55-3.18,15.9-.88,6.09-.45,13.16-2.49,18.94-3.2,9.07-12.18,11.31-20.88,11.67-9.85.41-19.81-.31-29.67-.24-2.88.02-5.67-.37-7.52-1.89-.7-.57-1.76-2.11-2.26-4.13-1.38-5.65.31-13.45,1.96-19.69,4.62-17.48,12.4-33.9,18.08-51.02,2.29-6.91,3.5-13.52,4.15-20.74.97-10.68,4.4-21.18,9.34-30.67,9.22-17.72,23.19-31.98,36.23-46.87,11.13-12.71,22.52-26.78,24.22-44.21.41-4.2.02-8.38-.73-12.52-1.38-7.59-12.94-4.37-11.57,3.19h0Z"/><path class="cls-2" d="m481.11,479.5c5.47,27.87,26.98,53.22,56.71,54.93,14.62.84,28.88-5,40.03-14.21s15.62-24.37,18.26-38.22c2.99-15.67,4.07-33.95,15.36-46.31l-10.24-4.24c-1.22,13.9-4.6,27.42-9.75,40.38l11.57,3.19c5.14-19.74,11.62-40.66,9.52-61.29-.99-9.73-3.95-19-10.04-26.77-7.02-8.95-17.13-14.33-27.81-17.75-3.34-1.07-6.21,1.28-7.38,4.19-2.85,7.08-1.78,14.76-.2,22.01,1.3,6,4.74,14.48,1.7,20.41-1.12,2.19-4.93,3.72-7.14,6.41s-3.74,5.91-4.48,9.35c-1.47,6.85-.08,13.96-1.71,20.75l2.76-3.59c-7.28,4.22-16.06,2.93-24.11,2.67-8.89-.29-18.18.39-25.83,5.41-4.02,2.64-6.99,6.15-10.13,9.72-2.2,2.51-4.4,5.35-5.2,8.66-1.49,6.22,2.77,10.69,8.23,12.67,5.09,1.84,10.69,2.06,15.98,3.05,2.03.38,5.21,1.15,6.41,1.68s1.44.84,1.66,1.14c-1.85-2.58.04,2.73.37,3.74,1.48,4.54,4.02,10.22,9.71,10.02,4.99-.18,7.61-4.91,9.43-8.91,2.54-5.61,4.48-11.46,7.1-17.04,1.37-2.92,2.85-5.96,4.84-8.53,1.34-1.73,2.92-3.06,4.04-3.42l-7.6-5.79c.2,7.54.4,15.08.61,22.62.09,3.32-.14,6.77.74,9.97.43,1.55,1.05,3.01,1.32,4.6.11.67.22,1.63.09,2.91.15-1.5-.88,2.66-.26,1.02-.14.37-.47.95-.75,1.23,1.07-1.05-.17.07-.32.19-1.22.94.67-.51-.11.07-.43.32-1,.64-1.51.81,1.19-.41-1.59.36-2.07.45-.21.04-1.03.11-2.41.11-2.71-.01-3.72-.2-6.61-.99-4.8-1.31-9.52-3.71-13.09-6.99s-6.03-7.19-6.16-11.43c-.14-4.68,2.79-13.54,8.67-14.32,4.58-.61,9.27,2.29,13.08,4.42,4.57,2.55,9.04,5.31,14,7.06,8.36,2.96,18.06,1.61,24.65-4.55,14.13-13.18,8.28-37.85-10.69-42.28l3.59,8.81c3.89-9.08,11.11-14.81,16.75-22.62,6.85-9.48,6.45-20.82,4.02-31.78-1.67-7.54-13.24-4.35-11.57,3.19,1.99,8.96,2.03,16.87-4.09,24.06-5.79,6.8-11.88,12.72-15.47,21.1-1.44,3.37-.57,7.84,3.59,8.81,14.72,3.44,11.59,26.81-3.78,24.71-10.49-1.44-18.39-10.82-29-12.58-5.24-.87-11.48-.13-15.75,3.33-3.2,2.6-5.7,6.89-7.37,10.64-5.98,13.4-.43,26.74,10.93,35.07,9.01,6.6,22.8,11.11,33.65,6.66,6.17-2.53,9.93-8.1,10.12-14.77.12-4.26-1.8-8.05-2.06-12.18-.57-9.08-.49-18.24-.73-27.34-.1-3.75-3.77-7.01-7.6-5.79-13.76,4.39-17.97,22.57-22.91,33.97-.3.69-.91,2.05-1.41,2.96-.24.44-.54.87-.76,1.32-.41.88.12.21-.17.24.84-.08,1.21-1,2.79-1,.91,0,1.88.63,2.67.9,1.49.52-.18.13.12.02.5-.17.28.79-.16-.62-.05-.16-.3-.82-.53-1.54-1.36-4.3-1.77-8.18-5.71-10.93-2.7-1.88-5.95-2.91-9.13-3.62-3.48-.78-7.04-1.18-10.56-1.75-1.51-.24-3.02-.5-4.51-.86-1.29-.31-2.74-.89-3.02-.95-.58-.11-.18-.22-.16.01,0,.02.55,1.93.51,1.89.13.16-.09-.06.11-.3.48-.58.79-1.36,1.25-1.97,3.33-4.4,7.37-8.89,12.65-10.85,9.77-3.63,20.76-.52,30.88-1.44,5.06-.46,11.38-1.52,15.41-4.9s3.37-10.88,3.42-15.58c.06-5.12-.36-10.95,3.95-14.56,2.7-2.26,5.14-3.36,6.9-6.62,1.53-2.82,2.31-5.93,2.56-9.12.96-12-7.54-24.54-2.85-36.17l-7.38,4.19c8.8,2.82,17.44,7.33,22.78,15.14,4.46,6.52,6.26,14.31,6.55,22.11.7,18.28-4.83,36.3-9.39,53.79-1.99,7.65,8.78,10.21,11.57,3.19,5.56-13.99,8.86-28.58,10.18-43.57.46-5.18-6.88-7.92-10.24-4.24-9.1,9.97-13.06,22.65-15.57,35.66s-3.53,26.87-9.8,38.59c-12.24,22.84-43.9,26.82-63.54,11.75-11.72-9-18.58-22.63-21.38-36.9-1.49-7.57-13.05-4.37-11.57,3.19h0Z"/><path class="cls-17" d="m47.22,387.03c13.22,15.64,19.96,35.7,19.41,56.1h12c.3-15.71-3.94-31.56-13.42-44.24-4.8-6.42-13.16-16.2-22.16-15.91-5.22.17-8.31,4.99-7.09,9.89,1.16,4.63,4.87,8.64,8.02,12.02,6.56,7.03,14.18,13.07,21.8,18.89,4.94,3.77,11.14,5.14,17.13,6.6,6.58,1.6,13.26,2.68,19.99,3.46,29.61,3.43,59.39-.71,88.88-3.33l-4.24-1.76c7.38,9.06,20.07,9.36,30.79,9.47,7.77.08,19.55-1.45,19.89,8.49.19,5.41,8.66,8.86,11.18,3.03,5.13-11.87,12.33-23.79,24.36-29.64,9.34-4.54,20.09-4.07,29.91-1.5,25.25,6.6,47.43,24.22,66.79,40.99,10.37,8.99,20.3,18.47,30.1,28.08,2.42-3.14,4.85-6.28,7.27-9.42-34.31-23.01-65.22-50.68-92.03-82.1l1.76,4.24c-.15,2.34-1.33.56.71.91,1.01.17,2.88-.39,3.9-.5,3.16-.35,6.67-.54,9.55-2.06,5.81-3.07,9.63-9.37,9.25-15.92-.77-13.02-15.32-22.74-27.52-22.29l1.6,11.79c21.63-5.47,43.58-9.49,65.76-11.91,5.28-.58,8.96-8.29,3.03-11.18-14.66-7.15-30.27-3.96-44.87,1.67s-28.7,14.28-44.12,15.25c-8.09.51-13.44-2.05-19.84-6.7s-13.96-7.93-21.5-5.26c-3.57,1.26-6.39,3.76-8.57,6.8s-2.76,8.4-5.92,9.55c-3.66,1.33-8.35-.29-11.87-1.36-5.11-1.55-10-3.19-15.27-4.21-48.01-9.34-96.12,4.14-143.92,8.08-4.95.41-8.21.61-11.75,4.3-1.91,1.99-3.72,4.21-5.01,6.65-2.1,3.96-2.94,8.55-1.49,12.87,2.93,8.78,12.99,12.81,21.29,14.51,20.51,4.19,56.55-.07,60.89-25.8l-10.03,2.65c9.99,12.21,24.69,16.02,39.92,15.76,3.71-.06,7.41-.32,11.11-.6,3.07-.24,6.57-1.06,9.61-.73,2.79.31,6.77,3.88,10.03,5.49,3.85,1.9,7.89,3.49,12.03,4.61,33.93,9.18,67.63-9.63,100.21-16.2,7.56-1.53,4.36-13.1-3.19-11.57-15.85,3.2-31.06,8.73-46.63,12.99s-31.05,7.35-46.44,3.41c-3.97-1.02-7.8-2.44-11.42-4.36-3.36-1.78-6.73-5.3-10.31-6.3-2.88-.8-6.78.1-9.74.34-3.46.27-6.93.57-10.4.75-13.91.74-26.95-.65-36.29-12.07-2.74-3.34-9.31-1.62-10.03,2.65-.96,5.67-4.03,9.4-9.02,12.36-5.43,3.22-11.82,4.9-18.07,5.63-6.71.78-13.67.65-20.11-.81-2.68-.61-5.65-1.54-7.37-2.45-1.01-.53-2.03-1.09-2.94-1.79,1.04.8-2.16-2.27-1.06-1.05-.21-.23-1.29-1.93-.47-.61-.16-.26-.41-1.76-.33-.97s-.03-.79.03-1.07c-.3,1.33.11-.47.29-.9.33-.79-.16.16.45-.96.37-.67.77-1.33,1.22-1.95.91-1.23,2.64-2.91,3.99-4.15l-4.24,1.76c28.12-1.95,55.83-7.37,83.86-10.11,14.11-1.38,28.33-2.1,42.5-1.22,6.59.41,13.15,1.17,19.64,2.43s11.93,3.44,18.01,4.99c4.8,1.22,10.06,2.02,14.94.75,2.04-.53,4.01-1.44,5.73-2.65,3.25-2.3,4.06-4.81,5.53-8.32,1.17-2.78,2.9-6.05,6.28-6.08,4.6-.05,8.73,3.95,12.12,6.51,14.94,11.31,34.81,5.61,50.47-.76,16.35-6.65,38.16-20.08,56.02-11.38l3.03-11.18c-23.25,2.53-46.27,6.61-68.95,12.34-6.49,1.64-5.23,12.04,1.6,11.79,5.53-.2,11.36,2.76,14.26,7.57,3.1,5.13-.38,8.07-5.53,8.71-5.73.71-12.51.94-15.51,6.79-4.03,7.87,5.83,15.1,10.56,20.31,25.08,27.59,53.59,51.96,84.56,72.72,5.72,3.83,12.08-4.71,7.27-9.42-20.04-19.65-40.8-39.03-64.42-54.35-20.9-13.56-48.8-26.88-73.75-16.51-15.42,6.41-25.4,20.47-31.84,35.36l11.18,3.03c-.31-8.88-4.57-15.86-13.2-18.69-7.98-2.62-16.88-1.56-25.13-1.95-3.64-.17-7.53-.46-10.93-1.92-1.29-.56-2.44-1.29-3.47-2.24-2.74-2.54-4.36-3.52-8.3-3.17-15.34,1.39-30.65,3.11-46.04,3.92s-31.24.84-46.59-1.72c-7.11-1.18-16.11-2.33-22.46-5.92-5.64-3.19-10.9-8.41-15.68-12.78-3.03-2.77-6.07-5.66-8.63-8.88-.45-.56-.91-1.25-1.57-2.26-.25-.39-.42-.83-.67-1.21-.35-.53-.16.85-.02-.22-.21,1.65.22,3.05-2.21,4.71-.81.55-1.34.41-1.91.59-.75.23-.57.21-.34-.02.07-.07.89.28.99.32-.93-.41-.6-.29.05.07,1.02.56,2,1.15,2.95,1.82,4.36,3.06,9.63,9.72,12.72,15.46,5.06,9.39,7.07,19.92,6.87,30.51-.15,7.73,11.79,7.72,12,0,.64-23.7-7.66-46.53-22.93-64.59-4.99-5.91-13.44,2.62-8.49,8.49h0Z"/><path class="cls-5" d="m1000.16,389.86c-11.76,29.56-38.17,47.73-64.43,63.49-13.25,7.95-26.74,15.56-39.33,24.53-6.37,4.53-12.55,9.38-18.24,14.75-5,4.72-11.57,10.54-14.04,17.05-10.54,27.77-10.78,60.39-5.09,89.22,2.92,14.78,7.9,29.48,15.75,42.4,7.13,11.74,17.64,23.95,30.7,29.15,8.94,3.56,18.58,4.7,27.68,7.73,3.36,1.12,7.89,2.78,10,5.29,3.25,3.87,5.31,9.85,7.78,14.29,8.04,14.43,16.49,28.67,25.89,42.26,10.53,15.23,23.28,33.58,40.63,41.74,30.7,14.44,43.3-24.52,47.9-47.15,8.75-43.02,8.79-88,8.74-131.72-.03-21.84-.43-43.67-.81-65.51-.39-22.28.76-44.69-2.01-66.84s-8.47-46.47-18.84-67.53c-5.65-11.49-15.74-29.13-30.63-29.18-17.23-.06-23.37,22.85-26.15,36.02-3.34,15.83-4.55,32.15-5.13,48.29-.18,5.14-.22,10.28-.33,15.43-.11,5.5-1.51,10.89-2.65,16.26-1.72,8.09-3.61,16.15-5.78,24.13-3,11.02-6.33,22.21-11.55,32.41-.86,1.69-1.78,3.35-2.78,4.95-.44.7-.9,1.39-1.37,2.07-1.02,1.5-.06.24-1,1.33-.78.9-1.6,1.73-2.47,2.54-1.04.97.97-.64-.34.26-.44.3-.91.54-1.38.79.18-.1,1,.12-.18-.01-1.1-.12.57.39.29-.01.02.03-2.08-.2-.46.05,1.45.23-.54-.08-.66-.26.27.41,1.14.86.27.04s-.28-.2-.01.06c-.56-.53-2.27-2.65-1.23-1.17-.61-.88-1.15-1.79-1.67-2.72-.29-.51-.52-1.05-.76-1.58.41.88-.11-.2-.41-1.09-.93-2.72-1.68-5.47-2.23-8.29-.69-3.55-.86-5-1.12-9.16-.24-3.8-.27-7.62-.12-11.43.34-8.39,1.38-15.35,3.59-23.61,4.15-15.51,12.18-30.98,25.35-40.06,6.94-4.78,14.57-7.76,23.03-8.82l-4.24-1.76c8.94,9.85,16.19,21.88,15.59,35.6-.51,11.73-6.9,22.59-14.22,31.42-18.97,22.89-45.12,39.09-69.25,55.91-12.28,8.56-24.83,17.18-35.57,27.67-2,1.95-2.14,4.89-.94,7.27,8.4,16.69,21.63,34.77,41.08,38.88,14.18,2.99,28.54-2.29,38.29-12.84,10.05-10.89,14.95-25.94,12.74-40.63-2.63-17.45-15.6-30.88-30.96-38.49-4.75-2.35-11.03-5.81-16.41-5.94-3.73-.09-7.71.56-11.35,1.28-5.27,1.05-10.77,3.09-14.6,7.01-7.21,7.39-4.72,18.02.73,25.61,14.25,19.84,43.01,32.94,67.28,31.27,14.24-.98,26.87-7.41,35.35-19.01,4.88-6.68,8.05-14.61,10-22.61,1.27-5.19,1.28-10.84,2.81-15.89,1.85-6.1,5.7-12.33,10.14-16.87s9.56-7.14,15.95-6.73l-5.79-7.6c-11.5,48.93-31.84,95.28-60.03,136.88l8.21-2.15c-12.5-7.04-17.65-23.75-17.89-37.26s4.74-27.71,19.77-28.21l-4.24-1.76c14.75,12.39,21.08,33.25,22.09,51.9.88,16.22-1.86,38.2-16.92,47.34-9.31,5.65-20.62,3.95-30.6.48-5.68-1.98-10.12,6.06-5.84,10.03,15.93,14.76,31.85,29.52,47.78,44.28,2.3,2.13,6.22,2.46,8.49,0,22.65-24.67,31.05-60.52,21.28-92.63-2.24-7.37-13.83-4.23-11.57,3.19,8.52,27.97,1.63,59.36-18.19,80.95h8.49c-15.93-14.76-31.85-29.52-47.78-44.28l-5.84,10.03c17.56,6.11,37.42,4.89,49.79-10.44,11.45-14.19,14.18-34.04,12.73-51.72-1.54-18.69-7.46-38.04-20.02-52.35-3.34-3.81-6.65-7.39-12.07-6.88-4.95.47-9.81,1.85-13.98,4.63-7.99,5.32-12.63,14.24-14.34,23.52-3.85,20.85,3.21,48.5,22.82,59.54,2.96,1.67,6.36.57,8.21-2.15,28.71-42.38,49.53-89.92,61.24-139.75.93-3.98-1.82-7.34-5.79-7.6-12.41-.81-22.48,6.72-29.45,16.34-3.57,4.92-6.79,10.85-8.43,16.73-1.23,4.39-1.23,9.25-2.24,13.75-2.84,12.63-8.88,24.59-20.23,30.52-9.09,4.75-20.55,4.69-30.77,2.29-11.01-2.59-20.94-7.28-30.12-14.19-2.73-2.05-7.07-6.01-9.79-9.47.69.88-.8-1.15-1.09-1.59-.58-.9-1.1-1.83-1.6-2.77-.31-.58-.49-1.08-.1-.13-.15-.38-.32-.76-.43-1.15-.24-.81-.46-1.61-.62-2.44.21,1.12-.01-.05.06-1.1s-.24,1.29-.04.22c.07-.39.18-.78.31-1.16.4-1.12-.22.52-.07.16.12-.29.32-.69.53-.92.81-.85-.33.34-.06.05.3-.32.59-.69.94-.96.52-.41.84-.64.06-.09.41-.29.85-.6,1.3-.83.42-.22.83-.45,1.25-.66,1.19-.6-.29.06.68-.3,2.41-.89,4.93-1.48,7.47-1.85,3.38-.5,6.66-.28,10.38,1.13,4.43,1.68,8.7,3.82,12.7,6.37,6.1,3.89,11.41,9.01,14.92,15.38,5.69,10.33,5.26,22.67.14,32.68-4.91,9.59-13.98,17.33-23.93,18.57-13.86,1.73-25.97-8.09-33.86-19.16-3.26-4.59-6.05-9.48-8.57-14.5l-.94,7.27c20.91-20.43,47.45-34.79,70.62-52.44,21.71-16.54,47.83-37.84,51.54-66.8,1.77-13.84-2.83-27.38-10.82-38.61-2.27-3.2-4.85-7.18-7.88-9.73-3.22-2.72-7.54-1.44-11.32-.65-5.33,1.12-10.51,2.99-15.38,5.43-18.36,9.19-30.09,27.41-36.14,46.51-5.51,17.4-7.15,36.73-3.8,54.72,1.92,10.32,8.36,28,22.26,23.72,6.92-2.13,11.58-8.97,14.92-14.96,6.3-11.3,10.25-24.02,13.68-36.43,2.58-9.36,4.77-18.84,6.74-28.35,1.2-5.8,2.4-11.38,2.45-17.32s.19-11.83.44-17.75c.72-16.88,1.98-34.15,6.69-50.46,1.39-4.82,2.77-8.79,5.33-12.96,1.31-2.14.97-1.63,2.63-3.45.33-.36,2.09-1.7.75-.76.6-.42,1.21-.79,1.86-1.13-.62.34-.46.09.64-.18,1.87-.47-.94.1.71-.13.55-.08,2.47.28.57-.07.69.13,1.34.31,2.01.51.37.11,1.26.52-.14-.1.37.16.75.34,1.11.54.63.36,1.25.72,1.86,1.12.25.16.5.35.74.52,1.27.91-.95-.81.27.23.77.66,1.52,1.34,2.23,2.06,3.17,3.18,4.69,5.37,7.11,9.27,2.75,4.41,5.1,9.05,7.22,13.79,5.08,11.39,8.61,23.54,11.32,35.69,3.14,14.15,4.97,28.55,5.47,43.03.41,12.01-.08,24.06.11,36.09.39,24.32.91,48.65.96,72.98.05,26.43-.33,52.89-2.12,79.26-1.47,21.64-3.51,43.7-9.57,64.62-2.29,7.92-4.19,13.38-8.72,20.16-.26.39-1.58,2.11-.65.94-.49.61-.99,1.2-1.52,1.77-.56.61-3.45,3.03-2.16,2.11-1.07.76-2.16,1.41-3.34,1.97.74-.36.48-.08-.58.16-.64.14-1.28.33-1.92.46-1.29.27,1.47-.1.15-.02-.31.02-.62.06-.92.05-.63-.02-1.26-.02-1.89-.04-1.25-.04,1.09.32-.75-.1-.82-.19-1.63-.37-2.43-.62-2.47-.76-1.55-.41-3.27-1.34s-3.4-1.91-5.01-3.02c-7.6-5.24-15.36-14.09-21.6-22.07-10.38-13.28-19.32-27.73-27.8-42.28-2.54-4.36-5.03-8.75-7.47-13.16-2.67-4.81-5.01-11.6-8.75-15.63-7-7.54-20.23-9.55-29.7-11.83s-16.7-5.01-23.73-11.39c-5.8-5.27-10.51-11.47-14.4-18.24-8.46-14.73-13.09-31.71-15.13-48.5s-1.85-34.68,1.34-51.59c1.27-6.73,2.44-15.95,6.59-21.46,5.04-6.69,11.63-12.5,18.11-17.74,27.26-22.01,60.76-34.9,86.96-58.44,13.14-11.81,23.36-26.03,29.89-42.46,2.85-7.18-8.75-10.29-11.57-3.19h0Z"/></g><g id="Layer_2"><path class="cls-6" d="m-17.44,341.06c85.82-3.1,1551.5-12.27,1562.41,4.37,42.02,51.04-600.26-1.3-601.02,11.45-198.9.77-770.94,3.07-961.61,5.18,0,0,.22-20.99.22-20.99Z"/></g><g id="Layer_3"><path class="cls-7" d="m48,355.96c-42.25,65.08,44.08,60.15,20,128,14.95-15.3,3.72-54.55,34-46,29.13-7.55,57.8-2.49,88-3,7.3-3.91,21.62-1.58,29,1,33.48-5.62,26.38,13.81,25.99,37,6.87,1.72,5.65-33.32,7.01-36,54.42-51.66,102.16,6.6,142,49,12.59-7.1-61.89-69.33-68-73.01,23.74-3.93,22.45-33.4,16-52,8.65-.03,80.09-20.5,43.49-19.53-15.72,11.22-52.86,11.61-72.49,16.54-20.17-8.07-44.52-2.88-64,8.99-15.03-8.63-16.61,10.97-27-7,0,0-19,10-19,10-33.42-29.4-23.58,17.99-52-14-14.55-2.66-11.46,7.48-11,18-17,3.95-22.56-25.7-39-21-2.8,10.07,3.49,13.78,1,23-18.4-6.62-14.59,4.61-33-2-11.76,4.67-16.36-9.39-21-18Z"/></g><g id="Layer_4"><path class="cls-7" d="m504,425.96c-2.81,3.33-9.74,9.8-14,11,2.12,8.67-9.84,12.86-9,22-5.98,6.13-21.03,19.99-19,30-8.24,9.61-9.64,93.97-1,50,2.89-19.41,3.62-48.26,17.49-63.27,4.92,4.75,9.17,13.45,6.5,20.27,2.15,9.04,13.93,14.77,12,24,41.44,13.89-30.38,46.94-2.01,40,0,0,21-24,21-24,19.6-3.88,5.54,12.57,4,23,20.62-4.77-3.95-25.8,27-21,22.31-5.4,49.29-28.19,52.21-52,12.58-25.18,19.06-60.45,11.79-88,12.66-9.04,15.22-17.38,14,4.76,4.97,3.17,3.84-10,5-11.76,0,0-6-9-6-9,0,0-21,11-21,11-46.2-53.46-22.23-7.12-37.34,20.73-10.78,2.21-14.36,9.85-6.66,18.27-16.95,5.46-9.85,7.73-6,20-28.91,6.48-19.56-34.82-49-26Z"/><path class="cls-7" d="m762.14,374.96c17.86,23.42-17.49,34.68-30.14,47-19.44,13.62-52.27,147.6-60,170,11.17,19.5,59.75,12.87,75,1,11.64-13.06,24.11-45.11,28-62,28.59-47.57,49.19-62.63,14-117-14.88-14.28-19.41-20.92-14.99-42-3.84,1.16-16.69-6.97-11.86,3Z"/></g><g id="Layer_5"><path class="cls-7" d="m944,346.96c6.13-23.5,27.3,49.7,31.01,49,0,0,13.99-7,13.99-7,25.89,6.42,13.09-.68,31-11,0,0,29.09-14,29.09-14-8.82-2.55-31.65-10.22-35.08-20,6.23-2.63,8.06-4.45,9,4,8.98,3.32,41.66,23.77,51,19-7.87,23.15,28.48,118.33,23.01,145-3.24-4.36-5.56-26-6.15-31.5,0,0-17.85-81.5-17.85-81.5-1.04,5.31,10.81,110.71,4,112-1.89-11.12-5.64-104.43-6-118-26.92,40.92,14.69,117.12,10.99,166-1.09,61.32-1.8,307.16-107,210-2.62-8.25-20.62-37.39-16.99-46.01-2.94.64-29.12-60.43-31-63-22.34-14.58-54.14-44.14-53-72.11-17.6-23.29.41-112.83,32-111.89,3.48.1,78.44-73.1,83-65,6.99-19.61,1.66-15.6-14-9-4.91-4.51-27.39-48.37-31-55Z"/></g><g id="Layer_6"><path class="cls-20" d="m1477.43,311.83c-2.37,55.49-68.26,80.76-115.32,64.73-13.53-4.61-25.9-13.03-34.55-24.49-4.59-6.09-15.02-.11-10.36,6.06,36.14,47.89,117.33,46.24,154.71.28,10.85-13.34,16.78-29.42,17.51-46.58.33-7.72-11.67-7.71-12,0h0Z"/><path class="cls-18" d="m1364.73,294.33c10.62-5.27,24.3-4.54,35.51-1.84,9.63,2.32,22.82,7.28,25.96,17.83,1.56,5.23-.56,10.64-3.38,15.15,0,0-2.16,2.63-1.02,1.64s-1.59.74-1.5.69c-1.28.69-2.59,1.35-3.93,1.93-3.28,1.41-6.75,2.44-10.23,3.22-12.7,2.86-27.16,1.87-38.81-4.25-13.75-7.22-19.98-20.76-17.38-36.02,1.29-7.55-10.28-10.8-11.57-3.19-3.06,17.96,2.05,35.04,17.13,45.98,13.78,10,32.12,12.46,48.63,10,8.28-1.23,16.86-3.87,24.01-8.32,6.71-4.17,10.53-15.31,10.58-22.95.1-15.93-14.17-26.02-27.66-30.98-16.24-5.96-36.59-7.09-52.39.75-6.92,3.43-.85,13.79,6.06,10.36h0Z"/><path class="cls-21" d="m1237.08,275.26c4.11-9.75,15.45-14.92,25.17-16.89,9.11-1.85,21.43-1.31,27.72,5.6,6.47,7.11,2.63,19.66-4.37,26.31-8.18,7.76-20.32,12.24-31.55,12.08-5.14-.07-10.59-1.27-14.05-4.76-4.18-4.22-4.37-10.91-3.36-16.67,1.33-7.55-10.23-10.79-11.57-3.19-1.42,8.07-1.51,16.82,3.01,24.02,3.82,6.08,10.18,10.02,17.11,11.58,14.93,3.36,31.93-1.55,44.03-10.55s20.83-26.47,13.28-41.56c-6.43-12.85-22.67-16.66-35.87-15.5-17.11,1.5-34.19,9.9-41.12,26.36-1.27,3.01,1.37,6.57,4.19,7.38,3.45.99,6.13-1.22,7.38-4.19h0Z"/><path class="cls-3" d="m1718.32,85.87c-.67-3.51-1.28-7.04-1.79-10.58-.15-1.07-.09-.61-.19-1.43-.11-.86-.21-1.72-.31-2.58-.17-1.53-.32-3.06-.44-4.59-.39-4.88-.55-9.8-.22-14.69.06-.95.16-1.9.26-2.84.15-1.53-.17.96,0-.09.08-.47.15-.94.23-1.41.27-1.53.63-3.06,1.12-4.54.1-.3.21-.59.31-.89.33-.98.49-.12-.18.37.31-.23.57-1.18.77-1.54.19-.34,1.15-1.65.37-.66s.26-.19.48-.45c.91-1.05-1.26.9-.21.18,1.25-.86-1.38.42-.33.12,1.35-.39-1.69.09-.53.05,1.5-.06-1.25-.12-.45-.09.17,0,.38.11.54.16.56.2-1.46-.89-.83-.34.15.13.82.61,1,.62-.29-.03-1.34-1.22-.63-.45.14.15.31.28.45.43.15.15.29.33.44.48.78.77-.34-.48-.32-.45.53.94,1.18,1.78,1.67,2.75.13.26.24.52.37.78.55,1.11-.45-1.25-.15-.37.24.69.51,1.37.73,2.06.44,1.41.79,2.84,1.07,4.29.07.38.14.76.2,1.14.04.25.24,1.66.09.55s.03.31.06.6c.05.48.09.96.13,1.44.35,4.55.13,9.12-.45,13.64.18-1.4-.05.25-.12.72-.1.63-.21,1.27-.33,1.9-.24,1.31-.51,2.61-.82,3.91-.69,2.97-1.54,5.9-2.49,8.79-1.02,3.08,1.18,6.55,4.19,7.38,3.26.9,6.36-1.1,7.38-4.19,3.24-9.79,5.25-20.32,4.73-30.67-.35-6.87-1.6-14.57-5.6-20.36-3.52-5.1-9.75-8.83-15.82-5.4s-7.84,10.53-8.72,16.63c-2.05,14.21.06,28.83,2.74,42.82.61,3.18,4.44,5,7.38,4.19,3.33-.92,4.8-4.19,4.19-7.38h0Z"/><path class="cls-1" d="m1472.6,24.83c-27.81-14.95-49.54,20.68-64.43,38.43-2.02,2.41-4.09,4.8-6.3,7.05-1.09,1.12-2.33,2.12-3.4,3.25-.4.42-.96.7-1.34,1.13-.08.09,2.82-.14.51-.05-6.44.27-12.73.28-19.17-.19-14.03-1.03-28.2-3.03-42.25-1.2-15.59,2.04-28.13,10.09-32.83,25.63-2.24,7.41,9.34,10.57,11.57,3.19,7.59-25.08,43.62-17.13,62.96-15.67,5.95.45,11.96.83,17.91.39,2.93-.22,5.44-.46,7.91-2.16s4.58-3.76,6.62-5.84c9.34-9.55,16.79-20.79,25.82-30.63,7.44-8.11,18.57-19.32,30.37-12.98,6.8,3.66,12.87-6.7,6.06-10.36h0Z"/><path class="cls-10" d="m1396.81,82.49c.3,2.44.52,4.89.55,7.35,0,.77,0,1.53-.03,2.3-.01.24-.23,2.65-.1,1.72-.18,1.23-.48,2.45-.9,3.62.53-1.46-.13.15-.32.47-.53.89.94-.57.06-.07-1.39.79.85-.41-.02.06-.96.52,1.35-.31.36-.13-1.53.27,1.23.05.19,0-1.54-.07,1.14.37.15.05-1.71-.55.71.72-.87-.34s.4.74-.92-.71c-.28-.3-.56-.6-.84-.9-.14-.15.62,1.12-.02-.08-.23-.42-.48-.84-.72-1.25-.63-1.03.38,1.27.03.11-.14-.45-.26-.93-.41-1.38-.45-1.32-.02.19-.02,0,0-.42-.05-.83,0-1.25.12-1.09-.15,1.54.09-.17.07-.49.68-1.3-.08.05.26-.46.5-.9.8-1.33-.93,1.33-.02.05.32-.19,1.25-.89-.66.31.44-.35,1.94-1.16,4.21-2.04,7.41-2.45l-4.24-1.76c.58.45,1.15,1.23,1.76,1.6-.27-.16-.36-.64-.17-.18.26.64.01-.36.01-.34-.04-1.25-.5,1.71.11-.23-.11.34-1.25,1.82-.3.66-.41.5-.87.93-1.33,1.37-.9.85.8-.48-.34.28-.56.37-1.14.7-1.71,1.04-.29.16-.59.31-.89.45.68-.27.71-.29.08-.04-.44.15-.91.26-1.34.42-1.63.62.38-.07-.54.15-.98.23-1.5-.59-.28.1-1.01-.57.97.84.21.13,1.18,1.11.85.96,1.46,1.83.08,1,.1,1.14.06.45.03-.65.01-.58-.07.19.13-.79.41-1.54.69-2.29l-1.54,2.65c.34-.33.68-.64,1.04-.95-.35.24-.36.25-.05.03.99-.98,1.06.02.31-.36.59.29-1.46-.08-1.76-.16-1.18-.32-1.77-1.1-2.52-1.94-.38-.42-.62-.91-.4-1.41-.11.25.18.81-.01,1.01.19-.21.39-1.34-.01-.12-.14.44-.26.9-.39,1.34-.42,1.43.49-.72-.12.26-.21.34-.41.7-.62,1.05-.3.51.48-.05-.03,0-.17.18-.35.35-.54.51.71-.52.87-.66.49-.43.4-.04.37-.11,1.26-.26-1.05.18,1.35.34.18.01.96.27.39-.24.76.42-.08-.15-1.36-1.5-1.04-1.05-4.07-5.6-12.08-2.2-10.97,4.62.75,4.59,2.23,9.88,6.63,12.27s8.99.34,12.18-2.85c5.95-5.95,9.76-15.39,10.61-23.67.33-3.23-2.99-6-6-6-3.52,0-5.67,2.76-6,6,.14-1.4-.04.26-.11.57-.14.61-.28,1.22-.44,1.82-.37,1.33-.81,2.65-1.32,3.94-.89,2.23-2.33,4.98-3.84,7.2-.54.79-.71,1.03-1.77,2.05-.33.29-.25.25.24-.13-.19.14-.38.26-.58.37-1.01-.09,2.1-.26,1.14-.25-1.42.02,2.99.93,2.18.83-.03,0,.1.36-.08-.15-.45-1.26-.97-3.49-1.25-5.18l-10.97,4.62c4.52,6.22,12.45,9.35,18.25,2.65,3.8-4.38,6.41-12.85,1.81-17.61-2.77-2.86-6.95-2.8-10.28-.99-4.13,2.25-6.78,5.94-6.99,10.69-.36,8.34,7.65,11.54,14.68,9.47,6.06-1.78,12.48-6.49,13.79-13,.81-4.06-.66-8.13-3.63-10.97-3.97-3.81-9.23-2.69-14-.96-6.42,2.34-11.9,7.1-12.38,14.3-.34,5.11,2.02,10.35,5.74,13.82,4.72,4.4,12.04,6.08,17.22,1.4,6.48-5.86,5.8-16.61,4.85-24.43-.39-3.22-2.48-6-6-6-2.94,0-6.39,2.76-6,6h0Z"/><path class="cls-8" d="m1397.33,95.65c4.28,65.36,46.88,115.77,73.6,172.88,7.43,15.89,13.26,32.49,16.39,49.78l11.57-3.19c-10.91-27.63-28.08-51.65-44.83-75.95-8.24-11.94-16.33-24.02-23.29-36.77-3.84-7.03-6.8-13.62-8.73-21.39s-3.9-15.84-5.93-23.73c-4.76-18.54-10.09-36.93-17.2-54.72-2.79-6.99-14.06-4.29-11.57,3.19,18.75,56.31,34.76,117.63,78.99,160.1,5.57,5.35,14.07-3.12,8.49-8.49-42.67-40.97-57.83-100.5-75.91-154.8l-11.57,3.19c6.18,15.45,11.02,31.37,15.3,47.44,4.17,15.66,6.42,32.74,13.63,47.31,12.93,26.14,31.12,49.12,47.05,73.41,9.23,14.08,17.81,28.71,24.01,44.4,2.82,7.15,12.97,4.5,11.57-3.19-11.23-61.87-55.73-109.67-77.66-167.29-6.38-16.77-10.73-34.25-11.9-52.18-.5-7.67-12.51-7.72-12,0h0Z"/><path class="cls-9" d="m1398.21,101.13c5.95-3.4,18.74-10.08,16.39-18.94-2.05-7.72-11.63-6.35-17.09-3.84-6.52,2.99-11.27,9.3-11.4,16.59-.08,4.53,1.66,11.49,5.89,13.74s9.97,1.5,12.47-3.02c3.44-6.24.18-16.21-4.57-20.96-3.46-3.46-8.82-4.23-12.57-.74s-5.06,9.58-4.79,14.55c.28,5.13,2.68,10.3,7.89,11.98,4.41,1.42,8.93-.19,12.35-3.08,7.88-6.65,8.04-20.11.67-27.14-3.4-3.25-8.4-3.68-11.86-.26-2.62,2.59-3.32,6.65-3.61,10.15-.55,6.64,2.26,17.88,11.33,15.59,2.01-.51,3.67-1.66,5.16-3.06,5.62-5.32-2.88-13.8-8.49-8.49-.51.48-1.1.55.18-.07-.7.34-.82.2.5-.1-.94.21,1.38,0,1.78.11,1.08.3,1.02.35,1.81,1.09-.43-.4-.56-.84.37.59-.11-.16-.21-.32-.31-.5-.57-1.05.28,1.38.14.37-.08-.54-.31-1.16-.45-1.7-.4-1.52,0,1.32-.04-.32-.03-1.35.04-2.68.05-4.03.01-1.2-.39,1.43-.03.31.06-.19.07-.41.12-.61.15-.55.37-1.12.48-1.67s-.73,1.28.04.1c-.3.45-1.39,1.39-2.14,1.58-.81.2-1.68.21-2.49-.01.88.24-1.5-.81-.66-.3.77.47-1.3-.42-.37-.29.19.03.55.6.68.73-1.1-1.11.19.37.52.94.27.46.58.95.78,1.45-.2-.47-.14.36-.15.19.03.49-.11,3.25.09,1.92-.12.81-.34,1.59-.59,2.38-.45,1.45.61-1.02-.12.25-.21.37-.48.75-.67,1.13-.59,1.2.84-.82-.08.1-.28.28-.59.55-.85.84l-.29.25c.72-.54.82-.63.3-.28-.05.18-.79.42-.94.52,1-.65.97-.38.47-.23-.77.25-.99-.11.32.06-1.98-.25.94.43-.54.02.08.02,1.37.73.6.25-.85-.53,1.19,1.03,0-.04,1.04.93.52.62.16.07.73,1.1.23.82.15.36-.06-.41-.22-.86-.32-1.27.34,1.48.02-.05.03-.4,0-.42.16-2.63.08-2.08.1-.72.35-1.43.44-2.15.14-1.1-.32.72.31-.71s-.68.47.26-.41c-.78.74-1.74,1-2.35.99-1.23-.02-1.54-.22-.96-.09-1.39-.33-1.22-.55-.59-.18-2.05-1.19-.49-.62-.4-.26.03.1,1.08,1.25.31.29-.64-.8.58.99.78,1.36.17.31.3.66.47.96.56.96-.37-1.24-.04-.08.23.83.55,1.62.75,2.46.05.23.09.47.15.7.42,1.56.1-.81.03.11-.04.56-.05,1.3,0,1.87-.15-1.51.26-1.19.03-.52-.33.95.82-1.52.13-.34.71-1.22,1.93-1.82,3.35-1.91-.62.04-1.1-.31.49.11-1.55-.41.82.49-.27-.03l2.15,2.15c-.25-.47-.49-.94-.73-1.41-.47-.95.15.69-.22-.59-.26-.91-.51-1.8-.68-2.74.31,1.73.13-.68.11-1.28,0-.15-.34,1.29.02.01.11-.38.24-.77.33-1.15.25-1.08-.24.42-.1.2.21-.31.37-.68.55-1.01.16-.28.38-.53.54-.81-.48.83-.63.72-.02.09.49-.5,1.02-.94,1.51-1.43-.49.49-.97.65-.21.18.35-.22.69-.46,1.05-.67.26-.16.54-.29.8-.44.22-.13,1.41-.69.37-.21-.96.44.76-.26,1.16-.38.5-.15,1.19-.16,1.66-.38.21-.09-1.57,0-.64.1.25.03.62,0,.88-.02,1.33-.13-1.52-.4-.2,0-.69-.21-1.32-.57-2.02-1.45-.89-1.13-1.14-2.33-.78-3.9-.3,1.33.75-1.34-.04.07-.55.98.33-.34.18-.2-.33.3-.61.69-.93,1.01-.71.71-1.48,1.37-2.27,2-.69.55.74-.55-.03,0-.31.22-.61.44-.92.66-.59.42-1.19.82-1.8,1.22-1.66,1.08-3.36,2.09-5.07,3.07-6.7,3.83-.66,14.21,6.06,10.36h0Z"/><path class="cls-19" d="m1410.72,109.91c29.04-1.41,51.35-21.58,72.52-39.32,11.46-9.61,23.13-19.08,36.26-26.36,6.73-3.73,13.76-6.78,21.16-8.89s15.29-2.39,22.95-3.94c23.36-4.71,46.97-8.96,70.83-10.03,18.38-.83,42.29-.76,56.76,10.71,7.39,5.85,10.64,13.97,10.77,23.55.22,16.05-6.5,31.9-13.45,46.02-3.4,6.91,6.95,12.99,10.36,6.06,10.61-21.59,23.63-53.01,8.39-75.69-11.92-17.73-35.28-21.87-55.13-22.72-25.28-1.09-50.75,2.84-75.54,7.4-5.95,1.1-11.91,2.62-17.89,3.48-8.26,1.19-16.21,1.93-24.23,4.5-15.46,4.96-29.35,13.48-42.19,23.27-13.7,10.45-26.28,22.33-40.19,32.51-12.25,8.96-25.89,16.71-41.39,17.46-7.69.37-7.73,12.38,0,12h0Z"/><path class="cls-25" d="m1685.38,37.85c5.37,25.86-14.74,46.35-29.94,64.52-7.87,9.42-15.73,19.14-20.67,30.47s-7.98,24.16-12.19,36.18c-4.57,13.06-11.18,25.05-23.99,31.43-6.91,3.44-.84,13.8,6.06,10.36,25.97-12.93,29.82-43.03,38.8-67.56,9.25-25.27,31.96-41.94,45.35-64.73,7.95-13.53,11.37-28.37,8.15-43.87-1.57-7.56-13.14-4.36-11.57,3.19h0Z"/><path class="cls-22" d="m1594.74,210.74c7.34,51.31-38.3,107.14-91.76,100.69-7.65-.92-7.58,11.08,0,12,47.59,5.74,89.41-32.8,101.1-76.82,3.4-12.82,4.11-25.95,2.23-39.06-1.09-7.61-12.65-4.38-11.57,3.19h0Z"/><path class="cls-24" d="m1315.3,343.66c-25.81,7.4-51.57,1.79-77.28-3-5.47-1.02-9.6-2.01-14.89.02-3.85,1.48-7.41,3.47-10.85,5.74-6.86,4.53-13.23,10.28-20.78,13.65s-12.51.57-18.07-5.11c-3.56-3.65-6.69-7.58-8.37-12.3-3.64-10.16-1.53-21.28,2.22-31.36,10.22-27.53,32.2-51.01,52.86-71.15,19-18.52,39.67-36.36,62.35-50.27,7.78-4.77,14.06-11.83,20.44-18.3,7.53-7.65,14.97-15.42,23.01-22.56,15.85-14.07,34.15-24.53,55.99-21.87,7.65.93,7.58-11.07,0-12-43.63-5.33-71.5,33.79-99.78,60.01-4.03,3.73-8.91,6.29-13.45,9.37-5.25,3.56-10.37,7.32-15.4,11.17-12.76,9.77-25.02,20.18-36.7,31.21-23.19,21.91-46.7,47.12-59.19,76.93-4.96,11.84-7.92,24.91-5.14,37.68,1.24,5.71,3.81,11.14,7.3,15.8,4.77,6.38,11.17,13.34,19.03,15.58,9.43,2.69,18.64-1.67,26.38-6.78,4.21-2.78,8.2-5.87,12.37-8.69,3.38-2.29,7.77-5.66,11.94-6.18,1.4-.17,6.48,1.14,9.15,1.65,3.61.69,7.22,1.39,10.83,2.06,7.43,1.38,14.88,2.62,22.39,3.47,15.74,1.79,31.54,1.17,46.82-3.21,7.41-2.12,4.26-13.71-3.19-11.57h0Z"/><path class="cls-23" d="m1378.92,119.45c2.13,60.74,39.72,111.24,73.58,158.79,9.64,13.54,19.21,27.15,27.99,41.27,4.07,6.55,14.45.53,10.36-6.06-30.26-48.7-71.51-92.31-90.76-147.17-5.31-15.13-8.61-30.8-9.17-46.83-.27-7.7-12.27-7.74-12,0h0Z"/><path class="cls-14" d="m1519.36,304.97c-35.99-44.04-62.18-95.9-76.57-150.9-4.08-15.59-7.25-31.43-9.37-47.41-.43-3.24-2.45-5.96-6-6-2.91-.03-6.43,2.79-6,6,7.81,58.79,28.09,115.6,59.79,165.78,9.02,14.28,18.98,27.94,29.66,41.02,4.89,5.98,13.33-2.55,8.49-8.49h0Z"/><path class="cls-13" d="m1581.99,84.67c7.8-13.62,24.46-16.52,38.46-11.51,12.88,4.61,20.71,16.02,12.57,28.48-5.49,8.4-15.37,14.23-24.45,18.11-5.96,2.55-12.79,4.06-18.28,2.62-3.9-1.03-6.39-3.46-8.34-7.55-.47-.98.09.34-.28-.69-.23-.64-.44-1.29-.62-1.95-.2-.72-.72-3.37-.65-2.8-.35-2.64-.32-5.4.03-8.04,1.35-10.33,8.98-20.66,20.27-21.22,7.69-.38,7.73-12.38,0-12-15.8.78-27.77,12.48-31.33,27.57-3.13,13.25.02,29.86,13.23,36.49,7.56,3.8,16.42,3.31,24.33.91,11.57-3.52,24.23-10.58,32.17-19.76,6.8-7.85,11.4-17.9,8.83-28.42-2.13-8.7-8.9-15.64-16.55-19.88-20.09-11.15-47.78-7.29-59.75,13.6-3.85,6.71,6.52,12.76,10.36,6.06h0Z"/><path class="cls-12" d="m1523.52,174.05c-.81-25.16,42.09-24.42,50.55-5.18,4.54,10.31.93,24.93-8.02,31.72-8.35,6.34-19.96,7.24-29.64,4.08-13.63-4.45-19.25-16.84-17.49-30.51.98-7.64-11.03-7.57-12,0-2.11,16.41,5.28,32.52,20.54,39.76,13.61,6.46,30.97,6.18,43.69-2.32,13.92-9.3,19.9-27.92,15.19-43.96-4.82-16.39-22.62-24.37-38.56-24.64-18.54-.32-36.91,10.73-36.26,31.05.25,7.7,12.25,7.74,12,0h0Z"/><path class="cls-11" d="m1684.21,38.61c7.24,10.06,11.25,21.44,10.39,33.92-.79,11.42-5.84,22.41-12.76,31.4-7.49,9.74-17.52,17.5-28.61,22.72s-16.92,18.01-20.29,29.68c-1.81,6.28-3.12,12.68-4.73,19.01-1.57,6.17-2.99,12.92-7.19,17.82-8.8,10.26-15.53,21.48-18.49,34.79-2.27,10.23-2.1,20.81-4.25,31.04-2.41,11.46-8.8,18.68-17.75,25.85-21.81,17.49-49.33,43.63-79.88,36.13l3.59,2.76c-4.89-7.44-6.01-16.48-9.07-24.7-3.41-9.16-8.87-16.98-18.06-21.01-7-3.07-13.12,7.26-6.06,10.36,13.07,5.73,13.79,20.05,18.21,31.93,1.09,2.93,2.31,5.91,4,8.55,2.55,3.97,6.5,4.36,10.89,4.95,8.06,1.07,16.23.26,24.04-1.96,16.43-4.68,30.74-14.78,44.07-25.12,11.66-9.04,26.17-18.11,33.05-31.61,5.9-11.56,5.8-24.36,7.52-36.92.95-6.92,2.61-13.88,5.62-20.21,1.78-3.74,3.94-7.32,6.38-10.67,2.74-3.75,6.77-6.88,8.86-10.99,7.21-14.2,7.48-30.77,13.72-45.3,1.4-3.27,3.17-6.51,5.4-9.29,2.65-3.29,4.37-3.65,8.35-5.65,6.85-3.45,13.2-7.87,18.96-12.93,12.34-10.84,22.11-25.73,25.33-41.98,3.41-17.22-.66-34.43-10.88-48.63-4.47-6.21-14.88-.23-10.36,6.06h0Z"/><path class="cls-15" d="m1623.3,228.96c-3.26-26.67,9.43-53.68,32.59-67.55,6.62-3.96.59-14.34-6.06-10.36-26.46,15.85-42.29,47.17-38.53,77.92.93,7.57,12.94,7.66,12,0h0Z"/><path class="cls-16" d="m1653.59,156.73c15.93-15.93,31.85-31.85,47.78-47.78,5.47-5.47-3.02-13.96-8.49-8.49-15.93,15.93-31.85,31.85-47.78,47.78-5.47,5.47,3.02,13.96,8.49,8.49h0Z"/><path class="cls-4" d="m1409.95,112.83c51.31,12.83,74.05-43.44,109.58-67.22,27.45-18.38,63.27-9.43,93.9-17.01,16.34-4.05,31.81-11.01,48.24-14.73,14.24-3.23,29.77-3.09,41.56,6.66,22.42,18.52,18.41,55.93,14.43,81.31l10.03-2.65c-10.88-12.19-28.72-20.64-45.18-15.99-7.11,2.01-13.34,6.69-16.78,13.28-1.97,3.78-2.95,7.88-3.31,12.1-.44,5.06,1.34,9.74,1.35,14.65.01,8.36-9.61,15.89-15.25,20.76-7.38,6.38-15.28,12.58-20.31,21.11-1.19,2.01-2.57,4.45-3.11,6.73-.64,2.7-.13,5.85-.19,8.62-.13,6.29-.62,12.59-1.64,18.8-1.9,11.56-5.21,22.96-9.92,33.7-9.71,22.13-24.62,41.52-41.79,58.38-7.63,7.5-15.62,15.16-24.47,21.23-5.18,3.56-10.82,6.71-17.09,7.79-3.44.59-8.11-.07-10.96-1.53-4.27-2.18-7.08-4.88-10.28-8.97-7.09-9.06-12.1-21.51-16.37-32.67-5.75-15.05-10.73-30.39-17.26-45.13-5.34-12.03-12.03-24.49-23.22-32.02-5.58-3.75-12.58,5.09-7.27,9.42,28.99,23.63,39.1,62.41,29.3,98.02-9.1,33.07-35.87,61.09-71.84,60.91-4.68-.02-9.34-.45-13.93-1.33-2.45-.47-4.88-1.04-7.29-1.7-3.56-.97-6.14-3.25-9.22-5.23-12.63-8.14-26.9-13.23-41.77-15.2-29.25-3.89-58.51,3.9-86.53,11.48-14.03,3.8-28.15,7.14-42.25,10.67-7.63,1.91-16.25,2.41-23.31-1.64-12.93-7.42-14.74-25.38-13.05-38.69,1.05-8.3,3.64-16.55,7.61-23.9,1.92-3.56,4.14-6.98,6.8-10.03,2.11-2.41,4.35-4.36,5.96-7.13,4.86-8.35,10.04-14,16.9-21.57,21.91-24.17,46.3-46.27,71.39-67.08s51.74-41.54,81.18-55.99c5.41-2.65,9.96-4.65,15.82-6.45,2.49-.76,5-1.38,7.56-1.86,1.51-.28,2.59-.44,5.34-.39.64.01,3.29.29,1.61.03.93.14,1.82.37,2.73.59.43.11.85.28,1.27.43.34.12-1.1-.58-.06,0,.57.32,2.71,1.89,1.4.76.62.53,1.17,1.09,1.72,1.69-.75-.82.29.49.83,1.34.22.35.38.73.56,1.1-.02-.04-.24-.75.13.36.34,1.04.61,2.08.87,3.14.42,1.74.26.53.35,2.26.09,1.83-.07,3.63-.1,5.46-.07,4.54.4,9.06,1.12,13.53,1.42,8.84,4.3,17.37,7.73,25.61,7.83,18.8,18.45,36.23,28.62,53.82,15.75,27.25,41.19,67.26,18.56,97.61-5.98,8.02-14.21,14.06-22.73,19.12-6.63,3.94-.6,14.32,6.06,10.36,17.45-10.37,33.36-25.53,36.73-46.43,3.06-18.96-3.21-37.59-11.09-54.61-9.08-19.61-20.82-37.85-31.32-56.7-9.3-16.7-19.02-34.8-21.27-54.08-1.39-11.88,1.46-25.16-9.76-33.24-8.09-5.83-19.01-4.57-28.07-2.06-13.44,3.73-26.09,10.61-37.97,17.76-15.34,9.23-29.93,19.7-44.11,30.62-28.88,22.24-56.47,46.42-81.95,72.5-8.99,9.21-17.84,18.68-25.54,29.01-1.25,1.68-2.47,3.39-3.59,5.16s-1.93,3.26-2.82,4.14c-6.7,6.62-11.58,14.87-15.09,23.55-6.75,16.7-8.57,37.06-1.08,53.83,7.87,17.61,25.7,23.83,43.87,20.39,30.22-5.74,59.25-16.8,89.69-21.61,14.7-2.32,30.02-2.96,44.65.15,7.69,1.64,15.15,4.19,22.14,7.8s12.77,9.14,20.3,11.2c19.67,5.37,40.48,4.51,59.03-4.22,16.64-7.83,30.06-21.78,38.91-37.75,18.84-34,19.18-78.63-2.32-111.54-5.54-8.48-12.35-16.04-20.19-22.43-2.42,3.14-4.85,6.28-7.27,9.42,8.04,5.41,13.81,16.43,18.24,26.2,5.73,12.61,10.04,25.82,14.86,38.79,7.37,19.85,17.33,51.15,41.21,56.44,13.18,2.92,26.09-3.62,36.35-11.34,18.42-13.87,35.03-31.02,48.62-49.61s24.34-40.85,28.9-64.04c1.12-5.67,1.91-11.43,2.39-17.19.23-2.8.39-5.61.46-8.42.08-3.2-.46-6.19,1.1-9.05,4.59-8.44,12.85-14.32,19.94-20.51,7.63-6.66,15.29-14.5,17.39-24.79,1.18-5.78-1.38-11.36-.98-17.25.22-3.28,1.12-6.75,3.1-9.44,10.63-14.35,32.94-2.4,41.75,7.47,2.81,3.14,9.33,1.78,10.03-2.65,4.07-25.94,6.99-56.7-7-80.35-7.08-11.98-19-20.81-32.71-23.59-16.46-3.35-33.06,1.15-48.65,6.27-16.87,5.55-33.22,11.46-51.07,12.83-17.78,1.36-35.95.56-53.36,5-25.36,6.48-42.03,25.93-59.09,44.4-16.96,18.36-36.99,38.48-64.22,31.67-7.49-1.87-10.69,9.7-3.19,11.57h0Z"/><path class="cls-7" d="m1679.27,5.96c34.63,16.69,20.48,42.19,23,72.38-40.24,28.43-56.93,89.09-93,119.62,14.19,33.98,3.59,38.6-4.01,71-16.89,36.11-90.55,97.65-117.99,42,10.06,52.12-49.03,66.81-83.01,86-19.9-3.76-55.57-23.34-72-35-39.4,1.32-95.39-7.46-134,10.02-145.26-44.2,78.73-208.19,141.99-234,10.33-4.95,52.84-10.48,50-28.01-13.23-6.98-10.72-11.33-7-24-17.42-4.51-51.07-.48-68,5-8.5,12.9-8.14,14.39-9-2.01,0,0,26-10,26-10,91.51,20.87,94.09-64.66,136.89-53.25,6.08,3.03,8.12,4.24-.89,7.25-8.53-9.94-55.61,39.26-62,42,6.52,82.56,77.3-84.34,273-69Z"/></g></svg>