<?xml version="1.0" encoding="UTF-8"?><svg id="Layer_4" xmlns="http://www.w3.org/2000/svg" width="175.96" height="193.52" xmlns:xlink="http://www.w3.org/1999/xlink" viewBox="0 0 175.96 193.52"><defs><style>.cls-1{fill:none;stroke:#000;stroke-miterlimit:10;}.cls-2{fill:url(#Summer);}</style><radialGradient id="Summer" cx="92.47" cy="83.86" fx="92.47" fy="83.86" r="69.49" gradientUnits="userSpaceOnUse"><stop offset="0" stop-color="#fff"/><stop offset=".09" stop-color="#ffecd8"/><stop offset=".21" stop-color="#ffd4a7"/><stop offset=".33" stop-color="#ffc07d"/><stop offset=".46" stop-color="#ffb05a"/><stop offset=".59" stop-color="#ffa340"/><stop offset=".72" stop-color="#ff9a2d"/><stop offset=".86" stop-color="#ff9421"/><stop offset="1" stop-color="#ff931e"/></radialGradient></defs><path class="cls-2" d="m26.47,111.62c5.47,27.87,26.98,53.22,56.71,54.93,14.62.84,28.88-5,40.03-14.21s15.62-24.37,18.26-38.22c2.99-15.67,4.07-33.95,15.36-46.31l-10.24-4.24c-1.22,13.9-4.6,27.42-9.75,40.38l11.57,3.19c5.14-19.74,11.62-40.66,9.52-61.29-.99-9.73-3.95-19-10.04-26.77-7.02-8.95-17.13-14.33-27.81-17.75-3.34-1.07-6.21,1.28-7.38,4.19-2.85,7.08-1.78,14.76-.2,22.01,1.3,6,4.74,14.48,1.7,20.41-1.12,2.19-4.93,3.72-7.14,6.41s-3.74,5.91-4.48,9.35c-1.47,6.85-.08,13.96-1.71,20.75l2.76-3.59c-7.28,4.22-16.06,2.93-24.11,2.67-8.89-.29-18.18.39-25.83,5.41-4.02,2.64-6.99,6.15-10.13,9.72-2.2,2.51-4.4,5.35-5.2,8.66-1.49,6.22,2.77,10.69,8.23,12.67,5.09,1.84,10.69,2.06,15.98,3.05,2.03.38,5.21,1.15,6.41,1.68s1.44.84,1.66,1.14c-1.85-2.58.04,2.73.37,3.74,1.48,4.54,4.02,10.22,9.71,10.02,4.99-.18,7.61-4.91,9.43-8.91,2.54-5.61,4.48-11.46,7.1-17.04,1.37-2.92,2.85-5.96,4.84-8.53,1.34-1.73,2.92-3.06,4.04-3.42l-7.6-5.79c.2,7.54.4,15.08.61,22.62.09,3.32-.14,6.77.74,9.97.43,1.55,1.05,3.01,1.32,4.6.11.67.22,1.63.09,2.91.15-1.5-.88,2.66-.26,1.02-.14.37-.47.95-.75,1.23,1.07-1.05-.17.07-.32.19-1.22.94.67-.51-.11.07-.43.32-1,.64-1.51.81,1.19-.41-1.59.36-2.07.45-.21.04-1.03.11-2.41.11-2.71-.01-3.72-.2-6.61-.99-4.8-1.31-9.52-3.71-13.09-6.99-3.56-3.27-6.03-7.19-6.16-11.43-.14-4.68,2.79-13.54,8.67-14.32,4.58-.61,9.27,2.29,13.08,4.42,4.57,2.55,9.04,5.31,14,7.06,8.36,2.96,18.06,1.61,24.65-4.55,14.13-13.18,8.28-37.85-10.69-42.28l3.59,8.81c3.89-9.08,11.11-14.81,16.75-22.62,6.85-9.48,6.45-20.82,4.02-31.78-1.67-7.54-13.24-4.35-11.57,3.19,1.99,8.96,2.03,16.87-4.09,24.06-5.79,6.8-11.88,12.72-15.47,21.1-1.44,3.37-.57,7.84,3.59,8.81,14.72,3.44,11.59,26.81-3.78,24.71-10.49-1.44-18.39-10.82-29-12.58-5.24-.87-11.48-.13-15.75,3.33-3.2,2.6-5.7,6.89-7.37,10.64-5.98,13.4-.43,26.74,10.93,35.07,9.01,6.6,22.8,11.11,33.65,6.66,6.17-2.53,9.93-8.1,10.12-14.77.12-4.26-1.8-8.05-2.06-12.18-.57-9.08-.49-18.24-.73-27.34-.1-3.75-3.77-7.01-7.6-5.79-13.76,4.39-17.97,22.57-22.91,33.97-.3.69-.91,2.05-1.41,2.96-.24.44-.54.87-.76,1.32-.41.88.12.21-.17.24.84-.08,1.21-1,2.79-1,.91,0,1.88.63,2.67.9,1.49.52-.18.13.12.02.5-.17.28.79-.16-.62-.05-.16-.3-.82-.53-1.54-1.36-4.3-1.77-8.18-5.71-10.93-2.7-1.88-5.95-2.91-9.13-3.62-3.48-.78-7.04-1.18-10.56-1.75-1.51-.24-3.02-.5-4.51-.86-1.29-.31-2.74-.89-3.02-.95-.58-.11-.18-.22-.16.01,0,.02.55,1.93.51,1.89.13.16-.09-.06.11-.3.48-.58.79-1.36,1.25-1.97,3.33-4.4,7.37-8.89,12.65-10.85,9.77-3.63,20.76-.52,30.88-1.44,5.06-.46,11.38-1.52,15.41-4.9s3.37-10.88,3.42-15.58c.06-5.12-.36-10.95,3.95-14.56,2.7-2.26,5.14-3.36,6.9-6.62,1.53-2.82,2.31-5.93,2.56-9.12.96-12-7.54-24.54-2.85-36.17l-7.38,4.19c8.8,2.82,17.44,7.33,22.78,15.14,4.46,6.52,6.26,14.31,6.55,22.11.7,18.28-4.83,36.3-9.39,53.79-1.99,7.65,8.78,10.21,11.57,3.19,5.56-13.99,8.86-28.58,10.18-43.57.46-5.18-6.88-7.92-10.24-4.24-9.1,9.97-13.06,22.65-15.57,35.66-2.48,12.84-3.53,26.87-9.8,38.59-12.24,22.84-43.9,26.82-63.54,11.75-11.72-9-18.58-22.63-21.38-36.9-1.49-7.57-13.05-4.37-11.57,3.19h0Z"/><path class="cls-1" d="m49.36,58.07c-2.81,3.33-9.74,9.8-14,11,2.12,8.67-9.84,12.86-9,22-5.98,6.13-21.03,19.99-19,30-8.24,9.61-9.64,93.97-1,50,2.89-19.41,3.62-48.26,17.49-63.27,4.92,4.75,9.17,13.45,6.5,20.27,2.15,9.04,13.93,14.77,12,24,41.44,13.89-30.38,46.94-2.01,40,0,0,21-24,21-24,19.6-3.88,5.54,12.57,4,23,20.62-4.77-3.95-25.8,27-21,22.31-5.4,49.29-28.19,52.21-52,12.58-25.18,19.06-60.45,11.79-88,12.66-9.04,15.22-17.38,14,4.76,4.97,3.17,3.84-10,5-11.76,0,0-6-9-6-9,0,0-21,11-21,11-46.2-53.46-22.23-7.12-37.34,20.73-10.78,2.21-14.36,9.85-6.66,18.27-16.95,5.46-9.85,7.73-6,20-28.91,6.48-19.56-34.82-49-26Z"/></svg>