<?xml version="1.0" encoding="UTF-8"?><svg id="Layer_3" xmlns="http://www.w3.org/2000/svg" width="375.07" height="148.69" xmlns:xlink="http://www.w3.org/1999/xlink" viewBox="0 0 375.07 148.69"><defs><style>.cls-1{fill:none;stroke:#000;stroke-miterlimit:10;}.cls-2{fill:url(#radial-gradient);}</style><radialGradient id="radial-gradient" cx="190.66" cy="71.3" fx="190.66" fy="71.3" r="136.8" gradientUnits="userSpaceOnUse"><stop offset="0" stop-color="#fff"/><stop offset=".03" stop-color="#fff6ed"/><stop offset=".12" stop-color="#ffdfbd"/><stop offset=".22" stop-color="#ffcb92"/><stop offset=".33" stop-color="#ffb96e"/><stop offset=".44" stop-color="#ffab51"/><stop offset=".55" stop-color="#ffa03a"/><stop offset=".67" stop-color="#ff982a"/><stop offset=".81" stop-color="#ff9420"/><stop offset="1" stop-color="#ff931e"/></radialGradient></defs><path class="cls-2" d="m23.98,114.01c15.04-18.25,23.11-41.14,22.18-64.85-.3-7.69-12.24-7.75-12,0,.51,16.3-4.59,33.2-16.87,44.46-1.95,1.79-2.5,2.15-5.01,3.63-1.59.94.45-.1-1.04.43-.99.35.54.02.46-.01-.49-.2,1.77.57,2.33,1.01,1.8,1.41,1.58,3.35,1.68,4.25-.07-.64.52-1.05-.06-.07.28-.47.48-.97.77-1.44,1.59-2.52,3.35-4.51,5.61-6.86,3.73-3.88,7.76-7.47,11.88-10.93,2.62-2.2,5.36-5.12,8.36-6.74s6.71-2.26,9.87-3.12c15.33-4.16,31.2-5.38,47.04-5.31,15.51.07,30.98,1.39,46.43,2.69,3.49.29,6.98.59,10.47.86,4.11.32,5.94-.11,8.84-2.84,2.57-2.42,5.6-3.48,9.05-4.11,9.08-1.67,18.46-.19,27.54-2.02,10.13-2.03,15.95-9.36,16.18-19.61l-11.18,3.03c5.93,13.24,14.72,26.21,27.93,33.05,11.12,5.75,23.58,6.44,35.69,3.96,27.82-5.69,52.36-25.26,73.24-43.47,11.33-9.88,22.08-20.38,32.68-31.03,4.66-4.69-1.51-13.39-7.27-9.42-30.71,21.15-58.92,45.84-83.66,73.75-4.66,5.25-14.44,12.61-10.4,20.42,3.02,5.83,9.83,6.04,15.56,6.66,5.15.56,8.76,3.38,5.75,8.58-2.8,4.84-8.62,7.94-14.13,7.81-6.71-.16-8.22,10.2-1.6,11.79,22.74,5.45,45.82,9.26,69.09,11.5l-3.03-11.18c-15.9,8-35.08-2-49.9-8.1-16.15-6.64-34.65-13.85-51.66-5.83-5.08,2.39-14.43,13.75-20.54,8.5-3.72-3.2-3.53-8.71-7.34-11.97-4.13-3.52-9.6-4.49-14.88-3.96s-10.07,2.3-15.02,3.98c-6.62,2.24-13.73,3.47-20.65,4.37-13.7,1.77-27.61,1.73-41.38.91-31.48-1.85-62.52-8.01-94.01-9.8l4.24,1.76c-2.35-2.09-4.45-4.03-5.73-6.82.34.74-.62-2.5-.38-1.27-.22-1.15-.14-.95.15-1.51.38-.75,1.6-2.08,2.74-2.8,2.53-1.62,3.85-2.11,6.69-2.95,11.91-3.53,26.97-3.03,38.35,2.43,6.19,2.97,10.35,6.97,11.53,13.43.76,4.21,7.3,6.07,10.03,2.65,9.37-11.75,22.67-13.18,36.82-12.54,3.24.15,6.48.38,9.71.59,3,.2,6.79,1.04,9.75.24,2.13-.58,3.94-2.52,5.75-3.71s3.83-2.38,5.84-3.41c3.34-1.7,6.85-2.98,10.47-3.93,14.87-3.88,30.45-1.07,45.04,2.67,15.96,4.09,31.54,9.6,47.76,12.66,7.55,1.43,10.78-10.14,3.19-11.57-32.53-6.14-66.25-24.38-99.93-15.12-3.82,1.05-7.54,2.5-11.12,4.21-2.01.96-3.96,2.03-5.86,3.21-.93.58-3.85,3.07-4.08,3.16-2.58,1-8.17-.5-10.96-.67-3.7-.24-7.41-.45-11.12-.47-15.23-.06-29.91,3.87-39.75,16.2l10.03,2.65c-4.14-22.8-34.02-28.34-53.16-26.36-9,.93-19.57,3.17-25.84,10.29-7.01,7.96-3.57,17.91,3.06,24.82,3.66,3.82,6.92,4.14,12.07,4.5,5.94.42,11.88.99,17.8,1.63,12.1,1.32,24.17,2.98,36.25,4.46,23.99,2.95,48.36,5.38,72.51,2.86,11.3-1.18,21.88-3.62,32.67-7.05,3.42-1.09,7.63-2.53,11.27-1.71,3.99.9,4.15,6.15,6.65,9.59,4.59,6.33,11.78,8.96,19.35,6.87,8.1-2.23,13.19-9.48,21.15-11.7,15.87-4.42,33.66,5.86,47.92,11.58,16.26,6.52,33.99,11.73,50.6,3.38,5.81-2.92,2.35-10.66-3.03-11.18-22.21-2.14-44.2-5.87-65.9-11.07l-1.6,11.79c12.22.3,26.63-9.51,27.32-22.56.35-6.56-3.56-12.83-9.38-15.84-2.88-1.49-6.4-1.67-9.56-1.98-1.31-.13-2.61-.26-3.91-.43-2.79-.36-.92-1.05-.77.97l-1.76,4.24c26.41-31.75,56.98-59.83,90.99-83.25-2.42-3.14-4.85-6.28-7.27-9.42-18.04,18.14-36.62,36.12-57.68,50.77-17.85,12.42-42.5,27.24-65.08,19.72-13.88-4.62-22.27-17.91-27.93-30.57-2.56-5.73-11.06-2.47-11.18,3.03-.22,10.01-11.89,8.63-19.71,8.81-10.7.25-23.43.66-30.69,9.8l4.24-1.76c-26.02-1.99-52.14-5.11-78.27-3.28-12.96.91-25.93,2.96-38.31,6.97-10.37,3.36-19.05,11.95-26.8,19.49-4.68,4.56-19.48,19.03-8.63,25.2,7.86,4.47,17.95-5.65,22.44-10.93,11.48-13.51,16.76-30.98,16.2-48.59h-12c.81,20.38-5.64,40.56-18.66,56.36-4.88,5.91,3.57,14.45,8.49,8.49h0Z"/><path class="cls-1" d="m16.61,136.64C-26.44,72.09,59.94,75.95,35.02,8.4c15.13,15.12,4.4,54.5,34.56,45.57,29.22,7.18,57.82,1.77,88.03,1.91,7.34,3.82,21.64,1.32,28.99-1.36,33.55,5.21,26.21-14.14,25.53-37.32,6.85-1.81,6.06,33.25,7.45,35.91,55.06,50.98,102.07-7.87,141.38-50.76,12.68,6.95-61.03,70.09-67.09,73.84,23.79,3.64,22.86,33.12,16.65,51.8,8.65-.08,80.34,19.51,43.73,18.99-15.86-11.02-53-10.96-72.69-15.64-20.07,8.32-44.48,3.43-64.11-8.2-14.92,8.82-16.75-10.77-26.91,7.33,0,0-19.12-9.76-19.12-9.76-33.06,29.81-23.8-17.69-51.82,14.65-14.51,2.84-11.55-7.33-11.22-17.86-17.05-3.74-22.24,25.98-38.74,21.48-2.92-10.03,3.32-13.82.71-23.01-18.31,6.84-14.64-4.43-32.97,2.41-11.82-4.52-16.24,9.59-20.77,18.26Z"/></svg>