<?xml version="1.0" encoding="UTF-8"?><svg id="Layer_4" xmlns="http://www.w3.org/2000/svg" width="137.26" height="248.4" xmlns:xlink="http://www.w3.org/1999/xlink" viewBox="0 0 137.26 248.4"><defs><style>.cls-1{fill:none;stroke:#000;stroke-miterlimit:10;}.cls-2{fill:url(#Summer);}</style><radialGradient id="Summer" cx="66.79" cy="124.2" fx="66.79" fy="124.2" r="94.44" gradientUnits="userSpaceOnUse"><stop offset="0" stop-color="#fff"/><stop offset=".09" stop-color="#ffecd8"/><stop offset=".21" stop-color="#ffd4a7"/><stop offset=".33" stop-color="#ffc07d"/><stop offset=".46" stop-color="#ffb05a"/><stop offset=".59" stop-color="#ffa340"/><stop offset=".72" stop-color="#ff9a2d"/><stop offset=".86" stop-color="#ff9421"/><stop offset="1" stop-color="#ff931e"/></radialGradient></defs><path class="cls-2" d="m93.99,7.52c3,16.53-8.26,30.96-18.36,42.71-13.72,15.95-28.86,30.97-39.05,49.59-5.46,9.98-9.47,20.8-11.22,32.06-1.34,8.58-1.36,14.28-4.02,22.61-5.77,18.04-14.16,35.21-18.87,53.61-3.44,13.42-5.79,33.25,10.84,38.73,4.01,1.32,8.12,1.22,12.28,1.08,5.15-.18,10.3.15,15.44.34,10.14.37,21.2.52,30.37-4.49,4.63-2.53,8.47-6.51,10.86-11.2,3.12-6.14,3.17-12.35,3.89-19.05,1.2-11,3.57-21.97,7.49-32.34,5.21-13.78,13.79-24.87,23.2-35.86,8.12-9.48,15.19-19.14,16.49-31.93,1.9-18.71-7.53-38.03-15.74-54.17-3.58-7.04-7.43-13.94-11.39-20.77-1.5-2.59-5.59-4.08-8.21-2.15-21.31,15.68-16.51,43.57-22.91,66.23-6.97,24.68-24.25,44.72-34.64,67.87-5.73,12.77-9.4,26.32-8.14,40.42.4,4.53,6.68,8.74,10.24,4.24,34.92-44.08,60.14-95.22,73.4-149.9h-11.57c5.8,20.74,5,42.18-4.09,61.88-4.35,9.43-10.02,18.26-16.42,26.42-3.41,4.34-7.02,8.52-10.75,12.59-3.81,4.15-5.46,9.08-7.69,14.2-6.24,14.28-12.67,28.65-20.63,42.07-1.17,1.97-2.37,3.91-3.66,5.81-.54.8-1.1,1.59-1.67,2.37-.95,1.3.02.12-1.22,1.53-.87.99-1.76,1.92-2.75,2.8-.35.31.66-1.04-.25.14-.8,1.04.55,0-.1.1-1.29.22,1.67.09.42-.06,3.14.36-1.02-.48,1.82.5-1.11-.38,1.44.62.32.25-.51-.17,1.53.65.04-.06-.84-.4.28,1.01-.03-.03-.15-.49-.31-.98-.45-1.48-.15-.56-.25-1.13-.37-1.7-.44-2.07-.02.51-.18-1.14-.76-7.9-.29-15.89.39-23.78,1.97-22.76,6.21-45.4,11.11-67.74,2.76-12.59,5.82-25.12,9.39-37.51,1.52-5.28,3.14-10.53,4.94-15.72,1.54-4.45,2.87-7.92,4.32-11.05,3.22-6.96-7.12-13.06-10.36-6.06-8.98,19.38-13.91,40.89-18.63,61.62-5.59,24.59-10.29,49.57-12.62,74.7-.79,8.5-1.47,17.22-.53,25.73.64,5.83,2.15,13.57,8.86,15.21,7.43,1.82,13.17-5.93,16.86-11.11,7.9-11.1,13.72-23.83,19.4-36.16,2.32-5.05,4.58-10.13,6.79-15.23,1.32-3.04,2.34-6.52,4.38-9.14s4.64-5.13,6.86-7.75c8.09-9.56,15.55-19.8,21.18-31.03,11.77-23.47,13.93-49.12,6.87-74.38-1.56-5.57-10.15-5.85-11.57,0-12.75,52.57-36.71,102.19-70.32,144.61l10.24,4.24c-2.77-31.02,19.92-56.45,33.15-82.46,7.1-13.96,10.98-27.95,12.86-43.44,1.56-12.89,2.25-29.8,13.74-38.26l-8.21-2.15c10.48,18.07,23.37,39.01,25.48,60.22,1.12,11.27-2.7,19.64-9.33,27.79-8.36,10.28-17.33,19.87-23.67,31.63-4.36,8.1-7.68,16.79-10,25.69-1.37,5.23-2.4,10.55-3.18,15.9-.88,6.09-.45,13.16-2.49,18.94-3.2,9.07-12.18,11.31-20.88,11.67-9.85.41-19.81-.31-29.67-.24-2.88.02-5.67-.37-7.52-1.89-.7-.57-1.76-2.11-2.26-4.13-1.38-5.65.31-13.45,1.96-19.69,4.62-17.48,12.4-33.9,18.08-51.02,2.29-6.91,3.5-13.52,4.15-20.74.97-10.68,4.4-21.18,9.34-30.67,9.22-17.72,23.19-31.98,36.23-46.87,11.13-12.71,22.52-26.78,24.22-44.21.41-4.2.02-8.38-.73-12.52-1.38-7.59-12.94-4.37-11.57,3.19h0Z"/><path class="cls-1" d="m91.33,17.28c17.86,23.42-17.49,34.68-30.14,47C41.75,77.91,8.91,211.88,1.19,234.28c11.17,19.5,59.75,12.87,75,1,11.64-13.06,24.11-45.11,28-62,28.59-47.57,49.19-62.63,14-117-14.88-14.28-19.41-20.92-14.99-42-3.84,1.16-16.69-6.97-11.86,3Z"/></svg>